<svg class="marks" width="769" height="473" xmlns="http://www.w3.org/2000/svg"><g transform="translate(46,8)"><g id="g19" class="type-group"><g transform="translate(0,0)"><rect class="background" width="717" height="417" style="pointer-events: none; fill: none;"></rect><g id="g20" class="type-group"><g transform="translate(0,417)"><rect class="background" width="0" height="0" style="pointer-events: none; fill: none;"></rect><g id="g21" class="type-rule" style="pointer-events: none;"><line x1="69.72500270241055" y1="-417" x2="69.72500270241055" y2="0" style="fill: none; stroke: rgb(216, 216, 216); stroke-width: 1; opacity: 1;"></line><line x1="173.0651821424711" y1="-417" x2="173.0651821424711" y2="0" style="fill: none; stroke: rgb(216, 216, 216); stroke-width: 1; opacity: 1;"></line><line x1="276.4053615825316" y1="-417" x2="276.4053615825316" y2="0" style="fill: none; stroke: rgb(216, 216, 216); stroke-width: 1; opacity: 1;"></line><line x1="379.74554102259214" y1="-417" x2="379.74554102259214" y2="0" style="fill: none; stroke: rgb(216, 216, 216); stroke-width: 1; opacity: 1;"></line><line x1="483.0857204626527" y1="-417" x2="483.0857204626527" y2="0" style="fill: none; stroke: rgb(216, 216, 216); stroke-width: 1; opacity: 1;"></line><line x1="586.4258999027132" y1="-417" x2="586.4258999027132" y2="0" style="fill: none; stroke: rgb(216, 216, 216); stroke-width: 1; opacity: 1;"></line><line x1="689.7660793427738" y1="-417" x2="689.7660793427738" y2="0" style="fill: none; stroke: rgb(216, 216, 216); stroke-width: 1; opacity: 1;"></line></g><g id="g22" class="type-rule" style="pointer-events: none;"><line x1="69.72500270241055" y1="0" x2="69.72500270241055" y2="6" style="fill: none; stroke: rgb(0, 0, 0); stroke-width: 1; opacity: 1;"></line><line x1="173.0651821424711" y1="0" x2="173.0651821424711" y2="6" style="fill: none; stroke: rgb(0, 0, 0); stroke-width: 1; opacity: 1;"></line><line x1="276.4053615825316" y1="0" x2="276.4053615825316" y2="6" style="fill: none; stroke: rgb(0, 0, 0); stroke-width: 1; opacity: 1;"></line><line x1="379.74554102259214" y1="0" x2="379.74554102259214" y2="6" style="fill: none; stroke: rgb(0, 0, 0); stroke-width: 1; opacity: 1;"></line><line x1="483.0857204626527" y1="0" x2="483.0857204626527" y2="6" style="fill: none; stroke: rgb(0, 0, 0); stroke-width: 1; opacity: 1;"></line><line x1="586.4258999027132" y1="0" x2="586.4258999027132" y2="6" style="fill: none; stroke: rgb(0, 0, 0); stroke-width: 1; opacity: 1;"></line><line x1="689.7660793427738" y1="0" x2="689.7660793427738" y2="6" style="fill: none; stroke: rgb(0, 0, 0); stroke-width: 1; opacity: 1;"></line></g><g id="g23" class="type-rule" style="pointer-events: none;"></g><g id="g24" class="type-text"><text x="69.72500270241055" y="9" text-anchor="middle" dy=".9em" style="font: 11px sans-serif; fill: rgb(0, 0, 0); opacity: 1;">4,000</text><text x="173.0651821424711" y="9" text-anchor="middle" dy=".9em" style="font: 11px sans-serif; fill: rgb(0, 0, 0); opacity: 1;">6,000</text><text x="276.4053615825316" y="9" text-anchor="middle" dy=".9em" style="font: 11px sans-serif; fill: rgb(0, 0, 0); opacity: 1;">8,000</text><text x="379.74554102259214" y="9" text-anchor="middle" dy=".9em" style="font: 11px sans-serif; fill: rgb(0, 0, 0); opacity: 1;">10,000</text><text x="483.0857204626527" y="9" text-anchor="middle" dy=".9em" style="font: 11px sans-serif; fill: rgb(0, 0, 0); opacity: 1;">12,000</text><text x="586.4258999027132" y="9" text-anchor="middle" dy=".9em" style="font: 11px sans-serif; fill: rgb(0, 0, 0); opacity: 1;">14,000</text><text x="689.7660793427738" y="9" text-anchor="middle" dy=".9em" style="font: 11px sans-serif; fill: rgb(0, 0, 0); opacity: 1;">16,000</text></g><g id="g25" class="type-path" style="pointer-events: none;"><path transform="translate(0.5,0.5)" d="M0,6V0H717V6" style="fill: none; stroke: rgb(0, 0, 0); stroke-width: 1;"></path></g><g id="g26" class="type-text"><text x="358" y="35" text-anchor="middle" dy=".35em" style="font: bold 11px sans-serif; fill: rgb(0, 0, 0);">price</text></g></g></g><g id="g27" class="type-group"><g transform="translate(0,0)"><rect class="background" width="0" height="0" style="pointer-events: none; fill: none;"></rect><g id="g28" class="type-rule" style="pointer-events: none;"><line x1="0" y1="402.7112887112887" x2="717" y2="402.7112887112887" style="fill: none; stroke: rgb(216, 216, 216); stroke-width: 1; opacity: 1;"></line><line x1="0" y1="369.38461538461536" x2="717" y2="369.38461538461536" style="fill: none; stroke: rgb(216, 216, 216); stroke-width: 1; opacity: 1;"></line><line x1="0" y1="336.05794205794206" x2="717" y2="336.05794205794206" style="fill: none; stroke: rgb(216, 216, 216); stroke-width: 1; opacity: 1;"></line><line x1="0" y1="302.73126873126876" x2="717" y2="302.73126873126876" style="fill: none; stroke: rgb(216, 216, 216); stroke-width: 1; opacity: 1;"></line><line x1="0" y1="269.40459540459545" x2="717" y2="269.40459540459545" style="fill: none; stroke: rgb(216, 216, 216); stroke-width: 1; opacity: 1;"></line><line x1="0" y1="236.0779220779221" x2="717" y2="236.0779220779221" style="fill: none; stroke: rgb(216, 216, 216); stroke-width: 1; opacity: 1;"></line><line x1="0" y1="202.75124875124874" x2="717" y2="202.75124875124874" style="fill: none; stroke: rgb(216, 216, 216); stroke-width: 1; opacity: 1;"></line><line x1="0" y1="169.4245754245754" x2="717" y2="169.4245754245754" style="fill: none; stroke: rgb(216, 216, 216); stroke-width: 1; opacity: 1;"></line><line x1="0" y1="136.0979020979021" x2="717" y2="136.0979020979021" style="fill: none; stroke: rgb(216, 216, 216); stroke-width: 1; opacity: 1;"></line><line x1="0" y1="102.77122877122876" x2="717" y2="102.77122877122876" style="fill: none; stroke: rgb(216, 216, 216); stroke-width: 1; opacity: 1;"></line><line x1="0" y1="69.44455544455545" x2="717" y2="69.44455544455545" style="fill: none; stroke: rgb(216, 216, 216); stroke-width: 1; opacity: 1;"></line><line x1="0" y1="36.11788211788209" x2="717" y2="36.11788211788209" style="fill: none; stroke: rgb(216, 216, 216); stroke-width: 1; opacity: 1;"></line><line x1="0" y1="2.791208791208783" x2="717" y2="2.791208791208783" style="fill: none; stroke: rgb(216, 216, 216); stroke-width: 1; opacity: 1;"></line></g><g id="g29" class="type-rule" style="pointer-events: none;"><line x1="-6" y1="402.7112887112887" x2="0" y2="402.7112887112887" style="fill: none; stroke: rgb(0, 0, 0); stroke-width: 1; opacity: 1;"></line><line x1="-6" y1="369.38461538461536" x2="0" y2="369.38461538461536" style="fill: none; stroke: rgb(0, 0, 0); stroke-width: 1; opacity: 1;"></line><line x1="-6" y1="336.05794205794206" x2="0" y2="336.05794205794206" style="fill: none; stroke: rgb(0, 0, 0); stroke-width: 1; opacity: 1;"></line><line x1="-6" y1="302.73126873126876" x2="0" y2="302.73126873126876" style="fill: none; stroke: rgb(0, 0, 0); stroke-width: 1; opacity: 1;"></line><line x1="-6" y1="269.40459540459545" x2="0" y2="269.40459540459545" style="fill: none; stroke: rgb(0, 0, 0); stroke-width: 1; opacity: 1;"></line><line x1="-6" y1="236.0779220779221" x2="0" y2="236.0779220779221" style="fill: none; stroke: rgb(0, 0, 0); stroke-width: 1; opacity: 1;"></line><line x1="-6" y1="202.75124875124874" x2="0" y2="202.75124875124874" style="fill: none; stroke: rgb(0, 0, 0); stroke-width: 1; opacity: 1;"></line><line x1="-6" y1="169.4245754245754" x2="0" y2="169.4245754245754" style="fill: none; stroke: rgb(0, 0, 0); stroke-width: 1; opacity: 1;"></line><line x1="-6" y1="136.0979020979021" x2="0" y2="136.0979020979021" style="fill: none; stroke: rgb(0, 0, 0); stroke-width: 1; opacity: 1;"></line><line x1="-6" y1="102.77122877122876" x2="0" y2="102.77122877122876" style="fill: none; stroke: rgb(0, 0, 0); stroke-width: 1; opacity: 1;"></line><line x1="-6" y1="69.44455544455545" x2="0" y2="69.44455544455545" style="fill: none; stroke: rgb(0, 0, 0); stroke-width: 1; opacity: 1;"></line><line x1="-6" y1="36.11788211788209" x2="0" y2="36.11788211788209" style="fill: none; stroke: rgb(0, 0, 0); stroke-width: 1; opacity: 1;"></line><line x1="-6" y1="2.791208791208783" x2="0" y2="2.791208791208783" style="fill: none; stroke: rgb(0, 0, 0); stroke-width: 1; opacity: 1;"></line></g><g id="g30" class="type-rule" style="pointer-events: none;"></g><g id="g31" class="type-text"><text x="-9" y="402.7112887112887" text-anchor="end" dy=".35em" style="font: 11px sans-serif; fill: rgb(0, 0, 0); opacity: 1;">2</text><text x="-9" y="369.38461538461536" text-anchor="end" dy=".35em" style="font: 11px sans-serif; fill: rgb(0, 0, 0); opacity: 1;">4</text><text x="-9" y="336.05794205794206" text-anchor="end" dy=".35em" style="font: 11px sans-serif; fill: rgb(0, 0, 0); opacity: 1;">6</text><text x="-9" y="302.73126873126876" text-anchor="end" dy=".35em" style="font: 11px sans-serif; fill: rgb(0, 0, 0); opacity: 1;">8</text><text x="-9" y="269.40459540459545" text-anchor="end" dy=".35em" style="font: 11px sans-serif; fill: rgb(0, 0, 0); opacity: 1;">10</text><text x="-9" y="236.0779220779221" text-anchor="end" dy=".35em" style="font: 11px sans-serif; fill: rgb(0, 0, 0); opacity: 1;">12</text><text x="-9" y="202.75124875124874" text-anchor="end" dy=".35em" style="font: 11px sans-serif; fill: rgb(0, 0, 0); opacity: 1;">14</text><text x="-9" y="169.4245754245754" text-anchor="end" dy=".35em" style="font: 11px sans-serif; fill: rgb(0, 0, 0); opacity: 1;">16</text><text x="-9" y="136.0979020979021" text-anchor="end" dy=".35em" style="font: 11px sans-serif; fill: rgb(0, 0, 0); opacity: 1;">18</text><text x="-9" y="102.77122877122876" text-anchor="end" dy=".35em" style="font: 11px sans-serif; fill: rgb(0, 0, 0); opacity: 1;">20</text><text x="-9" y="69.44455544455545" text-anchor="end" dy=".35em" style="font: 11px sans-serif; fill: rgb(0, 0, 0); opacity: 1;">22</text><text x="-9" y="36.11788211788209" text-anchor="end" dy=".35em" style="font: 11px sans-serif; fill: rgb(0, 0, 0); opacity: 1;">24</text><text x="-9" y="2.791208791208783" text-anchor="end" dy=".35em" style="font: 11px sans-serif; fill: rgb(0, 0, 0); opacity: 1;">26</text></g><g id="g32" class="type-path" style="pointer-events: none;"><path transform="translate(0.5,0.5)" d="M-6,0H0V417H-6" style="fill: none; stroke: rgb(0, 0, 0); stroke-width: 1;"></path></g><g id="g33" class="type-text"><text x="-35" y="208" text-anchor="middle" transform="rotate(-90 -35,208)" dy=".35em" style="font: bold 11px sans-serif; fill: rgb(0, 0, 0);">headroom</text></g></g></g><g id="g34" class="type-symbol"><path transform="translate(74.34034158469355,331.3921078921079)" d="M0,3.989422804014327A3.989422804014327,3.989422804014327 0 1,1 0,-3.989422804014327A3.989422804014327,3.989422804014327 0 1,1 0,3.989422804014327Z" style="fill: rgb(0, 0, 0);"></path><path transform="translate(107.92589990271323,285.5679320679321)" d="M0,3.989422804014327A3.989422804014327,3.989422804014327 0 1,1 0,-3.989422804014327A3.989422804014327,3.989422804014327 0 1,1 0,3.989422804014327Z" style="fill: rgb(0, 0, 0);"></path><path transform="translate(58.839314668684466,285.5679320679321)" d="M0,3.989422804014327A3.989422804014327,3.989422804014327 0 1,1 0,-3.989422804014327A3.989422804014327,3.989422804014327 0 1,1 0,3.989422804014327Z" style="fill: rgb(0, 0, 0);"></path><path transform="translate(111.38779591395526,98.1053946053946)" d="M0,3.989422804014327A3.989422804014327,3.989422804014327 0 1,1 0,-3.989422804014327A3.989422804014327,3.989422804014327 0 1,1 0,3.989422804014327Z" style="fill: rgb(0, 0, 0);"></path><path transform="translate(266.9664360609664,168.9245754245754)" d="M0,3.989422804014327A3.989422804014327,3.989422804014327 0 1,1 0,-3.989422804014327A3.989422804014327,3.989422804014327 0 1,1 0,3.989422804014327Z" style="fill: rgb(0, 0, 0);"></path><path transform="translate(161.61112312182468,168.9245754245754)" d="M0,3.989422804014327A3.989422804014327,3.989422804014327 0 1,1 0,-3.989422804014327A3.989422804014327,3.989422804014327 0 1,1 0,3.989422804014327Z" style="fill: rgb(0, 0, 0);"></path><path transform="translate(92.63155334558427,285.5679320679321)" d="M0,3.989422804014327A3.989422804014327,3.989422804014327 0 1,1 0,-3.989422804014327A3.989422804014327,3.989422804014327 0 1,1 0,3.989422804014327Z" style="fill: rgb(0, 0, 0);"></path><path transform="translate(130.66073937952652,368.88461538461536)" d="M0,3.989422804014327A3.989422804014327,3.989422804014327 0 1,1 0,-3.989422804014327A3.989422804014327,3.989422804014327 0 1,1 0,3.989422804014327Z" style="fill: rgb(0, 0, 0);"></path><path transform="translate(398.4668143984434,231.4120879120879)" d="M0,3.989422804014327A3.989422804014327,3.989422804014327 0 1,1 0,-3.989422804014327A3.989422804014327,3.989422804014327 0 1,1 0,3.989422804014327Z" style="fill: rgb(0, 0, 0);"></path><path transform="translate(73.46195005945303,231.4120879120879)" d="M0,3.989422804014327A3.989422804014327,3.989422804014327 0 1,1 0,-3.989422804014327A3.989422804014327,3.989422804014327 0 1,1 0,3.989422804014327Z" style="fill: rgb(0, 0, 0);"></path><path transform="translate(450.80861528483405,168.9245754245754)" d="M0,3.989422804014327A3.989422804014327,3.989422804014327 0 1,1 0,-3.989422804014327A3.989422804014327,3.989422804014327 0 1,1 0,3.989422804014327Z" style="fill: rgb(0, 0, 0);"></path><path transform="translate(611.7609447627284,231.4120879120879)" d="M0,3.989422804014327A3.989422804014327,3.989422804014327 0 1,1 0,-3.989422804014327A3.989422804014327,3.989422804014327 0 1,1 0,3.989422804014327Z" style="fill: rgb(0, 0, 0);"></path><path transform="translate(684.409090909091,285.5679320679321)" d="M0,3.989422804014327A3.989422804014327,3.989422804014327 0 1,1 0,-3.989422804014327A3.989422804014327,3.989422804014327 0 1,1 0,3.989422804014327Z" style="fill: rgb(0, 0, 0);"></path><path transform="translate(33.004269808669335,331.3921078921079)" d="M0,3.989422804014327A3.989422804014327,3.989422804014327 0 1,1 0,-3.989422804014327A3.989422804014327,3.989422804014327 0 1,1 0,3.989422804014327Z" style="fill: rgb(0, 0, 0);"></path><path transform="translate(157.32250567506216,168.9245754245754)" d="M0,3.989422804014327A3.989422804014327,3.989422804014327 0 1,1 0,-3.989422804014327A3.989422804014327,3.989422804014327 0 1,1 0,3.989422804014327Z" style="fill: rgb(0, 0, 0);"></path><path transform="translate(95.2667279213058,231.4120879120879)" d="M0,3.989422804014327A3.989422804014327,3.989422804014327 0 1,1 0,-3.989422804014327A3.989422804014327,3.989422804014327 0 1,1 0,3.989422804014327Z" style="fill: rgb(0, 0, 0);"></path><path transform="translate(126.26878175332396,368.88461538461536)" d="M0,3.989422804014327A3.989422804014327,3.989422804014327 0 1,1 0,-3.989422804014327A3.989422804014327,3.989422804014327 0 1,1 0,3.989422804014327Z" style="fill: rgb(0, 0, 0);"></path><path transform="translate(52.018862825640475,368.88461538461536)" d="M0,3.989422804014327A3.989422804014327,3.989422804014327 0 1,1 0,-3.989422804014327A3.989422804014327,3.989422804014327 0 1,1 0,3.989422804014327Z" style="fill: rgb(0, 0, 0);"></path><path transform="translate(66.89984866500919,231.4120879120879)" d="M0,3.989422804014327A3.989422804014327,3.989422804014327 0 1,1 0,-3.989422804014327A3.989422804014327,3.989422804014327 0 1,1 0,3.989422804014327Z" style="fill: rgb(0, 0, 0);"></path><path transform="translate(68.39828126689007,368.88461538461536)" d="M0,3.989422804014327A3.989422804014327,3.989422804014327 0 1,1 0,-3.989422804014327A3.989422804014327,3.989422804014327 0 1,1 0,3.989422804014327Z" style="fill: rgb(0, 0, 0);"></path><path transform="translate(69.74170359961084,168.9245754245754)" d="M0,3.989422804014327A3.989422804014327,3.989422804014327 0 1,1 0,-3.989422804014327A3.989422804014327,3.989422804014327 0 1,1 0,3.989422804014327Z" style="fill: rgb(0, 0, 0);"></path><path transform="translate(166.67479191438764,168.9245754245754)" d="M0,3.989422804014327A3.989422804014327,3.989422804014327 0 1,1 0,-3.989422804014327A3.989422804014327,3.989422804014327 0 1,1 0,3.989422804014327Z" style="fill: rgb(0, 0, 0);"></path><path transform="translate(190.23635282672143,98.1053946053946)" d="M0,3.989422804014327A3.989422804014327,3.989422804014327 0 1,1 0,-3.989422804014327A3.989422804014327,3.989422804014327 0 1,1 0,3.989422804014327Z" style="fill: rgb(0, 0, 0);"></path><path transform="translate(89.32466760350232,398.04545454545456)" d="M0,3.989422804014327A3.989422804014327,3.989422804014327 0 1,1 0,-3.989422804014327A3.989422804014327,3.989422804014327 0 1,1 0,3.989422804014327Z" style="fill: rgb(0, 0, 0);"></path><path transform="translate(78.88730948005622,368.88461538461536)" d="M0,3.989422804014327A3.989422804014327,3.989422804014327 0 1,1 0,-3.989422804014327A3.989422804014327,3.989422804014327 0 1,1 0,3.989422804014327Z" style="fill: rgb(0, 0, 0);"></path><path transform="translate(456.5956653334775,231.4120879120879)" d="M0,3.989422804014327A3.989422804014327,3.989422804014327 0 1,1 0,-3.989422804014327A3.989422804014327,3.989422804014327 0 1,1 0,3.989422804014327Z" style="fill: rgb(0, 0, 0);"></path><path transform="translate(564.947843476381,331.3921078921079)" d="M0,3.989422804014327A3.989422804014327,3.989422804014327 0 1,1 0,-3.989422804014327A3.989422804014327,3.989422804014327 0 1,1 0,3.989422804014327Z" style="fill: rgb(0, 0, 0);"></path><path transform="translate(558.334071992217,231.4120879120879)" d="M0,3.989422804014327A3.989422804014327,3.989422804014327 0 1,1 0,-3.989422804014327A3.989422804014327,3.989422804014327 0 1,1 0,3.989422804014327Z" style="fill: rgb(0, 0, 0);"></path><path transform="translate(60.38941736028537,285.5679320679321)" d="M0,3.989422804014327A3.989422804014327,3.989422804014327 0 1,1 0,-3.989422804014327A3.989422804014327,3.989422804014327 0 1,1 0,3.989422804014327Z" style="fill: rgb(0, 0, 0);"></path><path transform="translate(140.47805642633227,231.4120879120879)" d="M0,3.989422804014327A3.989422804014327,3.989422804014327 0 1,1 0,-3.989422804014327A3.989422804014327,3.989422804014327 0 1,1 0,3.989422804014327Z" style="fill: rgb(0, 0, 0);"></path><path transform="translate(181.09074694627606,231.4120879120879)" d="M0,3.989422804014327A3.989422804014327,3.989422804014327 0 1,1 0,-3.989422804014327A3.989422804014327,3.989422804014327 0 1,1 0,3.989422804014327Z" style="fill: rgb(0, 0, 0);"></path><path transform="translate(95.88676899794618,285.5679320679321)" d="M0,3.989422804014327A3.989422804014327,3.989422804014327 0 1,1 0,-3.989422804014327A3.989422804014327,3.989422804014327 0 1,1 0,3.989422804014327Z" style="fill: rgb(0, 0, 0);"></path><path transform="translate(188.22121932764028,285.5679320679321)" d="M0,3.989422804014327A3.989422804014327,3.989422804014327 0 1,1 0,-3.989422804014327A3.989422804014327,3.989422804014327 0 1,1 0,3.989422804014327Z" style="fill: rgb(0, 0, 0);"></path><path transform="translate(32.59090909090909,231.4120879120879)" d="M0,3.989422804014327A3.989422804014327,3.989422804014327 0 1,1 0,-3.989422804014327A3.989422804014327,3.989422804014327 0 1,1 0,3.989422804014327Z" style="fill: rgb(0, 0, 0);"></path><path transform="translate(317.9648146146362,168.9245754245754)" d="M0,3.989422804014327A3.989422804014327,3.989422804014327 0 1,1 0,-3.989422804014327A3.989422804014327,3.989422804014327 0 1,1 0,3.989422804014327Z" style="fill: rgb(0, 0, 0);"></path><path transform="translate(129.782347854286,368.88461538461536)" d="M0,3.989422804014327A3.989422804014327,3.989422804014327 0 1,1 0,-3.989422804014327A3.989422804014327,3.989422804014327 0 1,1 0,3.989422804014327Z" style="fill: rgb(0, 0, 0);"></path><path transform="translate(107.09917846719274,98.1053946053946)" d="M0,3.989422804014327A3.989422804014327,3.989422804014327 0 1,1 0,-3.989422804014327A3.989422804014327,3.989422804014327 0 1,1 0,3.989422804014327Z" style="fill: rgb(0, 0, 0);"></path><path transform="translate(115.21138255323748,168.9245754245754)" d="M0,3.989422804014327A3.989422804014327,3.989422804014327 0 1,1 0,-3.989422804014327A3.989422804014327,3.989422804014327 0 1,1 0,3.989422804014327Z" style="fill: rgb(0, 0, 0);"></path><path transform="translate(78.57728894173603,98.1053946053946)" d="M0,3.989422804014327A3.989422804014327,3.989422804014327 0 1,1 0,-3.989422804014327A3.989422804014327,3.989422804014327 0 1,1 0,3.989422804014327Z" style="fill: rgb(0, 0, 0);"></path><path transform="translate(79.30067019781646,368.88461538461536)" d="M0,3.989422804014327A3.989422804014327,3.989422804014327 0 1,1 0,-3.989422804014327A3.989422804014327,3.989422804014327 0 1,1 0,3.989422804014327Z" style="fill: rgb(0, 0, 0);"></path><path transform="translate(398.4151443087234,231.4120879120879)" d="M0,3.989422804014327A3.989422804014327,3.989422804014327 0 1,1 0,-3.989422804014327A3.989422804014327,3.989422804014327 0 1,1 0,3.989422804014327Z" style="fill: rgb(0, 0, 0);"></path><path transform="translate(102.65555075127013,368.88461538461536)" d="M0,3.989422804014327A3.989422804014327,3.989422804014327 0 1,1 0,-3.989422804014327A3.989422804014327,3.989422804014327 0 1,1 0,3.989422804014327Z" style="fill: rgb(0, 0, 0);"></path><path transform="translate(91.1847908334234,331.3921078921079)" d="M0,3.989422804014327A3.989422804014327,3.989422804014327 0 1,1 0,-3.989422804014327A3.989422804014327,3.989422804014327 0 1,1 0,3.989422804014327Z" style="fill: rgb(0, 0, 0);"></path><path transform="translate(94.12998594746514,168.9245754245754)" d="M0,3.989422804014327A3.989422804014327,3.989422804014327 0 1,1 0,-3.989422804014327A3.989422804014327,3.989422804014327 0 1,1 0,3.989422804014327Z" style="fill: rgb(0, 0, 0);"></path><path transform="translate(197.6768457464058,398.04545454545456)" d="M0,3.989422804014327A3.989422804014327,3.989422804014327 0 1,1 0,-3.989422804014327A3.989422804014327,3.989422804014327 0 1,1 0,3.989422804014327Z" style="fill: rgb(0, 0, 0);"></path><path transform="translate(72.32520808561236,18.95454545454544)" d="M0,3.989422804014327A3.989422804014327,3.989422804014327 0 1,1 0,-3.989422804014327A3.989422804014327,3.989422804014327 0 1,1 0,3.989422804014327Z" style="fill: rgb(0, 0, 0);"></path><path transform="translate(162.12782401902496,168.9245754245754)" d="M0,3.989422804014327A3.989422804014327,3.989422804014327 0 1,1 0,-3.989422804014327A3.989422804014327,3.989422804014327 0 1,1 0,3.989422804014327Z" style="fill: rgb(0, 0, 0);"></path><path transform="translate(117.48486650091881,398.04545454545456)" d="M0,3.989422804014327A3.989422804014327,3.989422804014327 0 1,1 0,-3.989422804014327A3.989422804014327,3.989422804014327 0 1,1 0,3.989422804014327Z" style="fill: rgb(0, 0, 0);"></path><path transform="translate(132.36585234028752,368.88461538461536)" d="M0,3.989422804014327A3.989422804014327,3.989422804014327 0 1,1 0,-3.989422804014327A3.989422804014327,3.989422804014327 0 1,1 0,3.989422804014327Z" style="fill: rgb(0, 0, 0);"></path><path transform="translate(106.58247756999245,231.4120879120879)" d="M0,3.989422804014327A3.989422804014327,3.989422804014327 0 1,1 0,-3.989422804014327A3.989422804014327,3.989422804014327 0 1,1 0,3.989422804014327Z" style="fill: rgb(0, 0, 0);"></path><path transform="translate(91.13312074370339,231.4120879120879)" d="M0,3.989422804014327A3.989422804014327,3.989422804014327 0 1,1 0,-3.989422804014327A3.989422804014327,3.989422804014327 0 1,1 0,3.989422804014327Z" style="fill: rgb(0, 0, 0);"></path><path transform="translate(78.11225813425575,368.88461538461536)" d="M0,3.989422804014327A3.989422804014327,3.989422804014327 0 1,1 0,-3.989422804014327A3.989422804014327,3.989422804014327 0 1,1 0,3.989422804014327Z" style="fill: rgb(0, 0, 0);"></path><path transform="translate(363.22781320938276,285.5679320679321)" d="M0,3.989422804014327A3.989422804014327,3.989422804014327 0 1,1 0,-3.989422804014327A3.989422804014327,3.989422804014327 0 1,1 0,3.989422804014327Z" style="fill: rgb(0, 0, 0);"></path><path transform="translate(187.80785860988001,331.3921078921079)" d="M0,3.989422804014327A3.989422804014327,3.989422804014327 0 1,1 0,-3.989422804014327A3.989422804014327,3.989422804014327 0 1,1 0,3.989422804014327Z" style="fill: rgb(0, 0, 0);"></path><path transform="translate(365.55296724678414,331.3921078921079)" d="M0,3.989422804014327A3.989422804014327,3.989422804014327 0 1,1 0,-3.989422804014327A3.989422804014327,3.989422804014327 0 1,1 0,3.989422804014327Z" style="fill: rgb(0, 0, 0);"></path><path transform="translate(184.39763268835802,398.04545454545456)" d="M0,3.989422804014327A3.989422804014327,3.989422804014327 0 1,1 0,-3.989422804014327A3.989422804014327,3.989422804014327 0 1,1 0,3.989422804014327Z" style="fill: rgb(0, 0, 0);"></path><path transform="translate(99.65868554750838,368.88461538461536)" d="M0,3.989422804014327A3.989422804014327,3.989422804014327 0 1,1 0,-3.989422804014327A3.989422804014327,3.989422804014327 0 1,1 0,3.989422804014327Z" style="fill: rgb(0, 0, 0);"></path><path transform="translate(124.9770295103232,331.3921078921079)" d="M0,3.989422804014327A3.989422804014327,3.989422804014327 0 1,1 0,-3.989422804014327A3.989422804014327,3.989422804014327 0 1,1 0,3.989422804014327Z" style="fill: rgb(0, 0, 0);"></path><path transform="translate(282.57080315641554,331.3921078921079)" d="M0,3.989422804014327A3.989422804014327,3.989422804014327 0 1,1 0,-3.989422804014327A3.989422804014327,3.989422804014327 0 1,1 0,3.989422804014327Z" style="fill: rgb(0, 0, 0);"></path><path transform="translate(84.51934925953951,331.3921078921079)" d="M0,3.989422804014327A3.989422804014327,3.989422804014327 0 1,1 0,-3.989422804014327A3.989422804014327,3.989422804014327 0 1,1 0,3.989422804014327Z" style="fill: rgb(0, 0, 0);"></path><path transform="translate(162.17949410874502,285.5679320679321)" d="M0,3.989422804014327A3.989422804014327,3.989422804014327 0 1,1 0,-3.989422804014327A3.989422804014327,3.989422804014327 0 1,1 0,3.989422804014327Z" style="fill: rgb(0, 0, 0);"></path><path transform="translate(95.00837747270566,331.3921078921079)" d="M0,3.989422804014327A3.989422804014327,3.989422804014327 0 1,1 0,-3.989422804014327A3.989422804014327,3.989422804014327 0 1,1 0,3.989422804014327Z" style="fill: rgb(0, 0, 0);"></path><path transform="translate(68.9666522538104,231.4120879120879)" d="M0,3.989422804014327A3.989422804014327,3.989422804014327 0 1,1 0,-3.989422804014327A3.989422804014327,3.989422804014327 0 1,1 0,3.989422804014327Z" style="fill: rgb(0, 0, 0);"></path><path transform="translate(533.7391092854826,231.4120879120879)" d="M0,3.989422804014327A3.989422804014327,3.989422804014327 0 1,1 0,-3.989422804014327A3.989422804014327,3.989422804014327 0 1,1 0,3.989422804014327Z" style="fill: rgb(0, 0, 0);"></path><path transform="translate(63.79964328180737,285.5679320679321)" d="M0,3.989422804014327A3.989422804014327,3.989422804014327 0 1,1 0,-3.989422804014327A3.989422804014327,3.989422804014327 0 1,1 0,3.989422804014327Z" style="fill: rgb(0, 0, 0);"></path><path transform="translate(58.78764457896444,331.3921078921079)" d="M0,3.989422804014327A3.989422804014327,3.989422804014327 0 1,1 0,-3.989422804014327A3.989422804014327,3.989422804014327 0 1,1 0,3.989422804014327Z" style="fill: rgb(0, 0, 0);"></path><path transform="translate(167.34650308074802,331.3921078921079)" d="M0,3.989422804014327A3.989422804014327,3.989422804014327 0 1,1 0,-3.989422804014327A3.989422804014327,3.989422804014327 0 1,1 0,3.989422804014327Z" style="fill: rgb(0, 0, 0);"></path><path transform="translate(56.20414009296292,285.5679320679321)" d="M0,3.989422804014327A3.989422804014327,3.989422804014327 0 1,1 0,-3.989422804014327A3.989422804014327,3.989422804014327 0 1,1 0,3.989422804014327Z" style="fill: rgb(0, 0, 0);"></path><path transform="translate(158.04588693114258,368.88461538461536)" d="M0,3.989422804014327A3.989422804014327,3.989422804014327 0 1,1 0,-3.989422804014327A3.989422804014327,3.989422804014327 0 1,1 0,3.989422804014327Z" style="fill: rgb(0, 0, 0);"></path><path transform="translate(231.4690844233056,331.3921078921079)" d="M0,3.989422804014327A3.989422804014327,3.989422804014327 0 1,1 0,-3.989422804014327A3.989422804014327,3.989422804014327 0 1,1 0,3.989422804014327Z" style="fill: rgb(0, 0, 0);"></path><path transform="translate(141.40811804129285,285.5679320679321)" d="M0,3.989422804014327A3.989422804014327,3.989422804014327 0 1,1 0,-3.989422804014327A3.989422804014327,3.989422804014327 0 1,1 0,3.989422804014327Z" style="fill: rgb(0, 0, 0);"></path><path transform="translate(105.23905523727164,285.5679320679321)" d="M0,3.989422804014327A3.989422804014327,3.989422804014327 0 1,1 0,-3.989422804014327A3.989422804014327,3.989422804014327 0 1,1 0,3.989422804014327Z" style="fill: rgb(0, 0, 0);"></path><path transform="translate(216.48475840449683,368.88461538461536)" d="M0,3.989422804014327A3.989422804014327,3.989422804014327 0 1,1 0,-3.989422804014327A3.989422804014327,3.989422804014327 0 1,1 0,3.989422804014327Z" style="fill: rgb(0, 0, 0);"></path><path transform="translate(482.3273700140526,331.3921078921079)" d="M0,3.989422804014327A3.989422804014327,3.989422804014327 0 1,1 0,-3.989422804014327A3.989422804014327,3.989422804014327 0 1,1 0,3.989422804014327Z" style="fill: rgb(0, 0, 0);"></path></g><g id="g35" class="type-area"><path d="M32.59090909090909,253.12420564880247L40.84177215189886,253.49677335700403L49.09263521288865,253.84559955216088L57.3434982738779,254.16867449879226L65.59436133486767,254.4638379158089L73.84522439585746,254.72878080933052L82.0960874568467,254.96105226820077L90.34695051783648,255.15807254303553L98.59781357882623,255.31715377390202L106.848676639816,255.43552964522772L115.09953970080531,255.51039497249286L123.35040276179507,255.53895571147612L131.60126582278482,255.5184890947124L139.8521288837746,255.44641255075985L148.10299194476386,255.32035882156154L156.35385500575362,255.13825341012358L164.60471806674337,254.89838938364468L172.85558112773322,254.5994938831297L181.10644418872246,254.2407806824183L189.35730724971222,253.82198393265097L197.608170310702,253.3433697949798L205.85903337169177,252.80572479425717L214.10989643268098,252.21032206233195L222.36075949367077,251.5588687692414L230.61162255466056,250.8534396070237L238.86248561565034,250.09640198338755L247.1133486766396,249.29033857404738L255.36421173762938,248.4379722079943L263.6150747986191,247.54209695276825L271.8659378596089,246.6055179836792L280.1168009205982,245.63100158072513L288.36766398158795,244.62123554793325L296.6185270425777,243.57879956406862L304.8693901035675,242.50614445984183L313.1202531645573,241.40557914296386L321.37111622554653,240.27926380593985L329.6219792865363,239.12920809580675L337.87284234752605,237.95727304968625L346.1237054085154,236.7651757649634L354.3745684695051,235.5544959495142L362.6254315304949,234.3266836673794L370.8762945914847,233.0830677481038L379.12715765247395,231.82486445897L387.3780207134642,230.55318614770968L395.6288837744539,229.2690496500866L403.87974683544377,227.9733843247626L412.1306098964335,226.66703962967853L420.3814729574234,225.35079219291134L428.6323360184131,224.02535235916886L436.8831990794029,222.69137021304326L445.13406214039264,221.34944109375178L453.3849252013824,220.0001106250602L461.6357882623722,218.6438792894054L469.88665132336195,217.28120657807435L478.13751438435173,215.91251475031927L486.38837744534146,214.53819223402166L494.63924050633125,213.15859669946474L502.890103567321,211.77405783611331L511.1409666283108,210.38487986043927L519.3918296893005,208.991343780701L527.6426927502853,207.59370944252424L535.893555811275,206.19221737700786L544.1444188722649,204.78709047113176L552.3952819332545,203.37853547834172L560.6461449942443,201.96674438543425L568.8970080552341,200.55189565026646L577.1478711162239,199.13415532334972L585.3987341772137,197.71367806501502L593.6495972382033,196.29060806866843L601.9004602991931,194.8650798995301L610.1513233601829,193.43721925728178L618.4021864211727,192.00714367016002L626.6530494821624,190.57496312726292L634.9039125431523,189.1407806550999L643.1547756041421,187.70469284380343L651.4056386651318,186.26679032788275L659.6565017261216,184.8271582258212L667.9073647871114,183.38587654247544L676.1582278481011,181.94302053773734L684.409090909091,180.49866106462915L684.409090909091,321.0307726576697L676.1582278481011,320.36388776159976L667.9073647871114,319.6985063338997L659.6565017261216,319.03469922759206L651.4056386651318,318.3725417025692L643.1547756041421,317.7121137636863L634.9039125431523,317.05350052942924L626.6530494821624,316.3967926343033L618.4021864211727,315.742086668445L610.1513233601829,315.089485658362L601.9004602991931,314.4390995931514L593.6495972382033,313.791046001052L585.3987341772137,313.14545058174366L577.1478711162239,312.5024479004467L568.8970080552341,311.8621821505677L560.6461449942443,311.2248079924387L552.3952819332545,310.5904914765692L544.1444188722649,309.95941106081796L535.893555811275,309.3317587319803L527.6426927502853,308.7077412435016L519.3918296893005,308.08758148236325L511.1409666283108,307.47151997966404L502.890103567321,306.8598165810276L494.63924050633125,306.2527522947146L486.38837744534146,305.65063133719553L478.13751438435173,305.053783397937L469.88665132336195,304.4625661472199L461.6357882623722,303.87736801292743L453.3849252013824,303.29861125431125L445.13406214039264,302.7267553626581L436.8831990794029,302.16230082040397L428.6323360184131,301.60579325131613L420.3814729574234,301.0578279946128L412.1306098964335,300.519055134883L403.87974683544377,299.99018501683753L395.6288837744539,299.4719942685529L387.3780207134642,298.9653323479676L379.12715765247395,298.47112861374467L370.8762945914847,297.9903999016498L362.6254315304949,297.5242585594118L354.3745684695051,297.0739208543164L346.1237054085154,296.640715615905L337.87284234752605,296.2260929082201L329.6219792865363,295.8316324391378L321.37111622554653,295.4590513060428L313.1202531645573,295.1102105460579L304.8693901035675,294.787119806218L296.6185270425777,294.4919392790288L288.36766398158795,294.22697787220386L280.1168009205982,293.99468641645046L271.8659378596089,293.7976445905333L263.6150747986191,293.63854019848384L255.36421173762938,293.52013952029506L247.1133486766396,293.4452477312797L238.86248561565034,293.4166588989791L230.61162255466056,293.43709585238145L222.36075949367077,293.5091412672022L214.10989643268098,293.6351625511497L205.85903337169177,293.81723439626154L197.608170310702,294.05706397257717L189.35730724971222,294.3559244119449L181.10644418872246,294.71460223921537L172.85558112773322,295.1333636155432L164.60471806674337,295.61194269206567L156.35385500575362,296.1495532426253L148.10299194476386,296.74492240822525L139.8521288837746,297.39634325606636L131.60126582278482,298.1017412891507L123.35040276179507,298.85874924942533L115.09953970080531,299.664784565447L106.848676639816,300.5171244697515L98.59781357882623,301.4129749181148L90.34695051783648,302.34953072601974L82.0960874568467,303.3240255778921L73.84522439585746,304.33377161380207L65.59436133486767,305.376189084362L57.3434982738779,306.4488270784169L49.09263521288865,307.5493766020861L40.84177215189886,308.67567737428027L32.59090909090909,309.8257196595211Z" style="fill: rgb(51, 51, 51); fill-opacity: 0.2; stroke: transparent;"></path></g><g id="g36" class="type-line"><path d="M32.59090909090909,281.4749626541617L40.84177215189886,281.08622536564246L49.09263521288865,280.69748807712347L57.3434982738779,280.30875078860424L65.59436133486767,279.92001350008525L73.84522439585746,279.53127621156597L82.0960874568467,279.1425389230468L90.34695051783648,278.75380163452775L98.59781357882623,278.3650643460085L106.848676639816,277.9763270574893L115.09953970080531,277.58758976897025L123.35040276179507,277.198852480451L131.60126582278482,276.810115191932L139.8521288837746,276.4213779034128L148.10299194476386,276.03264061489375L156.35385500575362,275.6439033263745L164.60471806674337,275.25516603785536L172.85558112773322,274.86642874933625L181.10644418872246,274.4776914608171L189.35730724971222,274.08895417229803L197.608170310702,273.70021688377886L205.85903337169177,273.31147959525964L214.10989643268098,272.9227423067406L222.36075949367077,272.53400501822136L230.61162255466056,272.14526772970237L238.86248561565034,271.7565304411831L247.1133486766396,271.3677931526639L255.36421173762938,270.9790558641448L263.6150747986191,270.59031857562564L271.8659378596089,270.2015812871066L280.1168009205982,269.8128439985874L288.36766398158795,269.42410671006814L296.6185270425777,269.0353694215491L304.8693901035675,268.64663213303027L313.1202531645573,268.2578948445114L321.37111622554653,267.8691575559925L329.6219792865363,267.48042026747197L337.87284234752605,267.0916829789531L346.1237054085154,266.7029456904342L354.3745684695051,266.3142084019153L362.6254315304949,265.92547111339644L370.8762945914847,265.53673382487756L379.12715765247395,265.1479965363571L387.3780207134642,264.75925924783814L395.6288837744539,264.37052195931926L403.87974683544377,263.9817846708004L412.1306098964335,263.5930473822815L420.3814729574234,263.2043100937626L428.6323360184131,262.8155728052421L436.8831990794029,262.42683551672326L445.13406214039264,262.0380982282043L453.3849252013824,261.64936093968544L461.6357882623722,261.2606236511666L469.88665132336195,260.87188636264773L478.13751438435173,260.4831490741272L486.38837744534146,260.0944117856083L494.63924050633125,259.7056744970894L502.890103567321,259.31693720857055L511.1409666283108,258.9281999200517L519.3918296893005,258.5394626315328L527.6426927502853,258.1507253430139L535.893555811275,257.7619880544934L544.1444188722649,257.37325076597443L552.3952819332545,256.9845134774556L560.6461449942443,256.5957761889368L568.8970080552341,256.20703890041784L577.1478711162239,255.81830161189896L585.3987341772137,255.4295643233784L593.6495972382033,255.04082703485955L601.9004602991931,254.65208974634072L610.1513233601829,254.2633524578218L618.4021864211727,253.87461516930293L626.6530494821624,253.48587788078402L634.9039125431523,253.09714059226351L643.1547756041421,252.70840330374466L651.4056386651318,252.31966601522578L659.6565017261216,251.93092872670687L667.9073647871114,251.54219143818798L676.1582278481011,251.1534541496691L684.409090909091,250.76471686114857" style="fill: transparent; stroke: rgb(0, 0, 0); stroke-width: 2;"></path></g></g></g></g></svg>