<svg class="marks" width="769" height="473" xmlns="http://www.w3.org/2000/svg"><g transform="translate(46,9)"><g id="g17" class="type-group"><g transform="translate(0,0)"><rect class="background" width="695" height="388" style="pointer-events: none; fill: none;"></rect><g id="g18" class="type-group"><g transform="translate(0,388)"><rect class="background" width="0" height="0" style="pointer-events: none; fill: none;"></rect><g id="g19" class="type-rule" style="pointer-events: none;"><line x1="67.60094404208554" y1="-388" x2="67.60094404208554" y2="0" style="fill: none; stroke: blue; stroke-width: 1; opacity: 1;"></line><line x1="167.7702951032321" y1="-388" x2="167.7702951032321" y2="0" style="fill: none; stroke: blue; stroke-width: 1; opacity: 1;"></line><line x1="267.93964616437864" y1="-388" x2="267.93964616437864" y2="0" style="fill: none; stroke: blue; stroke-width: 1; opacity: 1;"></line><line x1="368.1089972255251" y1="-388" x2="368.1089972255251" y2="0" style="fill: none; stroke: blue; stroke-width: 1; opacity: 1;"></line><line x1="468.2783482866717" y1="-388" x2="468.2783482866717" y2="0" style="fill: none; stroke: blue; stroke-width: 1; opacity: 1;"></line><line x1="568.4476993478183" y1="-388" x2="568.4476993478183" y2="0" style="fill: none; stroke: blue; stroke-width: 1; opacity: 1;"></line><line x1="668.6170504089648" y1="-388" x2="668.6170504089648" y2="0" style="fill: none; stroke: blue; stroke-width: 1; opacity: 1;"></line></g><g id="g20" class="type-rule" style="pointer-events: none;"><line x1="67.60094404208554" y1="0" x2="67.60094404208554" y2="6" style="fill: none; stroke: blue; stroke-width: 2; opacity: 1;"></line><line x1="167.7702951032321" y1="0" x2="167.7702951032321" y2="6" style="fill: none; stroke: blue; stroke-width: 2; opacity: 1;"></line><line x1="267.93964616437864" y1="0" x2="267.93964616437864" y2="6" style="fill: none; stroke: blue; stroke-width: 2; opacity: 1;"></line><line x1="368.1089972255251" y1="0" x2="368.1089972255251" y2="6" style="fill: none; stroke: blue; stroke-width: 2; opacity: 1;"></line><line x1="468.2783482866717" y1="0" x2="468.2783482866717" y2="6" style="fill: none; stroke: blue; stroke-width: 2; opacity: 1;"></line><line x1="568.4476993478183" y1="0" x2="568.4476993478183" y2="6" style="fill: none; stroke: blue; stroke-width: 2; opacity: 1;"></line><line x1="668.6170504089648" y1="0" x2="668.6170504089648" y2="6" style="fill: none; stroke: blue; stroke-width: 2; opacity: 1;"></line></g><g id="g21" class="type-rule" style="pointer-events: none;"></g><g id="g22" class="type-text"><text x="67.60094404208554" y="9" text-anchor="start" transform="rotate(45 67.60094404208554,9)" dy=".9em" style="font: 20px sans-serif; fill: rgb(0, 0, 0); opacity: 1;">4,000</text><text x="167.7702951032321" y="9" text-anchor="start" transform="rotate(45 167.7702951032321,9)" dy=".9em" style="font: 20px sans-serif; fill: rgb(0, 0, 0); opacity: 1;">6,000</text><text x="267.93964616437864" y="9" text-anchor="start" transform="rotate(45 267.93964616437864,9)" dy=".9em" style="font: 20px sans-serif; fill: rgb(0, 0, 0); opacity: 1;">8,000</text><text x="368.1089972255251" y="9" text-anchor="start" transform="rotate(45 368.1089972255251,9)" dy=".9em" style="font: 20px sans-serif; fill: rgb(0, 0, 0); opacity: 1;">10,000</text><text x="468.2783482866717" y="9" text-anchor="start" transform="rotate(45 468.2783482866717,9)" dy=".9em" style="font: 20px sans-serif; fill: rgb(0, 0, 0); opacity: 1;">12,000</text><text x="568.4476993478183" y="9" text-anchor="start" transform="rotate(45 568.4476993478183,9)" dy=".9em" style="font: 20px sans-serif; fill: rgb(0, 0, 0); opacity: 1;">14,000</text><text x="668.6170504089648" y="9" text-anchor="start" transform="rotate(45 668.6170504089648,9)" dy=".9em" style="font: 20px sans-serif; fill: rgb(0, 0, 0); opacity: 1;">16,000</text></g><g id="g23" class="type-path" style="pointer-events: none;"><path transform="translate(0.5,0.5)" d="M0,6V0H695V6" style="fill: none; stroke: red; stroke-width: 5;"></path></g><g id="g24" class="type-text"><text x="347" y="35" text-anchor="middle" dy=".35em" style="font: bold 11px sans-serif; fill: rgb(0, 0, 0);">price</text></g></g></g><g id="g25" class="type-group"><g transform="translate(0,0)"><rect class="background" width="0" height="0" style="pointer-events: none; fill: none;"></rect><g id="g26" class="type-rule" style="pointer-events: none;"><line x1="0" y1="370.8636363636364" x2="695" y2="370.8636363636364" style="fill: none; stroke: rgb(216, 216, 216); stroke-width: 1; opacity: 1;"></line><line x1="0" y1="326.7727272727273" x2="695" y2="326.7727272727273" style="fill: none; stroke: rgb(216, 216, 216); stroke-width: 1; opacity: 1;"></line><line x1="0" y1="282.6818181818182" x2="695" y2="282.6818181818182" style="fill: none; stroke: rgb(216, 216, 216); stroke-width: 1; opacity: 1;"></line><line x1="0" y1="238.59090909090915" x2="695" y2="238.59090909090915" style="fill: none; stroke: rgb(216, 216, 216); stroke-width: 1; opacity: 1;"></line><line x1="0" y1="194.5" x2="695" y2="194.5" style="fill: none; stroke: rgb(216, 216, 216); stroke-width: 1; opacity: 1;"></line><line x1="0" y1="150.4090909090909" x2="695" y2="150.4090909090909" style="fill: none; stroke: rgb(216, 216, 216); stroke-width: 1; opacity: 1;"></line><line x1="0" y1="106.31818181818181" x2="695" y2="106.31818181818181" style="fill: none; stroke: rgb(216, 216, 216); stroke-width: 1; opacity: 1;"></line><line x1="0" y1="62.22727272727276" x2="695" y2="62.22727272727276" style="fill: none; stroke: rgb(216, 216, 216); stroke-width: 1; opacity: 1;"></line><line x1="0" y1="18.136363636363665" x2="695" y2="18.136363636363665" style="fill: none; stroke: rgb(216, 216, 216); stroke-width: 1; opacity: 1;"></line></g><g id="g27" class="type-rule" style="pointer-events: none;"><line x1="-6" y1="370.8636363636364" x2="0" y2="370.8636363636364" style="fill: none; stroke: rgb(0, 0, 0); stroke-width: 1; opacity: 1;"></line><line x1="-6" y1="326.7727272727273" x2="0" y2="326.7727272727273" style="fill: none; stroke: rgb(0, 0, 0); stroke-width: 1; opacity: 1;"></line><line x1="-6" y1="282.6818181818182" x2="0" y2="282.6818181818182" style="fill: none; stroke: rgb(0, 0, 0); stroke-width: 1; opacity: 1;"></line><line x1="-6" y1="238.59090909090915" x2="0" y2="238.59090909090915" style="fill: none; stroke: rgb(0, 0, 0); stroke-width: 1; opacity: 1;"></line><line x1="-6" y1="194.5" x2="0" y2="194.5" style="fill: none; stroke: rgb(0, 0, 0); stroke-width: 1; opacity: 1;"></line><line x1="-6" y1="150.4090909090909" x2="0" y2="150.4090909090909" style="fill: none; stroke: rgb(0, 0, 0); stroke-width: 1; opacity: 1;"></line><line x1="-6" y1="106.31818181818181" x2="0" y2="106.31818181818181" style="fill: none; stroke: rgb(0, 0, 0); stroke-width: 1; opacity: 1;"></line><line x1="-6" y1="62.22727272727276" x2="0" y2="62.22727272727276" style="fill: none; stroke: rgb(0, 0, 0); stroke-width: 1; opacity: 1;"></line><line x1="-6" y1="18.136363636363665" x2="0" y2="18.136363636363665" style="fill: none; stroke: rgb(0, 0, 0); stroke-width: 1; opacity: 1;"></line></g><g id="g28" class="type-rule" style="pointer-events: none;"></g><g id="g29" class="type-text"><text x="-9" y="370.8636363636364" text-anchor="end" dy=".35em" style="font: 11px sans-serif; fill: rgb(0, 0, 0); opacity: 1;">1.0</text><text x="-9" y="326.7727272727273" text-anchor="end" dy=".35em" style="font: 11px sans-serif; fill: rgb(0, 0, 0); opacity: 1;">1.5</text><text x="-9" y="282.6818181818182" text-anchor="end" dy=".35em" style="font: 11px sans-serif; fill: rgb(0, 0, 0); opacity: 1;">2.0</text><text x="-9" y="238.59090909090915" text-anchor="end" dy=".35em" style="font: 11px sans-serif; fill: rgb(0, 0, 0); opacity: 1;">2.5</text><text x="-9" y="194.5" text-anchor="end" dy=".35em" style="font: 11px sans-serif; fill: rgb(0, 0, 0); opacity: 1;">3.0</text><text x="-9" y="150.4090909090909" text-anchor="end" dy=".35em" style="font: 11px sans-serif; fill: rgb(0, 0, 0); opacity: 1;">3.5</text><text x="-9" y="106.31818181818181" text-anchor="end" dy=".35em" style="font: 11px sans-serif; fill: rgb(0, 0, 0); opacity: 1;">4.0</text><text x="-9" y="62.22727272727276" text-anchor="end" dy=".35em" style="font: 11px sans-serif; fill: rgb(0, 0, 0); opacity: 1;">4.5</text><text x="-9" y="18.136363636363665" text-anchor="end" dy=".35em" style="font: 11px sans-serif; fill: rgb(0, 0, 0); opacity: 1;">5.0</text></g><g id="g30" class="type-path" style="pointer-events: none;"><path transform="translate(0.5,0.5)" d="M-6,0H0V388H-6" style="fill: none; stroke: rgb(0, 0, 0); stroke-width: 1;"></path></g><g id="g31" class="type-text"><text x="-35" y="194" text-anchor="middle" transform="rotate(-90 -35,194)" dy=".35em" style="font: bold 11px sans-serif; fill: rgb(0, 0, 0);">rep78</text></g></g></g><g id="g32" class="type-symbol"><path transform="translate(72.0593269196123,194)" d="M0,3.989422804014327A3.989422804014327,3.989422804014327 0 1,1 0,-3.989422804014327A3.989422804014327,3.989422804014327 0 1,1 0,3.989422804014327Z" style="fill: rgb(0, 0, 0);"></path><path transform="translate(104.61436601448493,194)" d="M0,3.989422804014327A3.989422804014327,3.989422804014327 0 1,1 0,-3.989422804014327A3.989422804014327,3.989422804014327 0 1,1 0,3.989422804014327Z" style="fill: rgb(0, 0, 0);"></path><path transform="translate(57.03392426044031,0)" d="M0,3.989422804014327A3.989422804014327,3.989422804014327 0 1,1 0,-3.989422804014327A3.989422804014327,3.989422804014327 0 1,1 0,3.989422804014327Z" style="fill: rgb(0, 0, 0);"></path><path transform="translate(107.97003927503334,194)" d="M0,3.989422804014327A3.989422804014327,3.989422804014327 0 1,1 0,-3.989422804014327A3.989422804014327,3.989422804014327 0 1,1 0,3.989422804014327Z" style="fill: rgb(0, 0, 0);"></path><path transform="translate(258.77499729758944,105.81818181818181)" d="M0,3.989422804014327A3.989422804014327,3.989422804014327 0 1,1 0,-3.989422804014327A3.989422804014327,3.989422804014327 0 1,1 0,3.989422804014327Z" style="fill: rgb(0, 0, 0);"></path><path transform="translate(156.65234389075056,194)" d="M0,3.989422804014327A3.989422804014327,3.989422804014327 0 1,1 0,-3.989422804014327A3.989422804014327,3.989422804014327 0 1,1 0,3.989422804014327Z" style="fill: rgb(0, 0, 0);"></path><path transform="translate(89.78930205743524,0)" d="M0,3.989422804014327A3.989422804014327,3.989422804014327 0 1,1 0,-3.989422804014327A3.989422804014327,3.989422804014327 0 1,1 0,3.989422804014327Z" style="fill: rgb(0, 0, 0);"></path><path transform="translate(126.65162324793715,194)" d="M0,3.989422804014327A3.989422804014327,3.989422804014327 0 1,1 0,-3.989422804014327A3.989422804014327,3.989422804014327 0 1,1 0,3.989422804014327Z" style="fill: rgb(0, 0, 0);"></path><path transform="translate(386.2404965228984,194)" d="M0,3.989422804014327A3.989422804014327,3.989422804014327 0 1,1 0,-3.989422804014327A3.989422804014327,3.989422804014327 0 1,1 0,3.989422804014327Z" style="fill: rgb(0, 0, 0);"></path><path transform="translate(71.20788743559255,194)" d="M0,3.989422804014327A3.989422804014327,3.989422804014327 0 1,1 0,-3.989422804014327A3.989422804014327,3.989422804014327 0 1,1 0,3.989422804014327Z" style="fill: rgb(0, 0, 0);"></path><path transform="translate(436.9762728353692,194)" d="M0,3.989422804014327A3.989422804014327,3.989422804014327 0 1,1 0,-3.989422804014327A3.989422804014327,3.989422804014327 0 1,1 0,3.989422804014327Z" style="fill: rgb(0, 0, 0);"></path><path transform="translate(592.9900371131049,282.1818181818182)" d="M0,3.989422804014327A3.989422804014327,3.989422804014327 0 1,1 0,-3.989422804014327A3.989422804014327,3.989422804014327 0 1,1 0,3.989422804014327Z" style="fill: rgb(0, 0, 0);"></path><path transform="translate(663.409090909091,194)" d="M0,3.989422804014327A3.989422804014327,3.989422804014327 0 1,1 0,-3.989422804014327A3.989422804014327,3.989422804014327 0 1,1 0,3.989422804014327Z" style="fill: rgb(0, 0, 0);"></path><path transform="translate(31.991586495153676,194)" d="M0,3.989422804014327A3.989422804014327,3.989422804014327 0 1,1 0,-3.989422804014327A3.989422804014327,3.989422804014327 0 1,1 0,3.989422804014327Z" style="fill: rgb(0, 0, 0);"></path><path transform="translate(152.49531582171298,105.81818181818181)" d="M0,3.989422804014327A3.989422804014327,3.989422804014327 0 1,1 0,-3.989422804014327A3.989422804014327,3.989422804014327 0 1,1 0,3.989422804014327Z" style="fill: rgb(0, 0, 0);"></path><path transform="translate(92.34362050949446,194)" d="M0,3.989422804014327A3.989422804014327,3.989422804014327 0 1,1 0,-3.989422804014327A3.989422804014327,3.989422804014327 0 1,1 0,3.989422804014327Z" style="fill: rgb(0, 0, 0);"></path><path transform="translate(122.39442582783843,282.1818181818182)" d="M0,3.989422804014327A3.989422804014327,3.989422804014327 0 1,1 0,-3.989422804014327A3.989422804014327,3.989422804014327 0 1,1 0,3.989422804014327Z" style="fill: rgb(0, 0, 0);"></path><path transform="translate(50.42274709040464,282.1818181818182)" d="M0,3.989422804014327A3.989422804014327,3.989422804014327 0 1,1 0,-3.989422804014327A3.989422804014327,3.989422804014327 0 1,1 0,3.989422804014327Z" style="fill: rgb(0, 0, 0);"></path><path transform="translate(64.84713364320974,194)" d="M0,3.989422804014327A3.989422804014327,3.989422804014327 0 1,1 0,-3.989422804014327A3.989422804014327,3.989422804014327 0 1,1 0,3.989422804014327Z" style="fill: rgb(0, 0, 0);"></path><path transform="translate(66.29958923359636,17.636363636363665)" d="M0,3.989422804014327A3.989422804014327,3.989422804014327 0 1,1 0,-3.989422804014327A3.989422804014327,3.989422804014327 0 1,1 0,3.989422804014327Z" style="fill: rgb(0, 0, 0);"></path><path transform="translate(67.60179079739127,282.1818181818182)" d="M0,3.989422804014327A3.989422804014327,3.989422804014327 0 1,1 0,-3.989422804014327A3.989422804014327,3.989422804014327 0 1,1 0,3.989422804014327Z" style="fill: rgb(0, 0, 0);"></path><path transform="translate(161.56064209274675,282.1818181818182)" d="M0,3.989422804014327A3.989422804014327,3.989422804014327 0 1,1 0,-3.989422804014327A3.989422804014327,3.989422804014327 0 1,1 0,3.989422804014327Z" style="fill: rgb(0, 0, 0);"></path><path transform="translate(184.39925413468814,282.1818181818182)" d="M0,3.989422804014327A3.989422804014327,3.989422804014327 0 1,1 0,-3.989422804014327A3.989422804014327,3.989422804014327 0 1,1 0,3.989422804014327Z" style="fill: rgb(0, 0, 0);"></path><path transform="translate(86.58388282347855,105.81818181818181)" d="M0,3.989422804014327A3.989422804014327,3.989422804014327 0 1,1 0,-3.989422804014327A3.989422804014327,3.989422804014327 0 1,1 0,3.989422804014327Z" style="fill: rgb(0, 0, 0);"></path><path transform="translate(76.46677836630275,194)" d="M0,3.989422804014327A3.989422804014327,3.989422804014327 0 1,1 0,-3.989422804014327A3.989422804014327,3.989422804014327 0 1,1 0,3.989422804014327Z" style="fill: rgb(0, 0, 0);"></path><path transform="translate(442.5857564947934,194)" d="M0,3.989422804014327A3.989422804014327,3.989422804014327 0 1,1 0,-3.989422804014327A3.989422804014327,3.989422804014327 0 1,1 0,3.989422804014327Z" style="fill: rgb(0, 0, 0);"></path><path transform="translate(547.6133210824055,194)" d="M0,3.989422804014327A3.989422804014327,3.989422804014327 0 1,1 0,-3.989422804014327A3.989422804014327,3.989422804014327 0 1,1 0,3.989422804014327Z" style="fill: rgb(0, 0, 0);"></path><path transform="translate(541.2024826144922,194)" d="M0,3.989422804014327A3.989422804014327,3.989422804014327 0 1,1 0,-3.989422804014327A3.989422804014327,3.989422804014327 0 1,1 0,3.989422804014327Z" style="fill: rgb(0, 0, 0);"></path><path transform="translate(58.53646452635751,105.81818181818181)" d="M0,3.989422804014327A3.989422804014327,3.989422804014327 0 1,1 0,-3.989422804014327A3.989422804014327,3.989422804014327 0 1,1 0,3.989422804014327Z" style="fill: rgb(0, 0, 0);"></path><path transform="translate(136.16771159874608,105.81818181818181)" d="M0,3.989422804014327A3.989422804014327,3.989422804014327 0 1,1 0,-3.989422804014327A3.989422804014327,3.989422804014327 0 1,1 0,3.989422804014327Z" style="fill: rgb(0, 0, 0);"></path><path transform="translate(175.53426656577665,194)" d="M0,3.989422804014327A3.989422804014327,3.989422804014327 0 1,1 0,-3.989422804014327A3.989422804014327,3.989422804014327 0 1,1 0,3.989422804014327Z" style="fill: rgb(0, 0, 0);"></path><path transform="translate(92.94463661586136,194)" d="M0,3.989422804014327A3.989422804014327,3.989422804014327 0 1,1 0,-3.989422804014327A3.989422804014327,3.989422804014327 0 1,1 0,3.989422804014327Z" style="fill: rgb(0, 0, 0);"></path><path transform="translate(182.4459517889958,105.81818181818181)" d="M0,3.989422804014327A3.989422804014327,3.989422804014327 0 1,1 0,-3.989422804014327A3.989422804014327,3.989422804014327 0 1,1 0,3.989422804014327Z" style="fill: rgb(0, 0, 0);"></path><path transform="translate(31.590909090909093,194)" d="M0,3.989422804014327A3.989422804014327,3.989422804014327 0 1,1 0,-3.989422804014327A3.989422804014327,3.989422804014327 0 1,1 0,3.989422804014327Z" style="fill: rgb(0, 0, 0);"></path><path transform="translate(308.20857204626526,105.81818181818181)" d="M0,3.989422804014327A3.989422804014327,3.989422804014327 0 1,1 0,-3.989422804014327A3.989422804014327,3.989422804014327 0 1,1 0,3.989422804014327Z" style="fill: rgb(0, 0, 0);"></path><path transform="translate(125.8001837639174,194)" d="M0,3.989422804014327A3.989422804014327,3.989422804014327 0 1,1 0,-3.989422804014327A3.989422804014327,3.989422804014327 0 1,1 0,3.989422804014327Z" style="fill: rgb(0, 0, 0);"></path><path transform="translate(103.81301120599576,194)" d="M0,3.989422804014327A3.989422804014327,3.989422804014327 0 1,1 0,-3.989422804014327A3.989422804014327,3.989422804014327 0 1,1 0,3.989422804014327Z" style="fill: rgb(0, 0, 0);"></path><path transform="translate(111.67630526429575,105.81818181818181)" d="M0,3.989422804014327A3.989422804014327,3.989422804014327 0 1,1 0,-3.989422804014327A3.989422804014327,3.989422804014327 0 1,1 0,3.989422804014327Z" style="fill: rgb(0, 0, 0);"></path><path transform="translate(76.1662703131193,194)" d="M0,3.989422804014327A3.989422804014327,3.989422804014327 0 1,1 0,-3.989422804014327A3.989422804014327,3.989422804014327 0 1,1 0,3.989422804014327Z" style="fill: rgb(0, 0, 0);"></path><path transform="translate(76.86745577054732,370.3636363636364)" d="M0,3.989422804014327A3.989422804014327,3.989422804014327 0 1,1 0,-3.989422804014327A3.989422804014327,3.989422804014327 0 1,1 0,3.989422804014327Z" style="fill: rgb(0, 0, 0);"></path><path transform="translate(386.1904118473679,194)" d="M0,3.989422804014327A3.989422804014327,3.989422804014327 0 1,1 0,-3.989422804014327A3.989422804014327,3.989422804014327 0 1,1 0,3.989422804014327Z" style="fill: rgb(0, 0, 0);"></path><path transform="translate(99.50572911036645,194)" d="M0,3.989422804014327A3.989422804014327,3.989422804014327 0 1,1 0,-3.989422804014327A3.989422804014327,3.989422804014327 0 1,1 0,3.989422804014327Z" style="fill: rgb(0, 0, 0);"></path><path transform="translate(88.38693114257917,17.636363636363665)" d="M0,3.989422804014327A3.989422804014327,3.989422804014327 0 1,1 0,-3.989422804014327A3.989422804014327,3.989422804014327 0 1,1 0,3.989422804014327Z" style="fill: rgb(0, 0, 0);"></path><path transform="translate(91.24175764782186,194)" d="M0,3.989422804014327A3.989422804014327,3.989422804014327 0 1,1 0,-3.989422804014327A3.989422804014327,3.989422804014327 0 1,1 0,3.989422804014327Z" style="fill: rgb(0, 0, 0);"></path><path transform="translate(191.61144741109072,0)" d="M0,3.989422804014327A3.989422804014327,3.989422804014327 0 1,1 0,-3.989422804014327A3.989422804014327,3.989422804014327 0 1,1 0,3.989422804014327Z" style="fill: rgb(0, 0, 0);"></path><path transform="translate(70.10602457391994,282.1818181818182)" d="M0,3.989422804014327A3.989422804014327,3.989422804014327 0 1,1 0,-3.989422804014327A3.989422804014327,3.989422804014327 0 1,1 0,3.989422804014327Z" style="fill: rgb(0, 0, 0);"></path><path transform="translate(157.1531906460563,105.81818181818181)" d="M0,3.989422804014327A3.989422804014327,3.989422804014327 0 1,1 0,-3.989422804014327A3.989422804014327,3.989422804014327 0 1,1 0,3.989422804014327Z" style="fill: rgb(0, 0, 0);"></path><path transform="translate(113.88003098764098,370.3636363636364)" d="M0,3.989422804014327A3.989422804014327,3.989422804014327 0 1,1 0,-3.989422804014327A3.989422804014327,3.989422804014327 0 1,1 0,3.989422804014327Z" style="fill: rgb(0, 0, 0);"></path><path transform="translate(128.30441754044608,194)" d="M0,3.989422804014327A3.989422804014327,3.989422804014327 0 1,1 0,-3.989422804014327A3.989422804014327,3.989422804014327 0 1,1 0,3.989422804014327Z" style="fill: rgb(0, 0, 0);"></path><path transform="translate(103.31216445069002,194)" d="M0,3.989422804014327A3.989422804014327,3.989422804014327 0 1,1 0,-3.989422804014327A3.989422804014327,3.989422804014327 0 1,1 0,3.989422804014327Z" style="fill: rgb(0, 0, 0);"></path><path transform="translate(88.33684646704862,0)" d="M0,3.989422804014327A3.989422804014327,3.989422804014327 0 1,1 0,-3.989422804014327A3.989422804014327,3.989422804014327 0 1,1 0,3.989422804014327Z" style="fill: rgb(0, 0, 0);"></path><path transform="translate(75.71550823334415,282.1818181818182)" d="M0,3.989422804014327A3.989422804014327,3.989422804014327 0 1,1 0,-3.989422804014327A3.989422804014327,3.989422804014327 0 1,1 0,3.989422804014327Z" style="fill: rgb(0, 0, 0);"></path><path transform="translate(352.08274781104745,17.636363636363665)" d="M0,3.989422804014327A3.989422804014327,3.989422804014327 0 1,1 0,-3.989422804014327A3.989422804014327,3.989422804014327 0 1,1 0,3.989422804014327Z" style="fill: rgb(0, 0, 0);"></path><path transform="translate(182.0452743847512,194)" d="M0,3.989422804014327A3.989422804014327,3.989422804014327 0 1,1 0,-3.989422804014327A3.989422804014327,3.989422804014327 0 1,1 0,3.989422804014327Z" style="fill: rgb(0, 0, 0);"></path><path transform="translate(354.3365582099233,105.81818181818181)" d="M0,3.989422804014327A3.989422804014327,3.989422804014327 0 1,1 0,-3.989422804014327A3.989422804014327,3.989422804014327 0 1,1 0,3.989422804014327Z" style="fill: rgb(0, 0, 0);"></path><path transform="translate(178.73968579973337,105.81818181818181)" d="M0,3.989422804014327A3.989422804014327,3.989422804014327 0 1,1 0,-3.989422804014327A3.989422804014327,3.989422804014327 0 1,1 0,3.989422804014327Z" style="fill: rgb(0, 0, 0);"></path><path transform="translate(96.6008179295932,17.636363636363665)" d="M0,3.989422804014327A3.989422804014327,3.989422804014327 0 1,1 0,-3.989422804014327A3.989422804014327,3.989422804014327 0 1,1 0,3.989422804014327Z" style="fill: rgb(0, 0, 0);"></path><path transform="translate(121.1423089395741,105.81818181818181)" d="M0,3.989422804014327A3.989422804014327,3.989422804014327 0 1,1 0,-3.989422804014327A3.989422804014327,3.989422804014327 0 1,1 0,3.989422804014327Z" style="fill: rgb(0, 0, 0);"></path><path transform="translate(273.9005693078226,105.81818181818181)" d="M0,3.989422804014327A3.989422804014327,3.989422804014327 0 1,1 0,-3.989422804014327A3.989422804014327,3.989422804014327 0 1,1 0,3.989422804014327Z" style="fill: rgb(0, 0, 0);"></path><path transform="translate(81.92600799913522,194)" d="M0,3.989422804014327A3.989422804014327,3.989422804014327 0 1,1 0,-3.989422804014327A3.989422804014327,3.989422804014327 0 1,1 0,3.989422804014327Z" style="fill: rgb(0, 0, 0);"></path><path transform="translate(157.20327532158686,17.636363636363665)" d="M0,3.989422804014327A3.989422804014327,3.989422804014327 0 1,1 0,-3.989422804014327A3.989422804014327,3.989422804014327 0 1,1 0,3.989422804014327Z" style="fill: rgb(0, 0, 0);"></path><path transform="translate(92.0931971318416,105.81818181818181)" d="M0,3.989422804014327A3.989422804014327,3.989422804014327 0 1,1 0,-3.989422804014327A3.989422804014327,3.989422804014327 0 1,1 0,3.989422804014327Z" style="fill: rgb(0, 0, 0);"></path><path transform="translate(66.85052066443266,105.81818181818181)" d="M0,3.989422804014327A3.989422804014327,3.989422804014327 0 1,1 0,-3.989422804014327A3.989422804014327,3.989422804014327 0 1,1 0,3.989422804014327Z" style="fill: rgb(0, 0, 0);"></path><path transform="translate(517.3621770619393,0)" d="M0,3.989422804014327A3.989422804014327,3.989422804014327 0 1,1 0,-3.989422804014327A3.989422804014327,3.989422804014327 0 1,1 0,3.989422804014327Z" style="fill: rgb(0, 0, 0);"></path><path transform="translate(61.84205311137534,194)" d="M0,3.989422804014327A3.989422804014327,3.989422804014327 0 1,1 0,-3.989422804014327A3.989422804014327,3.989422804014327 0 1,1 0,3.989422804014327Z" style="fill: rgb(0, 0, 0);"></path><path transform="translate(56.98383958490974,17.636363636363665)" d="M0,3.989422804014327A3.989422804014327,3.989422804014327 0 1,1 0,-3.989422804014327A3.989422804014327,3.989422804014327 0 1,1 0,3.989422804014327Z" style="fill: rgb(0, 0, 0);"></path><path transform="translate(162.2117428746442,17.636363636363665)" d="M0,3.989422804014327A3.989422804014327,3.989422804014327 0 1,1 0,-3.989422804014327A3.989422804014327,3.989422804014327 0 1,1 0,3.989422804014327Z" style="fill: rgb(0, 0, 0);"></path><path transform="translate(54.47960580838108,17.636363636363665)" d="M0,3.989422804014327A3.989422804014327,3.989422804014327 0 1,1 0,-3.989422804014327A3.989422804014327,3.989422804014327 0 1,1 0,3.989422804014327Z" style="fill: rgb(0, 0, 0);"></path><path transform="translate(153.196501279141,17.636363636363665)" d="M0,3.989422804014327A3.989422804014327,3.989422804014327 0 1,1 0,-3.989422804014327A3.989422804014327,3.989422804014327 0 1,1 0,3.989422804014327Z" style="fill: rgb(0, 0, 0);"></path><path transform="translate(224.3668252080856,105.81818181818181)" d="M0,3.989422804014327A3.989422804014327,3.989422804014327 0 1,1 0,-3.989422804014327A3.989422804014327,3.989422804014327 0 1,1 0,3.989422804014327Z" style="fill: rgb(0, 0, 0);"></path><path transform="translate(137.0692357582964,17.636363636363665)" d="M0,3.989422804014327A3.989422804014327,3.989422804014327 0 1,1 0,-3.989422804014327A3.989422804014327,3.989422804014327 0 1,1 0,3.989422804014327Z" style="fill: rgb(0, 0, 0);"></path><path transform="translate(102.00996288689511,105.81818181818181)" d="M0,3.989422804014327A3.989422804014327,3.989422804014327 0 1,1 0,-3.989422804014327A3.989422804014327,3.989422804014327 0 1,1 0,3.989422804014327Z" style="fill: rgb(0, 0, 0);"></path><path transform="translate(209.84226930421937,105.81818181818181)" d="M0,3.989422804014327A3.989422804014327,3.989422804014327 0 1,1 0,-3.989422804014327A3.989422804014327,3.989422804014327 0 1,1 0,3.989422804014327Z" style="fill: rgb(0, 0, 0);"></path><path transform="translate(467.52792490901885,17.636363636363665)" d="M0,3.989422804014327A3.989422804014327,3.989422804014327 0 1,1 0,-3.989422804014327A3.989422804014327,3.989422804014327 0 1,1 0,3.989422804014327Z" style="fill: rgb(0, 0, 0);"></path></g></g></g></g></svg>