<svg class="marks" width="769" height="473" xmlns="http://www.w3.org/2000/svg"><g transform="translate(105,6)"><g id="g17" class="type-group"><g transform="translate(0,0)"><rect class="background" width="658" height="419" style="pointer-events: none; fill: none;"></rect><g id="g18" class="type-group"><g transform="translate(0,419)"><rect class="background" width="0" height="0" style="pointer-events: none; fill: none;"></rect><g id="g19" class="type-rule" style="pointer-events: none;"><line x1="-125.59710661910425" y1="-419" x2="-125.59710661910425" y2="0" style="fill: none; stroke: rgb(216, 216, 216); stroke-width: 1; opacity: 1;"></line><line x1="-125.54968832198321" y1="-419" x2="-125.54968832198321" y2="0" style="fill: none; stroke: rgb(216, 216, 216); stroke-width: 1; opacity: 1;"></line><line x1="-125.50227002486217" y1="-419" x2="-125.50227002486217" y2="0" style="fill: none; stroke: rgb(216, 216, 216); stroke-width: 1; opacity: 1;"></line><line x1="-125.45485172774114" y1="-419" x2="-125.45485172774114" y2="0" style="fill: none; stroke: rgb(216, 216, 216); stroke-width: 1; opacity: 1;"></line><line x1="-125.40743343062012" y1="-419" x2="-125.40743343062012" y2="0" style="fill: none; stroke: rgb(216, 216, 216); stroke-width: 1; opacity: 1;"></line><line x1="-125.36001513349908" y1="-419" x2="-125.36001513349908" y2="0" style="fill: none; stroke: rgb(216, 216, 216); stroke-width: 1; opacity: 1;"></line></g><g id="g20" class="type-rule" style="pointer-events: none;"><line x1="-125.59710661910425" y1="0" x2="-125.59710661910425" y2="6" style="fill: none; stroke: rgb(0, 0, 0); stroke-width: 1; opacity: 1;"></line><line x1="-125.54968832198321" y1="0" x2="-125.54968832198321" y2="6" style="fill: none; stroke: rgb(0, 0, 0); stroke-width: 1; opacity: 1;"></line><line x1="-125.50227002486217" y1="0" x2="-125.50227002486217" y2="6" style="fill: none; stroke: rgb(0, 0, 0); stroke-width: 1; opacity: 1;"></line><line x1="-125.45485172774114" y1="0" x2="-125.45485172774114" y2="6" style="fill: none; stroke: rgb(0, 0, 0); stroke-width: 1; opacity: 1;"></line><line x1="-125.40743343062012" y1="0" x2="-125.40743343062012" y2="6" style="fill: none; stroke: rgb(0, 0, 0); stroke-width: 1; opacity: 1;"></line><line x1="-125.36001513349908" y1="0" x2="-125.36001513349908" y2="6" style="fill: none; stroke: rgb(0, 0, 0); stroke-width: 1; opacity: 1;"></line></g><g id="g21" class="type-rule" style="pointer-events: none;"><line x1="-125.35527330378697" y1="0" x2="-125.35527330378697" y2="6" style="fill: none; stroke: rgb(0, 0, 0); stroke-width: 1; opacity: 1;"></line><line x1="-125.35053147407488" y1="0" x2="-125.35053147407488" y2="6" style="fill: none; stroke: rgb(0, 0, 0); stroke-width: 1; opacity: 1;"></line><line x1="-125.34578964436277" y1="0" x2="-125.34578964436277" y2="6" style="fill: none; stroke: rgb(0, 0, 0); stroke-width: 1; opacity: 1;"></line><line x1="-125.34104781465065" y1="0" x2="-125.34104781465065" y2="6" style="fill: none; stroke: rgb(0, 0, 0); stroke-width: 1; opacity: 1;"></line><line x1="-125.33630598493858" y1="0" x2="-125.33630598493858" y2="6" style="fill: none; stroke: rgb(0, 0, 0); stroke-width: 1; opacity: 1;"></line><line x1="-125.33156415522646" y1="0" x2="-125.33156415522646" y2="6" style="fill: none; stroke: rgb(0, 0, 0); stroke-width: 1; opacity: 1;"></line><line x1="-125.32682232551436" y1="0" x2="-125.32682232551436" y2="6" style="fill: none; stroke: rgb(0, 0, 0); stroke-width: 1; opacity: 1;"></line><line x1="-125.32208049580225" y1="0" x2="-125.32208049580225" y2="6" style="fill: none; stroke: rgb(0, 0, 0); stroke-width: 1; opacity: 1;"></line><line x1="-125.31733866609015" y1="0" x2="-125.31733866609015" y2="6" style="fill: none; stroke: rgb(0, 0, 0); stroke-width: 1; opacity: 1;"></line></g><g id="g22" class="type-text"><text x="-125.59710661910425" y="9" text-anchor="middle" dy=".9em" style="font: 11px sans-serif; fill: rgb(0, 0, 0); opacity: 1;">1</text><text x="-125.54968832198321" y="9" text-anchor="middle" dy=".9em" style="font: 11px sans-serif; fill: rgb(0, 0, 0); opacity: 1;">2</text><text x="-125.50227002486217" y="9" text-anchor="middle" dy=".9em" style="font: 11px sans-serif; fill: rgb(0, 0, 0); opacity: 1;">3</text><text x="-125.45485172774114" y="9" text-anchor="middle" dy=".9em" style="font: 11px sans-serif; fill: rgb(0, 0, 0); opacity: 1;">4</text><text x="-125.40743343062012" y="9" text-anchor="middle" dy=".9em" style="font: 11px sans-serif; fill: rgb(0, 0, 0); opacity: 1;">5</text><text x="-125.36001513349908" y="9" text-anchor="middle" dy=".9em" style="font: 11px sans-serif; fill: rgb(0, 0, 0); opacity: 1;">6</text></g><g id="g23" class="type-path" style="pointer-events: none;"><path transform="translate(0.5,0.5)" d="M0,6V0H658V6" style="fill: none; stroke: rgb(0, 0, 0); stroke-width: 1;"></path></g><g id="g24" class="type-text"><text x="329" y="35" text-anchor="middle" dy=".35em" style="font: bold 11px sans-serif; fill: rgb(0, 0, 0);">price</text></g></g></g><g id="g25" class="type-group"><g transform="translate(0,0)"><rect class="background" width="0" height="0" style="pointer-events: none; fill: none;"></rect><g id="g26" class="type-rule" style="pointer-events: none;"><line x1="0" y1="426.7241379310345" x2="658" y2="426.7241379310345" style="fill: none; stroke: rgb(216, 216, 216); stroke-width: 1; opacity: 1;"></line><line x1="0" y1="400.4545454545455" x2="658" y2="400.4545454545455" style="fill: none; stroke: rgb(216, 216, 216); stroke-width: 1; opacity: 1;"></line><line x1="0" y1="374.18495297805646" x2="658" y2="374.18495297805646" style="fill: none; stroke: rgb(216, 216, 216); stroke-width: 1; opacity: 1;"></line><line x1="0" y1="347.9153605015674" x2="658" y2="347.9153605015674" style="fill: none; stroke: rgb(216, 216, 216); stroke-width: 1; opacity: 1;"></line><line x1="0" y1="321.6457680250784" x2="658" y2="321.6457680250784" style="fill: none; stroke: rgb(216, 216, 216); stroke-width: 1; opacity: 1;"></line><line x1="0" y1="295.37617554858934" x2="658" y2="295.37617554858934" style="fill: none; stroke: rgb(216, 216, 216); stroke-width: 1; opacity: 1;"></line><line x1="0" y1="269.10658307210036" x2="658" y2="269.10658307210036" style="fill: none; stroke: rgb(216, 216, 216); stroke-width: 1; opacity: 1;"></line><line x1="0" y1="242.83699059561133" x2="658" y2="242.83699059561133" style="fill: none; stroke: rgb(216, 216, 216); stroke-width: 1; opacity: 1;"></line><line x1="0" y1="216.5673981191223" x2="658" y2="216.5673981191223" style="fill: none; stroke: rgb(216, 216, 216); stroke-width: 1; opacity: 1;"></line><line x1="0" y1="190.29780564263328" x2="658" y2="190.29780564263328" style="fill: none; stroke: rgb(216, 216, 216); stroke-width: 1; opacity: 1;"></line><line x1="0" y1="164.02821316614424" x2="658" y2="164.02821316614424" style="fill: none; stroke: rgb(216, 216, 216); stroke-width: 1; opacity: 1;"></line><line x1="0" y1="137.7586206896552" x2="658" y2="137.7586206896552" style="fill: none; stroke: rgb(216, 216, 216); stroke-width: 1; opacity: 1;"></line><line x1="0" y1="111.4890282131662" x2="658" y2="111.4890282131662" style="fill: none; stroke: rgb(216, 216, 216); stroke-width: 1; opacity: 1;"></line></g><g id="g27" class="type-rule" style="pointer-events: none;"><line x1="-6" y1="426.7241379310345" x2="0" y2="426.7241379310345" style="fill: none; stroke: rgb(0, 0, 0); stroke-width: 1; opacity: 1;"></line><line x1="-6" y1="400.4545454545455" x2="0" y2="400.4545454545455" style="fill: none; stroke: rgb(0, 0, 0); stroke-width: 1; opacity: 1;"></line><line x1="-6" y1="374.18495297805646" x2="0" y2="374.18495297805646" style="fill: none; stroke: rgb(0, 0, 0); stroke-width: 1; opacity: 1;"></line><line x1="-6" y1="347.9153605015674" x2="0" y2="347.9153605015674" style="fill: none; stroke: rgb(0, 0, 0); stroke-width: 1; opacity: 1;"></line><line x1="-6" y1="321.6457680250784" x2="0" y2="321.6457680250784" style="fill: none; stroke: rgb(0, 0, 0); stroke-width: 1; opacity: 1;"></line><line x1="-6" y1="295.37617554858934" x2="0" y2="295.37617554858934" style="fill: none; stroke: rgb(0, 0, 0); stroke-width: 1; opacity: 1;"></line><line x1="-6" y1="269.10658307210036" x2="0" y2="269.10658307210036" style="fill: none; stroke: rgb(0, 0, 0); stroke-width: 1; opacity: 1;"></line><line x1="-6" y1="242.83699059561133" x2="0" y2="242.83699059561133" style="fill: none; stroke: rgb(0, 0, 0); stroke-width: 1; opacity: 1;"></line><line x1="-6" y1="216.5673981191223" x2="0" y2="216.5673981191223" style="fill: none; stroke: rgb(0, 0, 0); stroke-width: 1; opacity: 1;"></line><line x1="-6" y1="190.29780564263328" x2="0" y2="190.29780564263328" style="fill: none; stroke: rgb(0, 0, 0); stroke-width: 1; opacity: 1;"></line><line x1="-6" y1="164.02821316614424" x2="0" y2="164.02821316614424" style="fill: none; stroke: rgb(0, 0, 0); stroke-width: 1; opacity: 1;"></line><line x1="-6" y1="137.7586206896552" x2="0" y2="137.7586206896552" style="fill: none; stroke: rgb(0, 0, 0); stroke-width: 1; opacity: 1;"></line><line x1="-6" y1="111.4890282131662" x2="0" y2="111.4890282131662" style="fill: none; stroke: rgb(0, 0, 0); stroke-width: 1; opacity: 1;"></line></g><g id="g28" class="type-rule" style="pointer-events: none;"><line x1="-6" y1="413.58934169278996" x2="0" y2="413.58934169278996" style="fill: none; stroke: rgb(0, 0, 0); stroke-width: 1; opacity: 1;"></line><line x1="-6" y1="387.3197492163009" x2="0" y2="387.3197492163009" style="fill: none; stroke: rgb(0, 0, 0); stroke-width: 1; opacity: 1;"></line><line x1="-6" y1="361.0501567398119" x2="0" y2="361.0501567398119" style="fill: none; stroke: rgb(0, 0, 0); stroke-width: 1; opacity: 1;"></line><line x1="-6" y1="334.7805642633229" x2="0" y2="334.7805642633229" style="fill: none; stroke: rgb(0, 0, 0); stroke-width: 1; opacity: 1;"></line><line x1="-6" y1="308.51097178683386" x2="0" y2="308.51097178683386" style="fill: none; stroke: rgb(0, 0, 0); stroke-width: 1; opacity: 1;"></line><line x1="-6" y1="282.2413793103449" x2="0" y2="282.2413793103449" style="fill: none; stroke: rgb(0, 0, 0); stroke-width: 1; opacity: 1;"></line><line x1="-6" y1="255.97178683385582" x2="0" y2="255.97178683385582" style="fill: none; stroke: rgb(0, 0, 0); stroke-width: 1; opacity: 1;"></line><line x1="-6" y1="229.70219435736684" x2="0" y2="229.70219435736684" style="fill: none; stroke: rgb(0, 0, 0); stroke-width: 1; opacity: 1;"></line><line x1="-6" y1="203.43260188087777" x2="0" y2="203.43260188087777" style="fill: none; stroke: rgb(0, 0, 0); stroke-width: 1; opacity: 1;"></line><line x1="-6" y1="177.16300940438873" x2="0" y2="177.16300940438873" style="fill: none; stroke: rgb(0, 0, 0); stroke-width: 1; opacity: 1;"></line><line x1="-6" y1="150.8934169278997" x2="0" y2="150.8934169278997" style="fill: none; stroke: rgb(0, 0, 0); stroke-width: 1; opacity: 1;"></line><line x1="-6" y1="124.62382445141068" x2="0" y2="124.62382445141068" style="fill: none; stroke: rgb(0, 0, 0); stroke-width: 1; opacity: 1;"></line><line x1="-6" y1="98.35423197492165" x2="0" y2="98.35423197492165" style="fill: none; stroke: rgb(0, 0, 0); stroke-width: 1; opacity: 1;"></line></g><g id="g29" class="type-text"><text x="-9" y="426.7241379310345" text-anchor="end" dy=".35em" style="font: 11px sans-serif; fill: rgb(0, 0, 0); opacity: 1;">10</text><text x="-9" y="400.4545454545455" text-anchor="end" dy=".35em" style="font: 11px sans-serif; fill: rgb(0, 0, 0); opacity: 1;">12</text><text x="-9" y="374.18495297805646" text-anchor="end" dy=".35em" style="font: 11px sans-serif; fill: rgb(0, 0, 0); opacity: 1;">14</text><text x="-9" y="347.9153605015674" text-anchor="end" dy=".35em" style="font: 11px sans-serif; fill: rgb(0, 0, 0); opacity: 1;">16</text><text x="-9" y="321.6457680250784" text-anchor="end" dy=".35em" style="font: 11px sans-serif; fill: rgb(0, 0, 0); opacity: 1;">18</text><text x="-9" y="295.37617554858934" text-anchor="end" dy=".35em" style="font: 11px sans-serif; fill: rgb(0, 0, 0); opacity: 1;">20</text><text x="-9" y="269.10658307210036" text-anchor="end" dy=".35em" style="font: 11px sans-serif; fill: rgb(0, 0, 0); opacity: 1;">22</text><text x="-9" y="242.83699059561133" text-anchor="end" dy=".35em" style="font: 11px sans-serif; fill: rgb(0, 0, 0); opacity: 1;">24</text><text x="-9" y="216.5673981191223" text-anchor="end" dy=".35em" style="font: 11px sans-serif; fill: rgb(0, 0, 0); opacity: 1;">26</text><text x="-9" y="190.29780564263328" text-anchor="end" dy=".35em" style="font: 11px sans-serif; fill: rgb(0, 0, 0); opacity: 1;">28</text><text x="-9" y="164.02821316614424" text-anchor="end" dy=".35em" style="font: 11px sans-serif; fill: rgb(0, 0, 0); opacity: 1;">30</text><text x="-9" y="137.7586206896552" text-anchor="end" dy=".35em" style="font: 11px sans-serif; fill: rgb(0, 0, 0); opacity: 1;">32</text><text x="-9" y="111.4890282131662" text-anchor="end" dy=".35em" style="font: 11px sans-serif; fill: rgb(0, 0, 0); opacity: 1;">34</text></g><g id="g30" class="type-path" style="pointer-events: none;"><path transform="translate(0.5,0.5)" d="M-6,0H0V419H-6" style="fill: none; stroke: rgb(0, 0, 0); stroke-width: 1;"></path></g><g id="g31" class="type-text"><text x="-35" y="209" text-anchor="middle" transform="rotate(-90 -35,209)" dy=".35em" style="font: bold 11px sans-serif; fill: rgb(0, 0, 0);">mpg</text></g></g></g><g id="g32" class="type-symbol"><path transform="translate(68.22307498288474,268.60658307210036)" d="M0,3.989422804014327A3.989422804014327,3.989422804014327 0 1,1 0,-3.989422804014327A3.989422804014327,3.989422804014327 0 1,1 0,3.989422804014327Z" style="fill: rgb(0, 0, 0);"></path><path transform="translate(99.04496811155552,334.2805642633229)" d="M0,3.989422804014327A3.989422804014327,3.989422804014327 0 1,1 0,-3.989422804014327A3.989422804014327,3.989422804014327 0 1,1 0,3.989422804014327Z" style="fill: rgb(0, 0, 0);"></path><path transform="translate(53.99758584657514,268.60658307210036)" d="M0,3.989422804014327A3.989422804014327,3.989422804014327 0 1,1 0,-3.989422804014327A3.989422804014327,3.989422804014327 0 1,1 0,3.989422804014327Z" style="fill: rgb(0, 0, 0);"></path><path transform="translate(102.22199401866466,294.87617554858934)" d="M0,3.989422804014327A3.989422804014327,3.989422804014327 0 1,1 0,-3.989422804014327A3.989422804014327,3.989422804014327 0 1,1 0,3.989422804014327Z" style="fill: rgb(0, 0, 0);"></path><path transform="translate(244.99848665009188,360.5501567398119)" d="M0,3.989422804014327A3.989422804014327,3.989422804014327 0 1,1 0,-3.989422804014327A3.989422804014327,3.989422804014327 0 1,1 0,3.989422804014327Z" style="fill: rgb(0, 0, 0);"></path><path transform="translate(148.31257882030772,321.1457680250784)" d="M0,3.989422804014327A3.989422804014327,3.989422804014327 0 1,1 0,-3.989422804014327A3.989422804014327,3.989422804014327 0 1,1 0,3.989422804014327Z" style="fill: rgb(0, 0, 0);"></path><path transform="translate(85.00915216373005,216.0673981191223)" d="M0,3.989422804014327A3.989422804014327,3.989422804014327 0 1,1 0,-3.989422804014327A3.989422804014327,3.989422804014327 0 1,1 0,3.989422804014327Z" style="fill: rgb(0, 0, 0);"></path><path transform="translate(119.90901884480957,294.87617554858934)" d="M0,3.989422804014327A3.989422804014327,3.989422804014327 0 1,1 0,-3.989422804014327A3.989422804014327,3.989422804014327 0 1,1 0,3.989422804014327Z" style="fill: rgb(0, 0, 0);"></path><path transform="translate(365.6780528231182,347.4153605015674)" d="M0,3.989422804014327A3.989422804014327,3.989422804014327 0 1,1 0,-3.989422804014327A3.989422804014327,3.989422804014327 0 1,1 0,3.989422804014327Z" style="fill: rgb(0, 0, 0);"></path><path transform="translate(67.4169639318272,308.01097178683386)" d="M0,3.989422804014327A3.989422804014327,3.989422804014327 0 1,1 0,-3.989422804014327A3.989422804014327,3.989422804014327 0 1,1 0,3.989422804014327Z" style="fill: rgb(0, 0, 0);"></path><path transform="translate(413.7127878067236,373.68495297805646)" d="M0,3.989422804014327A3.989422804014327,3.989422804014327 0 1,1 0,-3.989422804014327A3.989422804014327,3.989422804014327 0 1,1 0,3.989422804014327Z" style="fill: rgb(0, 0, 0);"></path><path transform="translate(561.4207833387381,373.68495297805646)" d="M0,3.989422804014327A3.989422804014327,3.989422804014327 0 1,1 0,-3.989422804014327A3.989422804014327,3.989422804014327 0 1,1 0,3.989422804014327Z" style="fill: rgb(0, 0, 0);"></path><path transform="translate(628.0909090909091,281.7413793103449)" d="M0,3.989422804014327A3.989422804014327,3.989422804014327 0 1,1 0,-3.989422804014327A3.989422804014327,3.989422804014327 0 1,1 0,3.989422804014327Z" style="fill: rgb(0, 0, 0);"></path><path transform="translate(30.288437286059164,176.66300940438873)" d="M0,3.989422804014327A3.989422804014327,3.989422804014327 0 1,1 0,-3.989422804014327A3.989422804014327,3.989422804014327 0 1,1 0,3.989422804014327Z" style="fill: rgb(0, 0, 0);"></path><path transform="translate(144.37686015926207,347.4153605015674)" d="M0,3.989422804014327A3.989422804014327,3.989422804014327 0 1,1 0,-3.989422804014327A3.989422804014327,3.989422804014327 0 1,1 0,3.989422804014327Z" style="fill: rgb(0, 0, 0);"></path><path transform="translate(87.42748531690268,268.60658307210036)" d="M0,3.989422804014327A3.989422804014327,3.989422804014327 0 1,1 0,-3.989422804014327A3.989422804014327,3.989422804014327 0 1,1 0,3.989422804014327Z" style="fill: rgb(0, 0, 0);"></path><path transform="translate(115.87846358952186,268.60658307210036)" d="M0,3.989422804014327A3.989422804014327,3.989422804014327 0 1,1 0,-3.989422804014327A3.989422804014327,3.989422804014327 0 1,1 0,3.989422804014327Z" style="fill: rgb(0, 0, 0);"></path><path transform="translate(47.73837062659893,242.33699059561133)" d="M0,3.989422804014327A3.989422804014327,3.989422804014327 0 1,1 0,-3.989422804014327A3.989422804014327,3.989422804014327 0 1,1 0,3.989422804014327Z" style="fill: rgb(0, 0, 0);"></path><path transform="translate(61.394840197456126,308.01097178683386)" d="M0,3.989422804014327A3.989422804014327,3.989422804014327 0 1,1 0,-3.989422804014327A3.989422804014327,3.989422804014327 0 1,1 0,3.989422804014327Z" style="fill: rgb(0, 0, 0);"></path><path transform="translate(62.76997081396606,163.52821316614424)" d="M0,3.989422804014327A3.989422804014327,3.989422804014327 0 1,1 0,-3.989422804014327A3.989422804014327,3.989422804014327 0 1,1 0,3.989422804014327Z" style="fill: rgb(0, 0, 0);"></path><path transform="translate(64.00284653911288,321.1457680250784)" d="M0,3.989422804014327A3.989422804014327,3.989422804014327 0 1,1 0,-3.989422804014327A3.989422804014327,3.989422804014327 0 1,1 0,3.989422804014327Z" style="fill: rgb(0, 0, 0);"></path><path transform="translate(152.95957193816886,347.4153605015674)" d="M0,3.989422804014327A3.989422804014327,3.989422804014327 0 1,1 0,-3.989422804014327A3.989422804014327,3.989422804014327 0 1,1 0,3.989422804014327Z" style="fill: rgb(0, 0, 0);"></path><path transform="translate(174.5823154253594,334.2805642633229)" d="M0,3.989422804014327A3.989422804014327,3.989422804014327 0 1,1 0,-3.989422804014327A3.989422804014327,3.989422804014327 0 1,1 0,3.989422804014327Z" style="fill: rgb(0, 0, 0);"></path><path transform="translate(81.974381147984,189.79780564263328)" d="M0,3.989422804014327A3.989422804014327,3.989422804014327 0 1,1 0,-3.989422804014327A3.989422804014327,3.989422804014327 0 1,1 0,3.989422804014327Z" style="fill: rgb(0, 0, 0);"></path><path transform="translate(72.39588512953554,281.7413793103449)" d="M0,3.989422804014327A3.989422804014327,3.989422804014327 0 1,1 0,-3.989422804014327A3.989422804014327,3.989422804014327 0 1,1 0,3.989422804014327Z" style="fill: rgb(0, 0, 0);"></path><path transform="translate(419.0236370842792,399.9545454545455)" d="M0,3.989422804014327A3.989422804014327,3.989422804014327 0 1,1 0,-3.989422804014327A3.989422804014327,3.989422804014327 0 1,1 0,3.989422804014327Z" style="fill: rgb(0, 0, 0);"></path><path transform="translate(518.4598061470832,399.9545454545455)" d="M0,3.989422804014327A3.989422804014327,3.989422804014327 0 1,1 0,-3.989422804014327A3.989422804014327,3.989422804014327 0 1,1 0,3.989422804014327Z" style="fill: rgb(0, 0, 0);"></path><path transform="translate(512.3902641155911,373.68495297805646)" d="M0,3.989422804014327A3.989422804014327,3.989422804014327 0 1,1 0,-3.989422804014327A3.989422804014327,3.989422804014327 0 1,1 0,3.989422804014327Z" style="fill: rgb(0, 0, 0);"></path><path transform="translate(55.4201347602061,268.60658307210036)" d="M0,3.989422804014327A3.989422804014327,3.989422804014327 0 1,1 0,-3.989422804014327A3.989422804014327,3.989422804014327 0 1,1 0,3.989422804014327Z" style="fill: rgb(0, 0, 0);"></path><path transform="translate(128.91849529780563,373.68495297805646)" d="M0,3.989422804014327A3.989422804014327,3.989422804014327 0 1,1 0,-3.989422804014327A3.989422804014327,3.989422804014327 0 1,1 0,3.989422804014327Z" style="fill: rgb(0, 0, 0);"></path><path transform="translate(166.18927683493675,360.5501567398119)" d="M0,3.989422804014327A3.989422804014327,3.989422804014327 0 1,1 0,-3.989422804014327A3.989422804014327,3.989422804014327 0 1,1 0,3.989422804014327Z" style="fill: rgb(0, 0, 0);"></path><path transform="translate(87.99650488235507,321.1457680250784)" d="M0,3.989422804014327A3.989422804014327,3.989422804014327 0 1,1 0,-3.989422804014327A3.989422804014327,3.989422804014327 0 1,1 0,3.989422804014327Z" style="fill: rgb(0, 0, 0);"></path><path transform="translate(172.7330018376392,373.68495297805646)" d="M0,3.989422804014327A3.989422804014327,3.989422804014327 0 1,1 0,-3.989422804014327A3.989422804014327,3.989422804014327 0 1,1 0,3.989422804014327Z" style="fill: rgb(0, 0, 0);"></path><path transform="translate(29.90909090909091,294.87617554858934)" d="M0,3.989422804014327A3.989422804014327,3.989422804014327 0 1,1 0,-3.989422804014327A3.989422804014327,3.989422804014327 0 1,1 0,3.989422804014327Z" style="fill: rgb(0, 0, 0);"></path><path transform="translate(291.8003459085504,281.7413793103449)" d="M0,3.989422804014327A3.989422804014327,3.989422804014327 0 1,1 0,-3.989422804014327A3.989422804014327,3.989422804014327 0 1,1 0,3.989422804014327Z" style="fill: rgb(0, 0, 0);"></path><path transform="translate(119.10290779375202,308.01097178683386)" d="M0,3.989422804014327A3.989422804014327,3.989422804014327 0 1,1 0,-3.989422804014327A3.989422804014327,3.989422804014327 0 1,1 0,3.989422804014327Z" style="fill: rgb(0, 0, 0);"></path><path transform="translate(98.286275357619,308.01097178683386)" d="M0,3.989422804014327A3.989422804014327,3.989422804014327 0 1,1 0,-3.989422804014327A3.989422804014327,3.989422804014327 0 1,1 0,3.989422804014327Z" style="fill: rgb(0, 0, 0);"></path><path transform="translate(105.730948005621,321.1457680250784)" d="M0,3.989422804014327A3.989422804014327,3.989422804014327 0 1,1 0,-3.989422804014327A3.989422804014327,3.989422804014327 0 1,1 0,3.989422804014327Z" style="fill: rgb(0, 0, 0);"></path><path transform="translate(72.11137534680935,308.01097178683386)" d="M0,3.989422804014327A3.989422804014327,3.989422804014327 0 1,1 0,-3.989422804014327A3.989422804014327,3.989422804014327 0 1,1 0,3.989422804014327Z" style="fill: rgb(0, 0, 0);"></path><path transform="translate(72.7752315065038,242.33699059561133)" d="M0,3.989422804014327A3.989422804014327,3.989422804014327 0 1,1 0,-3.989422804014327A3.989422804014327,3.989422804014327 0 1,1 0,3.989422804014327Z" style="fill: rgb(0, 0, 0);"></path><path transform="translate(365.6306345259972,347.4153605015674)" d="M0,3.989422804014327A3.989422804014327,3.989422804014327 0 1,1 0,-3.989422804014327A3.989422804014327,3.989422804014327 0 1,1 0,3.989422804014327Z" style="fill: rgb(0, 0, 0);"></path><path transform="translate(94.20830180521024,189.79780564263328)" d="M0,3.989422804014327A3.989422804014327,3.989422804014327 0 1,1 0,-3.989422804014327A3.989422804014327,3.989422804014327 0 1,1 0,3.989422804014327Z" style="fill: rgb(0, 0, 0);"></path><path transform="translate(83.68143984434114,110.9890282131662)" d="M0,3.989422804014327A3.989422804014327,3.989422804014327 0 1,1 0,-3.989422804014327A3.989422804014327,3.989422804014327 0 1,1 0,3.989422804014327Z" style="fill: rgb(0, 0, 0);"></path><path transform="translate(86.38428278023997,229.20219435736684)" d="M0,3.989422804014327A3.989422804014327,3.989422804014327 0 1,1 0,-3.989422804014327A3.989422804014327,3.989422804014327 0 1,1 0,3.989422804014327Z" style="fill: rgb(0, 0, 0);"></path><path transform="translate(181.41055021078805,216.0673981191223)" d="M0,3.989422804014327A3.989422804014327,3.989422804014327 0 1,1 0,-3.989422804014327A3.989422804014327,3.989422804014327 0 1,1 0,3.989422804014327Z" style="fill: rgb(0, 0, 0);"></path><path transform="translate(66.37376139516448,321.1457680250784)" d="M0,3.989422804014327A3.989422804014327,3.989422804014327 0 1,1 0,-3.989422804014327A3.989422804014327,3.989422804014327 0 1,1 0,3.989422804014327Z" style="fill: rgb(0, 0, 0);"></path><path transform="translate(148.78676179151805,321.1457680250784)" d="M0,3.989422804014327A3.989422804014327,3.989422804014327 0 1,1 0,-3.989422804014327A3.989422804014327,3.989422804014327 0 1,1 0,3.989422804014327Z" style="fill: rgb(0, 0, 0);"></path><path transform="translate(107.81735307894643,321.1457680250784)" d="M0,3.989422804014327A3.989422804014327,3.989422804014327 0 1,1 0,-3.989422804014327A3.989422804014327,3.989422804014327 0 1,1 0,3.989422804014327Z" style="fill: rgb(0, 0, 0);"></path><path transform="translate(121.47382264980362,308.01097178683386)" d="M0,3.989422804014327A3.989422804014327,3.989422804014327 0 1,1 0,-3.989422804014327A3.989422804014327,3.989422804014327 0 1,1 0,3.989422804014327Z" style="fill: rgb(0, 0, 0);"></path><path transform="translate(97.81209238640868,308.01097178683386)" d="M0,3.989422804014327A3.989422804014327,3.989422804014327 0 1,1 0,-3.989422804014327A3.989422804014327,3.989422804014327 0 1,1 0,3.989422804014327Z" style="fill: rgb(0, 0, 0);"></path><path transform="translate(83.63402154722013,308.01097178683386)" d="M0,3.989422804014327A3.989422804014327,3.989422804014327 0 1,1 0,-3.989422804014327A3.989422804014327,3.989422804014327 0 1,1 0,3.989422804014327Z" style="fill: rgb(0, 0, 0);"></path><path transform="translate(71.68461067272007,242.33699059561133)" d="M0,3.989422804014327A3.989422804014327,3.989422804014327 0 1,1 0,-3.989422804014327A3.989422804014327,3.989422804014327 0 1,1 0,3.989422804014327Z" style="fill: rgb(0, 0, 0);"></path><path transform="translate(333.3387741865744,334.2805642633229)" d="M0,3.989422804014327A3.989422804014327,3.989422804014327 0 1,1 0,-3.989422804014327A3.989422804014327,3.989422804014327 0 1,1 0,3.989422804014327Z" style="fill: rgb(0, 0, 0);"></path><path transform="translate(172.35365546067092,255.47178683385582)" d="M0,3.989422804014327A3.989422804014327,3.989422804014327 0 1,1 0,-3.989422804014327A3.989422804014327,3.989422804014327 0 1,1 0,3.989422804014327Z" style="fill: rgb(0, 0, 0);"></path><path transform="translate(335.4725975570209,229.20219435736684)" d="M0,3.989422804014327A3.989422804014327,3.989422804014327 0 1,1 0,-3.989422804014327A3.989422804014327,3.989422804014327 0 1,1 0,3.989422804014327Z" style="fill: rgb(0, 0, 0);"></path><path transform="translate(169.2240478506828,255.47178683385582)" d="M0,3.989422804014327A3.989422804014327,3.989422804014327 0 1,1 0,-3.989422804014327A3.989422804014327,3.989422804014327 0 1,1 0,3.989422804014327Z" style="fill: rgb(0, 0, 0);"></path><path transform="translate(91.4580405721904,97.85423197492165)" d="M0,3.989422804014327A3.989422804014327,3.989422804014327 0 1,1 0,-3.989422804014327A3.989422804014327,3.989422804014327 0 1,1 0,3.989422804014327Z" style="fill: rgb(0, 0, 0);"></path><path transform="translate(114.69300616149604,242.33699059561133)" d="M0,3.989422804014327A3.989422804014327,3.989422804014327 0 1,1 0,-3.989422804014327A3.989422804014327,3.989422804014327 0 1,1 0,3.989422804014327Z" style="fill: rgb(0, 0, 0);"></path><path transform="translate(259.3188123806435,281.7413793103449)" d="M0,3.989422804014327A3.989422804014327,3.989422804014327 0 1,1 0,-3.989422804014327A3.989422804014327,3.989422804014327 0 1,1 0,3.989422804014327Z" style="fill: rgb(0, 0, 0);"></path><path transform="translate(77.56447951572802,281.7413793103449)" d="M0,3.989422804014327A3.989422804014327,3.989422804014327 0 1,1 0,-3.989422804014327A3.989422804014327,3.989422804014327 0 1,1 0,3.989422804014327Z" style="fill: rgb(0, 0, 0);"></path><path transform="translate(148.83418008863907,229.20219435736684)" d="M0,3.989422804014327A3.989422804014327,3.989422804014327 0 1,1 0,-3.989422804014327A3.989422804014327,3.989422804014327 0 1,1 0,3.989422804014327Z" style="fill: rgb(0, 0, 0);"></path><path transform="translate(87.19039383129751,189.79780564263328)" d="M0,3.989422804014327A3.989422804014327,3.989422804014327 0 1,1 0,-3.989422804014327A3.989422804014327,3.989422804014327 0 1,1 0,3.989422804014327Z" style="fill: rgb(0, 0, 0);"></path><path transform="translate(63.29157208229741,163.52821316614424)" d="M0,3.989422804014327A3.989422804014327,3.989422804014327 0 1,1 0,-3.989422804014327A3.989422804014327,3.989422804014327 0 1,1 0,3.989422804014327Z" style="fill: rgb(0, 0, 0);"></path><path transform="translate(489.81915468597987,373.68495297805646)" d="M0,3.989422804014327A3.989422804014327,3.989422804014327 0 1,1 0,-3.989422804014327A3.989422804014327,3.989422804014327 0 1,1 0,3.989422804014327Z" style="fill: rgb(0, 0, 0);"></path><path transform="translate(58.54974237019421,216.0673981191223)" d="M0,3.989422804014327A3.989422804014327,3.989422804014327 0 1,1 0,-3.989422804014327A3.989422804014327,3.989422804014327 0 1,1 0,3.989422804014327Z" style="fill: rgb(0, 0, 0);"></path><path transform="translate(53.950167549454115,97.85423197492165)" d="M0,3.989422804014327A3.989422804014327,3.989422804014327 0 1,1 0,-3.989422804014327A3.989422804014327,3.989422804014327 0 1,1 0,3.989422804014327Z" style="fill: rgb(0, 0, 0);"></path><path transform="translate(153.57600980074227,321.1457680250784)" d="M0,3.989422804014327A3.989422804014327,3.989422804014327 0 1,1 0,-3.989422804014327A3.989422804014327,3.989422804014327 0 1,1 0,3.989422804014327Z" style="fill: rgb(0, 0, 0);"></path><path transform="translate(51.579252693402516,150.3934169278997)" d="M0,3.989422804014327A3.989422804014327,3.989422804014327 0 1,1 0,-3.989422804014327A3.989422804014327,3.989422804014327 0 1,1 0,3.989422804014327Z" style="fill: rgb(0, 0, 0);"></path><path transform="translate(145.0407163189565,321.1457680250784)" d="M0,3.989422804014327A3.989422804014327,3.989422804014327 0 1,1 0,-3.989422804014327A3.989422804014327,3.989422804014327 0 1,1 0,3.989422804014327Z" style="fill: rgb(0, 0, 0);"></path><path transform="translate(212.42211652794293,255.47178683385582)" d="M0,3.989422804014327A3.989422804014327,3.989422804014327 0 1,1 0,-3.989422804014327A3.989422804014327,3.989422804014327 0 1,1 0,3.989422804014327Z" style="fill: rgb(0, 0, 0);"></path><path transform="translate(129.77202464598423,19.045454545454575)" d="M0,3.989422804014327A3.989422804014327,3.989422804014327 0 1,1 0,-3.989422804014327A3.989422804014327,3.989422804014327 0 1,1 0,3.989422804014327Z" style="fill: rgb(0, 0, 0);"></path><path transform="translate(96.57921666126184,229.20219435736684)" d="M0,3.989422804014327A3.989422804014327,3.989422804014327 0 1,1 0,-3.989422804014327A3.989422804014327,3.989422804014327 0 1,1 0,3.989422804014327Z" style="fill: rgb(0, 0, 0);"></path><path transform="translate(198.67081036284367,229.20219435736684)" d="M0,3.989422804014327A3.989422804014327,3.989422804014327 0 1,1 0,-3.989422804014327A3.989422804014327,3.989422804014327 0 1,1 0,3.989422804014327Z" style="fill: rgb(0, 0, 0);"></path><path transform="translate(442.6379490505531,334.2805642633229)" d="M0,3.989422804014327A3.989422804014327,3.989422804014327 0 1,1 0,-3.989422804014327A3.989422804014327,3.989422804014327 0 1,1 0,3.989422804014327Z" style="fill: rgb(0, 0, 0);"></path></g></g></g></g></svg>