<svg class="marks" width="769" height="473" xmlns="http://www.w3.org/2000/svg"><g transform="translate(6,46)"><g id="g17" class="type-group"><g transform="translate(0,0)"><rect class="background" width="715" height="421" style="pointer-events: none; fill: none;"></rect><g id="g18" class="type-group"><g transform="translate(0,0)"><rect class="background" width="0" height="0" style="pointer-events: none; fill: none;"></rect><g id="g19" class="type-rule" style="pointer-events: none;"><line x1="69.53190646056282" y1="0" x2="69.53190646056282" y2="421" style="fill: none; stroke: rgb(216, 216, 216); stroke-width: 1; opacity: 1;"></line><line x1="172.58382877526753" y1="0" x2="172.58382877526753" y2="421" style="fill: none; stroke: rgb(216, 216, 216); stroke-width: 1; opacity: 1;"></line><line x1="275.63575108997225" y1="0" x2="275.63575108997225" y2="421" style="fill: none; stroke: rgb(216, 216, 216); stroke-width: 1; opacity: 1;"></line><line x1="378.68767340467696" y1="0" x2="378.68767340467696" y2="421" style="fill: none; stroke: rgb(216, 216, 216); stroke-width: 1; opacity: 1;"></line><line x1="481.73959571938167" y1="0" x2="481.73959571938167" y2="421" style="fill: none; stroke: rgb(216, 216, 216); stroke-width: 1; opacity: 1;"></line><line x1="584.7915180340865" y1="0" x2="584.7915180340865" y2="421" style="fill: none; stroke: rgb(216, 216, 216); stroke-width: 1; opacity: 1;"></line><line x1="687.8434403487911" y1="0" x2="687.8434403487911" y2="421" style="fill: none; stroke: rgb(216, 216, 216); stroke-width: 1; opacity: 1;"></line></g><g id="g20" class="type-rule" style="pointer-events: none;"><line x1="69.53190646056282" y1="-6" x2="69.53190646056282" y2="0" style="fill: none; stroke: rgb(0, 0, 0); stroke-width: 1; opacity: 1;"></line><line x1="172.58382877526753" y1="-6" x2="172.58382877526753" y2="0" style="fill: none; stroke: rgb(0, 0, 0); stroke-width: 1; opacity: 1;"></line><line x1="275.63575108997225" y1="-6" x2="275.63575108997225" y2="0" style="fill: none; stroke: rgb(0, 0, 0); stroke-width: 1; opacity: 1;"></line><line x1="378.68767340467696" y1="-6" x2="378.68767340467696" y2="0" style="fill: none; stroke: rgb(0, 0, 0); stroke-width: 1; opacity: 1;"></line><line x1="481.73959571938167" y1="-6" x2="481.73959571938167" y2="0" style="fill: none; stroke: rgb(0, 0, 0); stroke-width: 1; opacity: 1;"></line><line x1="584.7915180340865" y1="-6" x2="584.7915180340865" y2="0" style="fill: none; stroke: rgb(0, 0, 0); stroke-width: 1; opacity: 1;"></line><line x1="687.8434403487911" y1="-6" x2="687.8434403487911" y2="0" style="fill: none; stroke: rgb(0, 0, 0); stroke-width: 1; opacity: 1;"></line></g><g id="g21" class="type-rule" style="pointer-events: none;"></g><g id="g22" class="type-text"><text x="69.53190646056282" y="-9" text-anchor="middle" style="font: 11px sans-serif; fill: rgb(0, 0, 0); opacity: 1;">4,000</text><text x="172.58382877526753" y="-9" text-anchor="middle" style="font: 11px sans-serif; fill: rgb(0, 0, 0); opacity: 1;">6,000</text><text x="275.63575108997225" y="-9" text-anchor="middle" style="font: 11px sans-serif; fill: rgb(0, 0, 0); opacity: 1;">8,000</text><text x="378.68767340467696" y="-9" text-anchor="middle" style="font: 11px sans-serif; fill: rgb(0, 0, 0); opacity: 1;">10,000</text><text x="481.73959571938167" y="-9" text-anchor="middle" style="font: 11px sans-serif; fill: rgb(0, 0, 0); opacity: 1;">12,000</text><text x="584.7915180340865" y="-9" text-anchor="middle" style="font: 11px sans-serif; fill: rgb(0, 0, 0); opacity: 1;">14,000</text><text x="687.8434403487911" y="-9" text-anchor="middle" style="font: 11px sans-serif; fill: rgb(0, 0, 0); opacity: 1;">16,000</text></g><g id="g23" class="type-path" style="pointer-events: none;"><path transform="translate(0.5,0.5)" d="M0,-6V0H715V-6" style="fill: none; stroke: rgb(0, 0, 0); stroke-width: 1;"></path></g><g id="g24" class="type-text"><text x="357" y="-35" text-anchor="middle" dy=".35em" style="font: bold 11px sans-serif; fill: rgb(0, 0, 0);">price</text></g></g></g><g id="g25" class="type-group"><g transform="translate(715,0)"><rect class="background" width="0" height="0" style="pointer-events: none; fill: none;"></rect><g id="g26" class="type-rule" style="pointer-events: none;"><line x1="-715" y1="402.3636363636364" x2="0" y2="402.3636363636364" style="fill: none; stroke: rgb(216, 216, 216); stroke-width: 1; opacity: 1;"></line><line x1="-715" y1="354.5227272727273" x2="0" y2="354.5227272727273" style="fill: none; stroke: rgb(216, 216, 216); stroke-width: 1; opacity: 1;"></line><line x1="-715" y1="306.6818181818182" x2="0" y2="306.6818181818182" style="fill: none; stroke: rgb(216, 216, 216); stroke-width: 1; opacity: 1;"></line><line x1="-715" y1="258.8409090909091" x2="0" y2="258.8409090909091" style="fill: none; stroke: rgb(216, 216, 216); stroke-width: 1; opacity: 1;"></line><line x1="-715" y1="211" x2="0" y2="211" style="fill: none; stroke: rgb(216, 216, 216); stroke-width: 1; opacity: 1;"></line><line x1="-715" y1="163.1590909090909" x2="0" y2="163.1590909090909" style="fill: none; stroke: rgb(216, 216, 216); stroke-width: 1; opacity: 1;"></line><line x1="-715" y1="115.31818181818181" x2="0" y2="115.31818181818181" style="fill: none; stroke: rgb(216, 216, 216); stroke-width: 1; opacity: 1;"></line><line x1="-715" y1="67.47727272727276" x2="0" y2="67.47727272727276" style="fill: none; stroke: rgb(216, 216, 216); stroke-width: 1; opacity: 1;"></line><line x1="-715" y1="19.636363636363665" x2="0" y2="19.636363636363665" style="fill: none; stroke: rgb(216, 216, 216); stroke-width: 1; opacity: 1;"></line></g><g id="g27" class="type-rule" style="pointer-events: none;"><line x1="0" y1="402.3636363636364" x2="6" y2="402.3636363636364" style="fill: none; stroke: rgb(0, 0, 0); stroke-width: 1; opacity: 1;"></line><line x1="0" y1="354.5227272727273" x2="6" y2="354.5227272727273" style="fill: none; stroke: rgb(0, 0, 0); stroke-width: 1; opacity: 1;"></line><line x1="0" y1="306.6818181818182" x2="6" y2="306.6818181818182" style="fill: none; stroke: rgb(0, 0, 0); stroke-width: 1; opacity: 1;"></line><line x1="0" y1="258.8409090909091" x2="6" y2="258.8409090909091" style="fill: none; stroke: rgb(0, 0, 0); stroke-width: 1; opacity: 1;"></line><line x1="0" y1="211" x2="6" y2="211" style="fill: none; stroke: rgb(0, 0, 0); stroke-width: 1; opacity: 1;"></line><line x1="0" y1="163.1590909090909" x2="6" y2="163.1590909090909" style="fill: none; stroke: rgb(0, 0, 0); stroke-width: 1; opacity: 1;"></line><line x1="0" y1="115.31818181818181" x2="6" y2="115.31818181818181" style="fill: none; stroke: rgb(0, 0, 0); stroke-width: 1; opacity: 1;"></line><line x1="0" y1="67.47727272727276" x2="6" y2="67.47727272727276" style="fill: none; stroke: rgb(0, 0, 0); stroke-width: 1; opacity: 1;"></line><line x1="0" y1="19.636363636363665" x2="6" y2="19.636363636363665" style="fill: none; stroke: rgb(0, 0, 0); stroke-width: 1; opacity: 1;"></line></g><g id="g28" class="type-rule" style="pointer-events: none;"></g><g id="g29" class="type-text"><text x="9" y="402.3636363636364" text-anchor="start" dy=".35em" style="font: 11px sans-serif; fill: rgb(0, 0, 0); opacity: 1;">1.0</text><text x="9" y="354.5227272727273" text-anchor="start" dy=".35em" style="font: 11px sans-serif; fill: rgb(0, 0, 0); opacity: 1;">1.5</text><text x="9" y="306.6818181818182" text-anchor="start" dy=".35em" style="font: 11px sans-serif; fill: rgb(0, 0, 0); opacity: 1;">2.0</text><text x="9" y="258.8409090909091" text-anchor="start" dy=".35em" style="font: 11px sans-serif; fill: rgb(0, 0, 0); opacity: 1;">2.5</text><text x="9" y="211" text-anchor="start" dy=".35em" style="font: 11px sans-serif; fill: rgb(0, 0, 0); opacity: 1;">3.0</text><text x="9" y="163.1590909090909" text-anchor="start" dy=".35em" style="font: 11px sans-serif; fill: rgb(0, 0, 0); opacity: 1;">3.5</text><text x="9" y="115.31818181818181" text-anchor="start" dy=".35em" style="font: 11px sans-serif; fill: rgb(0, 0, 0); opacity: 1;">4.0</text><text x="9" y="67.47727272727276" text-anchor="start" dy=".35em" style="font: 11px sans-serif; fill: rgb(0, 0, 0); opacity: 1;">4.5</text><text x="9" y="19.636363636363665" text-anchor="start" dy=".35em" style="font: 11px sans-serif; fill: rgb(0, 0, 0); opacity: 1;">5.0</text></g><g id="g30" class="type-path" style="pointer-events: none;"><path transform="translate(0.5,0.5)" d="M6,0H0V421H6" style="fill: none; stroke: rgb(0, 0, 0); stroke-width: 1;"></path></g><g id="g31" class="type-text"><text x="35" y="210" text-anchor="middle" transform="rotate(-90 35,210)" dy=".35em" style="font: bold 11px sans-serif; fill: rgb(0, 0, 0);">rep78</text></g></g></g><g id="g32" class="type-symbol"><path transform="translate(74.1329766151407,210.5)" d="M0,3.989422804014327A3.989422804014327,3.989422804014327 0 1,1 0,-3.989422804014327A3.989422804014327,3.989422804014327 0 1,1 0,3.989422804014327Z" style="fill: rgb(0, 0, 0);"></path><path transform="translate(107.62485136741974,210.5)" d="M0,3.989422804014327A3.989422804014327,3.989422804014327 0 1,1 0,-3.989422804014327A3.989422804014327,3.989422804014327 0 1,1 0,3.989422804014327Z" style="fill: rgb(0, 0, 0);"></path><path transform="translate(58.675188267935,0)" d="M0,3.989422804014327A3.989422804014327,3.989422804014327 0 1,1 0,-3.989422804014327A3.989422804014327,3.989422804014327 0 1,1 0,3.989422804014327Z" style="fill: rgb(0, 0, 0);"></path><path transform="translate(111.07709076496235,210.5)" d="M0,3.989422804014327A3.989422804014327,3.989422804014327 0 1,1 0,-3.989422804014327A3.989422804014327,3.989422804014327 0 1,1 0,3.989422804014327Z" style="fill: rgb(0, 0, 0);"></path><path transform="translate(266.22175980975027,114.81818181818181)" d="M0,3.989422804014327A3.989422804014327,3.989422804014327 0 1,1 0,-3.989422804014327A3.989422804014327,3.989422804014327 0 1,1 0,3.989422804014327Z" style="fill: rgb(0, 0, 0);"></path><path transform="translate(161.16032500990883,210.5)" d="M0,3.989422804014327A3.989422804014327,3.989422804014327 0 1,1 0,-3.989422804014327A3.989422804014327,3.989422804014327 0 1,1 0,3.989422804014327Z" style="fill: rgb(0, 0, 0);"></path><path transform="translate(92.37316686484344,0)" d="M0,3.989422804014327A3.989422804014327,3.989422804014327 0 1,1 0,-3.989422804014327A3.989422804014327,3.989422804014327 0 1,1 0,3.989422804014327Z" style="fill: rgb(0, 0, 0);"></path><path transform="translate(130.29627427665477,210.5)" d="M0,3.989422804014327A3.989422804014327,3.989422804014327 0 1,1 0,-3.989422804014327A3.989422804014327,3.989422804014327 0 1,1 0,3.989422804014327Z" style="fill: rgb(0, 0, 0);"></path><path transform="translate(397.355330955212,210.5)" d="M0,3.989422804014327A3.989422804014327,3.989422804014327 0 1,1 0,-3.989422804014327A3.989422804014327,3.989422804014327 0 1,1 0,3.989422804014327Z" style="fill: rgb(0, 0, 0);"></path><path transform="translate(73.25703527546571,210.5)" d="M0,3.989422804014327A3.989422804014327,3.989422804014327 0 1,1 0,-3.989422804014327A3.989422804014327,3.989422804014327 0 1,1 0,3.989422804014327Z" style="fill: rgb(0, 0, 0);"></path><path transform="translate(449.55112960761,210.5)" d="M0,3.989422804014327A3.989422804014327,3.989422804014327 0 1,1 0,-3.989422804014327A3.989422804014327,3.989422804014327 0 1,1 0,3.989422804014327Z" style="fill: rgb(0, 0, 0);"></path><path transform="translate(610.0544986127626,306.1818181818182)" d="M0,3.989422804014327A3.989422804014327,3.989422804014327 0 1,1 0,-3.989422804014327A3.989422804014327,3.989422804014327 0 1,1 0,3.989422804014327Z" style="fill: rgb(0, 0, 0);"></path><path transform="translate(682.5,210.5)" d="M0,3.989422804014327A3.989422804014327,3.989422804014327 0 1,1 0,-3.989422804014327A3.989422804014327,3.989422804014327 0 1,1 0,3.989422804014327Z" style="fill: rgb(0, 0, 0);"></path><path transform="translate(32.91220768925882,210.5)" d="M0,3.989422804014327A3.989422804014327,3.989422804014327 0 1,1 0,-3.989422804014327A3.989422804014327,3.989422804014327 0 1,1 0,3.989422804014327Z" style="fill: rgb(0, 0, 0);"></path><path transform="translate(156.8836702338486,114.81818181818181)" d="M0,3.989422804014327A3.989422804014327,3.989422804014327 0 1,1 0,-3.989422804014327A3.989422804014327,3.989422804014327 0 1,1 0,3.989422804014327Z" style="fill: rgb(0, 0, 0);"></path><path transform="translate(95.0009908838684,210.5)" d="M0,3.989422804014327A3.989422804014327,3.989422804014327 0 1,1 0,-3.989422804014327A3.989422804014327,3.989422804014327 0 1,1 0,3.989422804014327Z" style="fill: rgb(0, 0, 0);"></path><path transform="translate(125.91656757827982,306.1818181818182)" d="M0,3.989422804014327A3.989422804014327,3.989422804014327 0 1,1 0,-3.989422804014327A3.989422804014327,3.989422804014327 0 1,1 0,3.989422804014327Z" style="fill: rgb(0, 0, 0);"></path><path transform="translate(51.87376139516449,306.1818181818182)" d="M0,3.989422804014327A3.989422804014327,3.989422804014327 0 1,1 0,-3.989422804014327A3.989422804014327,3.989422804014327 0 1,1 0,3.989422804014327Z" style="fill: rgb(0, 0, 0);"></path><path transform="translate(66.71323820848197,210.5)" d="M0,3.989422804014327A3.989422804014327,3.989422804014327 0 1,1 0,-3.989422804014327A3.989422804014327,3.989422804014327 0 1,1 0,3.989422804014327Z" style="fill: rgb(0, 0, 0);"></path><path transform="translate(68.20749108204518,19.136363636363665)" d="M0,3.989422804014327A3.989422804014327,3.989422804014327 0 1,1 0,-3.989422804014327A3.989422804014327,3.989422804014327 0 1,1 0,3.989422804014327Z" style="fill: rgb(0, 0, 0);"></path><path transform="translate(69.54716607213635,306.1818181818182)" d="M0,3.989422804014327A3.989422804014327,3.989422804014327 0 1,1 0,-3.989422804014327A3.989422804014327,3.989422804014327 0 1,1 0,3.989422804014327Z" style="fill: rgb(0, 0, 0);"></path><path transform="translate(166.2098692033294,306.1818181818182)" d="M0,3.989422804014327A3.989422804014327,3.989422804014327 0 1,1 0,-3.989422804014327A3.989422804014327,3.989422804014327 0 1,1 0,3.989422804014327Z" style="fill: rgb(0, 0, 0);"></path><path transform="translate(189.70570749108202,306.1818181818182)" d="M0,3.989422804014327A3.989422804014327,3.989422804014327 0 1,1 0,-3.989422804014327A3.989422804014327,3.989422804014327 0 1,1 0,3.989422804014327Z" style="fill: rgb(0, 0, 0);"></path><path transform="translate(89.07550535077289,114.81818181818181)" d="M0,3.989422804014327A3.989422804014327,3.989422804014327 0 1,1 0,-3.989422804014327A3.989422804014327,3.989422804014327 0 1,1 0,3.989422804014327Z" style="fill: rgb(0, 0, 0);"></path><path transform="translate(78.66726119698771,210.5)" d="M0,3.989422804014327A3.989422804014327,3.989422804014327 0 1,1 0,-3.989422804014327A3.989422804014327,3.989422804014327 0 1,1 0,3.989422804014327Z" style="fill: rgb(0, 0, 0);"></path><path transform="translate(455.3220372572335,210.5)" d="M0,3.989422804014327A3.989422804014327,3.989422804014327 0 1,1 0,-3.989422804014327A3.989422804014327,3.989422804014327 0 1,1 0,3.989422804014327Z" style="fill: rgb(0, 0, 0);"></path><path transform="translate(563.3719778042014,210.5)" d="M0,3.989422804014327A3.989422804014327,3.989422804014327 0 1,1 0,-3.989422804014327A3.989422804014327,3.989422804014327 0 1,1 0,3.989422804014327Z" style="fill: rgb(0, 0, 0);"></path><path transform="translate(556.7766547760602,210.5)" d="M0,3.989422804014327A3.989422804014327,3.989422804014327 0 1,1 0,-3.989422804014327A3.989422804014327,3.989422804014327 0 1,1 0,3.989422804014327Z" style="fill: rgb(0, 0, 0);"></path><path transform="translate(60.220967102655564,114.81818181818181)" d="M0,3.989422804014327A3.989422804014327,3.989422804014327 0 1,1 0,-3.989422804014327A3.989422804014327,3.989422804014327 0 1,1 0,3.989422804014327Z" style="fill: rgb(0, 0, 0);"></path><path transform="translate(140.08620689655172,114.81818181818181)" d="M0,3.989422804014327A3.989422804014327,3.989422804014327 0 1,1 0,-3.989422804014327A3.989422804014327,3.989422804014327 0 1,1 0,3.989422804014327Z" style="fill: rgb(0, 0, 0);"></path><path transform="translate(180.58561236623066,210.5)" d="M0,3.989422804014327A3.989422804014327,3.989422804014327 0 1,1 0,-3.989422804014327A3.989422804014327,3.989422804014327 0 1,1 0,3.989422804014327Z" style="fill: rgb(0, 0, 0);"></path><path transform="translate(95.61930241775664,210.5)" d="M0,3.989422804014327A3.989422804014327,3.989422804014327 0 1,1 0,-3.989422804014327A3.989422804014327,3.989422804014327 0 1,1 0,3.989422804014327Z" style="fill: rgb(0, 0, 0);"></path><path transform="translate(187.69619500594533,114.81818181818181)" d="M0,3.989422804014327A3.989422804014327,3.989422804014327 0 1,1 0,-3.989422804014327A3.989422804014327,3.989422804014327 0 1,1 0,3.989422804014327Z" style="fill: rgb(0, 0, 0);"></path><path transform="translate(32.5,210.5)" d="M0,3.989422804014327A3.989422804014327,3.989422804014327 0 1,1 0,-3.989422804014327A3.989422804014327,3.989422804014327 0 1,1 0,3.989422804014327Z" style="fill: rgb(0, 0, 0);"></path><path transform="translate(317.07788347205707,114.81818181818181)" d="M0,3.989422804014327A3.989422804014327,3.989422804014327 0 1,1 0,-3.989422804014327A3.989422804014327,3.989422804014327 0 1,1 0,3.989422804014327Z" style="fill: rgb(0, 0, 0);"></path><path transform="translate(129.42033293697978,210.5)" d="M0,3.989422804014327A3.989422804014327,3.989422804014327 0 1,1 0,-3.989422804014327A3.989422804014327,3.989422804014327 0 1,1 0,3.989422804014327Z" style="fill: rgb(0, 0, 0);"></path><path transform="translate(106.80043598890211,210.5)" d="M0,3.989422804014327A3.989422804014327,3.989422804014327 0 1,1 0,-3.989422804014327A3.989422804014327,3.989422804014327 0 1,1 0,3.989422804014327Z" style="fill: rgb(0, 0, 0);"></path><path transform="translate(114.89001189060642,114.81818181818181)" d="M0,3.989422804014327A3.989422804014327,3.989422804014327 0 1,1 0,-3.989422804014327A3.989422804014327,3.989422804014327 0 1,1 0,3.989422804014327Z" style="fill: rgb(0, 0, 0);"></path><path transform="translate(78.3581054300436,210.5)" d="M0,3.989422804014327A3.989422804014327,3.989422804014327 0 1,1 0,-3.989422804014327A3.989422804014327,3.989422804014327 0 1,1 0,3.989422804014327Z" style="fill: rgb(0, 0, 0);"></path><path transform="translate(79.07946888624653,401.8636363636364)" d="M0,3.989422804014327A3.989422804014327,3.989422804014327 0 1,1 0,-3.989422804014327A3.989422804014327,3.989422804014327 0 1,1 0,3.989422804014327Z" style="fill: rgb(0, 0, 0);"></path><path transform="translate(397.3038049940547,210.5)" d="M0,3.989422804014327A3.989422804014327,3.989422804014327 0 1,1 0,-3.989422804014327A3.989422804014327,3.989422804014327 0 1,1 0,3.989422804014327Z" style="fill: rgb(0, 0, 0);"></path><path transform="translate(102.3692033293698,210.5)" d="M0,3.989422804014327A3.989422804014327,3.989422804014327 0 1,1 0,-3.989422804014327A3.989422804014327,3.989422804014327 0 1,1 0,3.989422804014327Z" style="fill: rgb(0, 0, 0);"></path><path transform="translate(90.93043995243757,19.136363636363665)" d="M0,3.989422804014327A3.989422804014327,3.989422804014327 0 1,1 0,-3.989422804014327A3.989422804014327,3.989422804014327 0 1,1 0,3.989422804014327Z" style="fill: rgb(0, 0, 0);"></path><path transform="translate(93.86741973840665,210.5)" d="M0,3.989422804014327A3.989422804014327,3.989422804014327 0 1,1 0,-3.989422804014327A3.989422804014327,3.989422804014327 0 1,1 0,3.989422804014327Z" style="fill: rgb(0, 0, 0);"></path><path transform="translate(197.1254458977408,0)" d="M0,3.989422804014327A3.989422804014327,3.989422804014327 0 1,1 0,-3.989422804014327A3.989422804014327,3.989422804014327 0 1,1 0,3.989422804014327Z" style="fill: rgb(0, 0, 0);"></path><path transform="translate(72.12346413000397,306.1818181818182)" d="M0,3.989422804014327A3.989422804014327,3.989422804014327 0 1,1 0,-3.989422804014327A3.989422804014327,3.989422804014327 0 1,1 0,3.989422804014327Z" style="fill: rgb(0, 0, 0);"></path><path transform="translate(161.67558462148236,114.81818181818181)" d="M0,3.989422804014327A3.989422804014327,3.989422804014327 0 1,1 0,-3.989422804014327A3.989422804014327,3.989422804014327 0 1,1 0,3.989422804014327Z" style="fill: rgb(0, 0, 0);"></path><path transform="translate(117.15715418152992,401.8636363636364)" d="M0,3.989422804014327A3.989422804014327,3.989422804014327 0 1,1 0,-3.989422804014327A3.989422804014327,3.989422804014327 0 1,1 0,3.989422804014327Z" style="fill: rgb(0, 0, 0);"></path><path transform="translate(131.9966309948474,210.5)" d="M0,3.989422804014327A3.989422804014327,3.989422804014327 0 1,1 0,-3.989422804014327A3.989422804014327,3.989422804014327 0 1,1 0,3.989422804014327Z" style="fill: rgb(0, 0, 0);"></path><path transform="translate(106.28517637732858,210.5)" d="M0,3.989422804014327A3.989422804014327,3.989422804014327 0 1,1 0,-3.989422804014327A3.989422804014327,3.989422804014327 0 1,1 0,3.989422804014327Z" style="fill: rgb(0, 0, 0);"></path><path transform="translate(90.87891399128023,0)" d="M0,3.989422804014327A3.989422804014327,3.989422804014327 0 1,1 0,-3.989422804014327A3.989422804014327,3.989422804014327 0 1,1 0,3.989422804014327Z" style="fill: rgb(0, 0, 0);"></path><path transform="translate(77.89437177962743,306.1818181818182)" d="M0,3.989422804014327A3.989422804014327,3.989422804014327 0 1,1 0,-3.989422804014327A3.989422804014327,3.989422804014327 0 1,1 0,3.989422804014327Z" style="fill: rgb(0, 0, 0);"></path><path transform="translate(362.2146254458977,19.136363636363665)" d="M0,3.989422804014327A3.989422804014327,3.989422804014327 0 1,1 0,-3.989422804014327A3.989422804014327,3.989422804014327 0 1,1 0,3.989422804014327Z" style="fill: rgb(0, 0, 0);"></path><path transform="translate(187.2839873166865,210.5)" d="M0,3.989422804014327A3.989422804014327,3.989422804014327 0 1,1 0,-3.989422804014327A3.989422804014327,3.989422804014327 0 1,1 0,3.989422804014327Z" style="fill: rgb(0, 0, 0);"></path><path transform="translate(364.53329369797865,114.81818181818181)" d="M0,3.989422804014327A3.989422804014327,3.989422804014327 0 1,1 0,-3.989422804014327A3.989422804014327,3.989422804014327 0 1,1 0,3.989422804014327Z" style="fill: rgb(0, 0, 0);"></path><path transform="translate(183.88327388030123,114.81818181818181)" d="M0,3.989422804014327A3.989422804014327,3.989422804014327 0 1,1 0,-3.989422804014327A3.989422804014327,3.989422804014327 0 1,1 0,3.989422804014327Z" style="fill: rgb(0, 0, 0);"></path><path transform="translate(99.38069758224336,19.136363636363665)" d="M0,3.989422804014327A3.989422804014327,3.989422804014327 0 1,1 0,-3.989422804014327A3.989422804014327,3.989422804014327 0 1,1 0,3.989422804014327Z" style="fill: rgb(0, 0, 0);"></path><path transform="translate(124.62841854934601,114.81818181818181)" d="M0,3.989422804014327A3.989422804014327,3.989422804014327 0 1,1 0,-3.989422804014327A3.989422804014327,3.989422804014327 0 1,1 0,3.989422804014327Z" style="fill: rgb(0, 0, 0);"></path><path transform="translate(281.7826000792707,114.81818181818181)" d="M0,3.989422804014327A3.989422804014327,3.989422804014327 0 1,1 0,-3.989422804014327A3.989422804014327,3.989422804014327 0 1,1 0,3.989422804014327Z" style="fill: rgb(0, 0, 0);"></path><path transform="translate(84.28359096313912,210.5)" d="M0,3.989422804014327A3.989422804014327,3.989422804014327 0 1,1 0,-3.989422804014327A3.989422804014327,3.989422804014327 0 1,1 0,3.989422804014327Z" style="fill: rgb(0, 0, 0);"></path><path transform="translate(161.7271105826397,19.136363636363665)" d="M0,3.989422804014327A3.989422804014327,3.989422804014327 0 1,1 0,-3.989422804014327A3.989422804014327,3.989422804014327 0 1,1 0,3.989422804014327Z" style="fill: rgb(0, 0, 0);"></path><path transform="translate(94.74336107808165,114.81818181818181)" d="M0,3.989422804014327A3.989422804014327,3.989422804014327 0 1,1 0,-3.989422804014327A3.989422804014327,3.989422804014327 0 1,1 0,3.989422804014327Z" style="fill: rgb(0, 0, 0);"></path><path transform="translate(68.77427665477606,114.81818181818181)" d="M0,3.989422804014327A3.989422804014327,3.989422804014327 0 1,1 0,-3.989422804014327A3.989422804014327,3.989422804014327 0 1,1 0,3.989422804014327Z" style="fill: rgb(0, 0, 0);"></path><path transform="translate(532.2502972651605,0)" d="M0,3.989422804014327A3.989422804014327,3.989422804014327 0 1,1 0,-3.989422804014327A3.989422804014327,3.989422804014327 0 1,1 0,3.989422804014327Z" style="fill: rgb(0, 0, 0);"></path><path transform="translate(63.62168053904082,210.5)" d="M0,3.989422804014327A3.989422804014327,3.989422804014327 0 1,1 0,-3.989422804014327A3.989422804014327,3.989422804014327 0 1,1 0,3.989422804014327Z" style="fill: rgb(0, 0, 0);"></path><path transform="translate(58.623662306777646,19.136363636363665)" d="M0,3.989422804014327A3.989422804014327,3.989422804014327 0 1,1 0,-3.989422804014327A3.989422804014327,3.989422804014327 0 1,1 0,3.989422804014327Z" style="fill: rgb(0, 0, 0);"></path><path transform="translate(166.87970669837495,19.136363636363665)" d="M0,3.989422804014327A3.989422804014327,3.989422804014327 0 1,1 0,-3.989422804014327A3.989422804014327,3.989422804014327 0 1,1 0,3.989422804014327Z" style="fill: rgb(0, 0, 0);"></path><path transform="translate(56.04736424891003,19.136363636363665)" d="M0,3.989422804014327A3.989422804014327,3.989422804014327 0 1,1 0,-3.989422804014327A3.989422804014327,3.989422804014327 0 1,1 0,3.989422804014327Z" style="fill: rgb(0, 0, 0);"></path><path transform="translate(157.60503369005153,19.136363636363665)" d="M0,3.989422804014327A3.989422804014327,3.989422804014327 0 1,1 0,-3.989422804014327A3.989422804014327,3.989422804014327 0 1,1 0,3.989422804014327Z" style="fill: rgb(0, 0, 0);"></path><path transform="translate(230.82342449464923,114.81818181818181)" d="M0,3.989422804014327A3.989422804014327,3.989422804014327 0 1,1 0,-3.989422804014327A3.989422804014327,3.989422804014327 0 1,1 0,3.989422804014327Z" style="fill: rgb(0, 0, 0);"></path><path transform="translate(141.01367419738406,19.136363636363665)" d="M0,3.989422804014327A3.989422804014327,3.989422804014327 0 1,1 0,-3.989422804014327A3.989422804014327,3.989422804014327 0 1,1 0,3.989422804014327Z" style="fill: rgb(0, 0, 0);"></path><path transform="translate(104.94550138723741,114.81818181818181)" d="M0,3.989422804014327A3.989422804014327,3.989422804014327 0 1,1 0,-3.989422804014327A3.989422804014327,3.989422804014327 0 1,1 0,3.989422804014327Z" style="fill: rgb(0, 0, 0);"></path><path transform="translate(215.88089575901705,114.81818181818181)" d="M0,3.989422804014327A3.989422804014327,3.989422804014327 0 1,1 0,-3.989422804014327A3.989422804014327,3.989422804014327 0 1,1 0,3.989422804014327Z" style="fill: rgb(0, 0, 0);"></path><path transform="translate(480.98196591359493,19.136363636363665)" d="M0,3.989422804014327A3.989422804014327,3.989422804014327 0 1,1 0,-3.989422804014327A3.989422804014327,3.989422804014327 0 1,1 0,3.989422804014327Z" style="fill: rgb(0, 0, 0);"></path></g></g></g></g></svg>