<svg class="marks" width="769" height="473" xmlns="http://www.w3.org/2000/svg"><g transform="translate(55,6)"><g id="g24" class="type-group"><g transform="translate(0,0)"><rect class="background" width="692" height="379" style="pointer-events: none; fill: none;"></rect><g id="g25" class="type-group"><g transform="translate(0,379)"><rect class="background" width="0" height="0" style="pointer-events: none; fill: none;"></rect><g id="g26" class="type-rule" style="pointer-events: none;"><line x1="7.107613135553105" y1="-379" x2="7.107613135553105" y2="0" style="fill: none; stroke: rgb(216, 216, 216); stroke-width: 1; opacity: 1;"></line><line x1="90.59260801706844" y1="-379" x2="90.59260801706844" y2="0" style="fill: none; stroke: rgb(216, 216, 216); stroke-width: 1; opacity: 1;"></line><line x1="174.07760289858373" y1="-379" x2="174.07760289858373" y2="0" style="fill: none; stroke: rgb(216, 216, 216); stroke-width: 1; opacity: 1;"></line><line x1="257.56259778009905" y1="-379" x2="257.56259778009905" y2="0" style="fill: none; stroke: rgb(216, 216, 216); stroke-width: 1; opacity: 1;"></line><line x1="341.0475926616144" y1="-379" x2="341.0475926616144" y2="0" style="fill: none; stroke: rgb(216, 216, 216); stroke-width: 1; opacity: 1;"></line><line x1="424.5325875431297" y1="-379" x2="424.5325875431297" y2="0" style="fill: none; stroke: rgb(216, 216, 216); stroke-width: 1; opacity: 1;"></line><line x1="508.017582424645" y1="-379" x2="508.017582424645" y2="0" style="fill: none; stroke: rgb(216, 216, 216); stroke-width: 1; opacity: 1;"></line><line x1="591.5025773061603" y1="-379" x2="591.5025773061603" y2="0" style="fill: none; stroke: rgb(216, 216, 216); stroke-width: 1; opacity: 1;"></line><line x1="674.9875721876757" y1="-379" x2="674.9875721876757" y2="0" style="fill: none; stroke: rgb(216, 216, 216); stroke-width: 1; opacity: 1;"></line></g><g id="g27" class="type-rule" style="pointer-events: none;"><line x1="7.107613135553105" y1="0" x2="7.107613135553105" y2="6" style="fill: none; stroke: rgb(0, 0, 0); stroke-width: 1; opacity: 1;"></line><line x1="90.59260801706844" y1="0" x2="90.59260801706844" y2="6" style="fill: none; stroke: rgb(0, 0, 0); stroke-width: 1; opacity: 1;"></line><line x1="174.07760289858373" y1="0" x2="174.07760289858373" y2="6" style="fill: none; stroke: rgb(0, 0, 0); stroke-width: 1; opacity: 1;"></line><line x1="257.56259778009905" y1="0" x2="257.56259778009905" y2="6" style="fill: none; stroke: rgb(0, 0, 0); stroke-width: 1; opacity: 1;"></line><line x1="341.0475926616144" y1="0" x2="341.0475926616144" y2="6" style="fill: none; stroke: rgb(0, 0, 0); stroke-width: 1; opacity: 1;"></line><line x1="424.5325875431297" y1="0" x2="424.5325875431297" y2="6" style="fill: none; stroke: rgb(0, 0, 0); stroke-width: 1; opacity: 1;"></line><line x1="508.017582424645" y1="0" x2="508.017582424645" y2="6" style="fill: none; stroke: rgb(0, 0, 0); stroke-width: 1; opacity: 1;"></line><line x1="591.5025773061603" y1="0" x2="591.5025773061603" y2="6" style="fill: none; stroke: rgb(0, 0, 0); stroke-width: 1; opacity: 1;"></line><line x1="674.9875721876757" y1="0" x2="674.9875721876757" y2="6" style="fill: none; stroke: rgb(0, 0, 0); stroke-width: 1; opacity: 1;"></line></g><g id="g28" class="type-rule" style="pointer-events: none;"></g><g id="g29" class="type-text"><text x="7.107613135553105" y="9" text-anchor="middle" dy=".9em" style="font: 11px sans-serif; fill: rgb(0, 0, 0); opacity: 1;">4,000,000</text><text x="90.59260801706844" y="9" text-anchor="middle" dy=".9em" style="font: 11px sans-serif; fill: rgb(0, 0, 0); opacity: 1;">6,000,000</text><text x="174.07760289858373" y="9" text-anchor="middle" dy=".9em" style="font: 11px sans-serif; fill: rgb(0, 0, 0); opacity: 1;">8,000,000</text><text x="257.56259778009905" y="9" text-anchor="middle" dy=".9em" style="font: 11px sans-serif; fill: rgb(0, 0, 0); opacity: 1;">10,000,000</text><text x="341.0475926616144" y="9" text-anchor="middle" dy=".9em" style="font: 11px sans-serif; fill: rgb(0, 0, 0); opacity: 1;">12,000,000</text><text x="424.5325875431297" y="9" text-anchor="middle" dy=".9em" style="font: 11px sans-serif; fill: rgb(0, 0, 0); opacity: 1;">14,000,000</text><text x="508.017582424645" y="9" text-anchor="middle" dy=".9em" style="font: 11px sans-serif; fill: rgb(0, 0, 0); opacity: 1;">16,000,000</text><text x="591.5025773061603" y="9" text-anchor="middle" dy=".9em" style="font: 11px sans-serif; fill: rgb(0, 0, 0); opacity: 1;">18,000,000</text><text x="674.9875721876757" y="9" text-anchor="middle" dy=".9em" style="font: 11px sans-serif; fill: rgb(0, 0, 0); opacity: 1;">20,000,000</text></g><g id="g30" class="type-path" style="pointer-events: none;"><path transform="translate(0.5,0.5)" d="M0,6V0H692V6" style="fill: none; stroke: rgb(0, 0, 0); stroke-width: 1;"></path></g><g id="g31" class="type-text"><text x="346" y="35" text-anchor="middle" dy=".35em" style="font: bold 11px sans-serif; fill: rgb(0, 0, 0);">pbi</text></g></g></g><g id="g32" class="type-group"><g transform="translate(0,419)"><rect class="background" width="0" height="0" style="pointer-events: none; fill: none;"></rect><g id="g33" class="type-rule" style="pointer-events: none;"></g><g id="g34" class="type-rule" style="pointer-events: none;"><line x1="7.107613135553105" y1="0" x2="7.107613135553105" y2="6" style="fill: none; stroke: rgb(0, 0, 0); stroke-width: 1; opacity: 1;"></line><line x1="90.59260801706844" y1="0" x2="90.59260801706844" y2="6" style="fill: none; stroke: rgb(0, 0, 0); stroke-width: 1; opacity: 1;"></line><line x1="174.07760289858373" y1="0" x2="174.07760289858373" y2="6" style="fill: none; stroke: rgb(0, 0, 0); stroke-width: 1; opacity: 1;"></line><line x1="257.56259778009905" y1="0" x2="257.56259778009905" y2="6" style="fill: none; stroke: rgb(0, 0, 0); stroke-width: 1; opacity: 1;"></line><line x1="341.0475926616144" y1="0" x2="341.0475926616144" y2="6" style="fill: none; stroke: rgb(0, 0, 0); stroke-width: 1; opacity: 1;"></line><line x1="424.5325875431297" y1="0" x2="424.5325875431297" y2="6" style="fill: none; stroke: rgb(0, 0, 0); stroke-width: 1; opacity: 1;"></line><line x1="508.017582424645" y1="0" x2="508.017582424645" y2="6" style="fill: none; stroke: rgb(0, 0, 0); stroke-width: 1; opacity: 1;"></line><line x1="591.5025773061603" y1="0" x2="591.5025773061603" y2="6" style="fill: none; stroke: rgb(0, 0, 0); stroke-width: 1; opacity: 1;"></line><line x1="674.9875721876757" y1="0" x2="674.9875721876757" y2="6" style="fill: none; stroke: rgb(0, 0, 0); stroke-width: 1; opacity: 1;"></line></g><g id="g35" class="type-rule" style="pointer-events: none;"></g><g id="g36" class="type-text"><text x="7.107613135553105" y="9" text-anchor="middle" dy=".9em" style="font: 11px sans-serif; fill: rgb(0, 0, 0); opacity: 1;">4,000,000</text><text x="90.59260801706844" y="9" text-anchor="middle" dy=".9em" style="font: 11px sans-serif; fill: rgb(0, 0, 0); opacity: 1;">6,000,000</text><text x="174.07760289858373" y="9" text-anchor="middle" dy=".9em" style="font: 11px sans-serif; fill: rgb(0, 0, 0); opacity: 1;">8,000,000</text><text x="257.56259778009905" y="9" text-anchor="middle" dy=".9em" style="font: 11px sans-serif; fill: rgb(0, 0, 0); opacity: 1;">10,000,000</text><text x="341.0475926616144" y="9" text-anchor="middle" dy=".9em" style="font: 11px sans-serif; fill: rgb(0, 0, 0); opacity: 1;">12,000,000</text><text x="424.5325875431297" y="9" text-anchor="middle" dy=".9em" style="font: 11px sans-serif; fill: rgb(0, 0, 0); opacity: 1;">14,000,000</text><text x="508.017582424645" y="9" text-anchor="middle" dy=".9em" style="font: 11px sans-serif; fill: rgb(0, 0, 0); opacity: 1;">16,000,000</text><text x="591.5025773061603" y="9" text-anchor="middle" dy=".9em" style="font: 11px sans-serif; fill: rgb(0, 0, 0); opacity: 1;">18,000,000</text><text x="674.9875721876757" y="9" text-anchor="middle" dy=".9em" style="font: 11px sans-serif; fill: rgb(0, 0, 0); opacity: 1;">20,000,000</text></g><g id="g37" class="type-path" style="pointer-events: none;"><path transform="translate(0.5,0.5)" d="M0,6V0H692V6" style="fill: none; stroke: rgb(0, 0, 0); stroke-width: 1;"></path></g><g id="g38" class="type-text"><text x="346" y="35" text-anchor="middle" dy=".35em" style="font: bold 11px sans-serif; fill: rgb(0, 0, 0);">pbi</text></g></g></g><g id="g39" class="type-group"><g transform="translate(0,0)"><rect class="background" width="0" height="0" style="pointer-events: none; fill: none;"></rect><g id="g40" class="type-rule" style="pointer-events: none;"><line x1="0" y1="337.6814913735763" x2="692" y2="337.6814913735763" style="fill: none; stroke: rgb(216, 216, 216); stroke-width: 1; opacity: 1;"></line><line x1="0" y1="295.5056696649074" x2="692" y2="295.5056696649074" style="fill: none; stroke: rgb(216, 216, 216); stroke-width: 1; opacity: 1;"></line><line x1="0" y1="253.32984795623847" x2="692" y2="253.32984795623847" style="fill: none; stroke: rgb(216, 216, 216); stroke-width: 1; opacity: 1;"></line><line x1="0" y1="211.15402624756956" x2="692" y2="211.15402624756956" style="fill: none; stroke: rgb(216, 216, 216); stroke-width: 1; opacity: 1;"></line><line x1="0" y1="168.97820453890066" x2="692" y2="168.97820453890066" style="fill: none; stroke: rgb(216, 216, 216); stroke-width: 1; opacity: 1;"></line><line x1="0" y1="126.80238283023175" x2="692" y2="126.80238283023175" style="fill: none; stroke: rgb(216, 216, 216); stroke-width: 1; opacity: 1;"></line><line x1="0" y1="84.62656112156289" x2="692" y2="84.62656112156289" style="fill: none; stroke: rgb(216, 216, 216); stroke-width: 1; opacity: 1;"></line><line x1="0" y1="42.450739412893974" x2="692" y2="42.450739412893974" style="fill: none; stroke: rgb(216, 216, 216); stroke-width: 1; opacity: 1;"></line></g><g id="g41" class="type-rule" style="pointer-events: none;"><line x1="-6" y1="337.6814913735763" x2="0" y2="337.6814913735763" style="fill: none; stroke: rgb(0, 0, 0); stroke-width: 1; opacity: 1;"></line><line x1="-6" y1="295.5056696649074" x2="0" y2="295.5056696649074" style="fill: none; stroke: rgb(0, 0, 0); stroke-width: 1; opacity: 1;"></line><line x1="-6" y1="253.32984795623847" x2="0" y2="253.32984795623847" style="fill: none; stroke: rgb(0, 0, 0); stroke-width: 1; opacity: 1;"></line><line x1="-6" y1="211.15402624756956" x2="0" y2="211.15402624756956" style="fill: none; stroke: rgb(0, 0, 0); stroke-width: 1; opacity: 1;"></line><line x1="-6" y1="168.97820453890066" x2="0" y2="168.97820453890066" style="fill: none; stroke: rgb(0, 0, 0); stroke-width: 1; opacity: 1;"></line><line x1="-6" y1="126.80238283023175" x2="0" y2="126.80238283023175" style="fill: none; stroke: rgb(0, 0, 0); stroke-width: 1; opacity: 1;"></line><line x1="-6" y1="84.62656112156289" x2="0" y2="84.62656112156289" style="fill: none; stroke: rgb(0, 0, 0); stroke-width: 1; opacity: 1;"></line><line x1="-6" y1="42.450739412893974" x2="0" y2="42.450739412893974" style="fill: none; stroke: rgb(0, 0, 0); stroke-width: 1; opacity: 1;"></line></g><g id="g42" class="type-rule" style="pointer-events: none;"></g><g id="g43" class="type-text"><text x="-9" y="337.6814913735763" text-anchor="end" dy=".35em" style="font: 11px sans-serif; fill: rgb(0, 0, 0); opacity: 1;">80,000</text><text x="-9" y="295.5056696649074" text-anchor="end" dy=".35em" style="font: 11px sans-serif; fill: rgb(0, 0, 0); opacity: 1;">100,000</text><text x="-9" y="253.32984795623847" text-anchor="end" dy=".35em" style="font: 11px sans-serif; fill: rgb(0, 0, 0); opacity: 1;">120,000</text><text x="-9" y="211.15402624756956" text-anchor="end" dy=".35em" style="font: 11px sans-serif; fill: rgb(0, 0, 0); opacity: 1;">140,000</text><text x="-9" y="168.97820453890066" text-anchor="end" dy=".35em" style="font: 11px sans-serif; fill: rgb(0, 0, 0); opacity: 1;">160,000</text><text x="-9" y="126.80238283023175" text-anchor="end" dy=".35em" style="font: 11px sans-serif; fill: rgb(0, 0, 0); opacity: 1;">180,000</text><text x="-9" y="84.62656112156289" text-anchor="end" dy=".35em" style="font: 11px sans-serif; fill: rgb(0, 0, 0); opacity: 1;">200,000</text><text x="-9" y="42.450739412893974" text-anchor="end" dy=".35em" style="font: 11px sans-serif; fill: rgb(0, 0, 0); opacity: 1;">220,000</text></g><g id="g44" class="type-path" style="pointer-events: none;"><path transform="translate(0.5,0.5)" d="M-6,0H0V379H-6" style="fill: none; stroke: rgb(0, 0, 0); stroke-width: 1;"></path></g><g id="g45" class="type-text"><text x="-35" y="189" text-anchor="middle" transform="rotate(-90 -35,189)" dy=".35em" style="font: bold 11px sans-serif; fill: rgb(0, 0, 0);">pea</text></g></g></g><g id="g46" class="type-symbol"><path transform="translate(31.454545454545585,361.7727272727272)" d="M0,3.989422804014327A3.989422804014327,3.989422804014327 0 1,1 0,-3.989422804014327A3.989422804014327,3.989422804014327 0 1,1 0,3.989422804014327Z" style="fill: rgb(0, 0, 0);"></path><path transform="translate(56.96668644692354,358.49619312373517)" d="M0,3.989422804014327A3.989422804014327,3.989422804014327 0 1,1 0,-3.989422804014327A3.989422804014327,3.989422804014327 0 1,1 0,3.989422804014327Z" style="fill: rgb(0, 0, 0);"></path><path transform="translate(70.85054856261638,358.67429011631395)" d="M0,3.989422804014327A3.989422804014327,3.989422804014327 0 1,1 0,-3.989422804014327A3.989422804014327,3.989422804014327 0 1,1 0,3.989422804014327Z" style="fill: rgb(0, 0, 0);"></path><path transform="translate(95.08657669160422,346.88808100723605)" d="M0,3.989422804014327A3.989422804014327,3.989422804014327 0 1,1 0,-3.989422804014327A3.989422804014327,3.989422804014327 0 1,1 0,3.989422804014327Z" style="fill: rgb(0, 0, 0);"></path><path transform="translate(128.72710318119823,327.2647841392653)" d="M0,3.989422804014327A3.989422804014327,3.989422804014327 0 1,1 0,-3.989422804014327A3.989422804014327,3.989422804014327 0 1,1 0,3.989422804014327Z" style="fill: rgb(0, 0, 0);"></path><path transform="translate(141.53319935790267,301.736192732731)" d="M0,3.989422804014327A3.989422804014327,3.989422804014327 0 1,1 0,-3.989422804014327A3.989422804014327,3.989422804014327 0 1,1 0,3.989422804014327Z" style="fill: rgb(0, 0, 0);"></path><path transform="translate(148.946861473575,280.003425279978)" d="M0,3.989422804014327A3.989422804014327,3.989422804014327 0 1,1 0,-3.989422804014327A3.989422804014327,3.989422804014327 0 1,1 0,3.989422804014327Z" style="fill: rgb(0, 0, 0);"></path><path transform="translate(182.29672179736627,242.63384305816777)" d="M0,3.989422804014327A3.989422804014327,3.989422804014327 0 1,1 0,-3.989422804014327A3.989422804014327,3.989422804014327 0 1,1 0,3.989422804014327Z" style="fill: rgb(0, 0, 0);"></path><path transform="translate(191.78876686353922,215.1464541899039)" d="M0,3.989422804014327A3.989422804014327,3.989422804014327 0 1,1 0,-3.989422804014327A3.989422804014327,3.989422804014327 0 1,1 0,3.989422804014327Z" style="fill: rgb(0, 0, 0);"></path><path transform="translate(155.40305056102503,240.035929595975)" d="M0,3.989422804014327A3.989422804014327,3.989422804014327 0 1,1 0,-3.989422804014327A3.989422804014327,3.989422804014327 0 1,1 0,3.989422804014327Z" style="fill: rgb(0, 0, 0);"></path><path transform="translate(218.54429892699696,200.71037334938978)" d="M0,3.989422804014327A3.989422804014327,3.989422804014327 0 1,1 0,-3.989422804014327A3.989422804014327,3.989422804014327 0 1,1 0,3.989422804014327Z" style="fill: rgb(0, 0, 0);"></path><path transform="translate(248.0898207785317,151.48416011175362)" d="M0,3.989422804014327A3.989422804014327,3.989422804014327 0 1,1 0,-3.989422804014327A3.989422804014327,3.989422804014327 0 1,1 0,3.989422804014327Z" style="fill: rgb(0, 0, 0);"></path><path transform="translate(238.3686346798176,74.6160890588477)" d="M0,3.989422804014327A3.989422804014327,3.989422804014327 0 1,1 0,-3.989422804014327A3.989422804014327,3.989422804014327 0 1,1 0,3.989422804014327Z" style="fill: rgb(0, 0, 0);"></path><path transform="translate(244.86409436744296,72.8464618729896)" d="M0,3.989422804014327A3.989422804014327,3.989422804014327 0 1,1 0,-3.989422804014327A3.989422804014327,3.989422804014327 0 1,1 0,3.989422804014327Z" style="fill: rgb(0, 0, 0);"></path><path transform="translate(265.7059426806937,94.65048303341851)" d="M0,3.989422804014327A3.989422804014327,3.989422804014327 0 1,1 0,-3.989422804014327A3.989422804014327,3.989422804014327 0 1,1 0,3.989422804014327Z" style="fill: rgb(0, 0, 0);"></path><path transform="translate(290.25667933461625,90.51479224970184)" d="M0,3.989422804014327A3.989422804014327,3.989422804014327 0 1,1 0,-3.989422804014327A3.989422804014327,3.989422804014327 0 1,1 0,3.989422804014327Z" style="fill: rgb(0, 0, 0);"></path><path transform="translate(328.35481091821197,130.09496371893337)" d="M0,3.989422804014327A3.989422804014327,3.989422804014327 0 1,1 0,-3.989422804014327A3.989422804014327,3.989422804014327 0 1,1 0,3.989422804014327Z" style="fill: rgb(0, 0, 0);"></path><path transform="translate(379.4207122277909,105.00134349019547)" d="M0,3.989422804014327A3.989422804014327,3.989422804014327 0 1,1 0,-3.989422804014327A3.989422804014327,3.989422804014327 0 1,1 0,3.989422804014327Z" style="fill: rgb(0, 0, 0);"></path><path transform="translate(395.8999355146999,80.410168298668)" d="M0,3.989422804014327A3.989422804014327,3.989422804014327 0 1,1 0,-3.989422804014327A3.989422804014327,3.989422804014327 0 1,1 0,3.989422804014327Z" style="fill: rgb(0, 0, 0);"></path><path transform="translate(417.72940714230555,63.76829198278838)" d="M0,3.989422804014327A3.989422804014327,3.989422804014327 0 1,1 0,-3.989422804014327A3.989422804014327,3.989422804014327 0 1,1 0,3.989422804014327Z" style="fill: rgb(0, 0, 0);"></path><path transform="translate(368.94970955462793,130.247755218488)" d="M0,3.989422804014327A3.989422804014327,3.989422804014327 0 1,1 0,-3.989422804014327A3.989422804014327,3.989422804014327 0 1,1 0,3.989422804014327Z" style="fill: rgb(0, 0, 0);"></path><path transform="translate(521.8040460804842,48.71029350466107)" d="M0,3.989422804014327A3.989422804014327,3.989422804014327 0 1,1 0,-3.989422804014327A3.989422804014327,3.989422804014327 0 1,1 0,3.989422804014327Z" style="fill: rgb(0, 0, 0);"></path><path transform="translate(552.2133946638207,17.22727272727225)" d="M0,3.989422804014327A3.989422804014327,3.989422804014327 0 1,1 0,-3.989422804014327A3.989422804014327,3.989422804014327 0 1,1 0,3.989422804014327Z" style="fill: rgb(0, 0, 0);"></path><path transform="translate(660.5454545454514,32.81018445308269)" d="M0,3.989422804014327A3.989422804014327,3.989422804014327 0 1,1 0,-3.989422804014327A3.989422804014327,3.989422804014327 0 1,1 0,3.989422804014327Z" style="fill: rgb(0, 0, 0);"></path></g></g></g></g></svg>