<svg class="marks" width="769" height="473" xmlns="http://www.w3.org/2000/svg"><g transform="translate(46,10)"><g id="g17" class="type-group"><g transform="translate(0,0)"><rect class="background" width="717" height="415" style="pointer-events: none; fill: none;"></rect><g id="g18" class="type-group"><g transform="translate(0,415)"><rect class="background" width="0" height="0" style="pointer-events: none; fill: none;"></rect><g id="g19" class="type-rule" style="pointer-events: none;"><line x1="69.72500270241055" y1="-415" x2="69.72500270241055" y2="0" style="fill: none; stroke: rgb(216, 216, 216); stroke-width: 1; opacity: 1;"></line><line x1="173.0651821424711" y1="-415" x2="173.0651821424711" y2="0" style="fill: none; stroke: rgb(216, 216, 216); stroke-width: 1; opacity: 1;"></line><line x1="276.4053615825316" y1="-415" x2="276.4053615825316" y2="0" style="fill: none; stroke: rgb(216, 216, 216); stroke-width: 1; opacity: 1;"></line><line x1="379.74554102259214" y1="-415" x2="379.74554102259214" y2="0" style="fill: none; stroke: rgb(216, 216, 216); stroke-width: 1; opacity: 1;"></line><line x1="483.0857204626527" y1="-415" x2="483.0857204626527" y2="0" style="fill: none; stroke: rgb(216, 216, 216); stroke-width: 1; opacity: 1;"></line><line x1="586.4258999027132" y1="-415" x2="586.4258999027132" y2="0" style="fill: none; stroke: rgb(216, 216, 216); stroke-width: 1; opacity: 1;"></line><line x1="689.7660793427738" y1="-415" x2="689.7660793427738" y2="0" style="fill: none; stroke: rgb(216, 216, 216); stroke-width: 1; opacity: 1;"></line></g><g id="g20" class="type-rule" style="pointer-events: none;"><line x1="69.72500270241055" y1="0" x2="69.72500270241055" y2="6" style="fill: none; stroke: rgb(0, 0, 0); stroke-width: 1; opacity: 1;"></line><line x1="173.0651821424711" y1="0" x2="173.0651821424711" y2="6" style="fill: none; stroke: rgb(0, 0, 0); stroke-width: 1; opacity: 1;"></line><line x1="276.4053615825316" y1="0" x2="276.4053615825316" y2="6" style="fill: none; stroke: rgb(0, 0, 0); stroke-width: 1; opacity: 1;"></line><line x1="379.74554102259214" y1="0" x2="379.74554102259214" y2="6" style="fill: none; stroke: rgb(0, 0, 0); stroke-width: 1; opacity: 1;"></line><line x1="483.0857204626527" y1="0" x2="483.0857204626527" y2="6" style="fill: none; stroke: rgb(0, 0, 0); stroke-width: 1; opacity: 1;"></line><line x1="586.4258999027132" y1="0" x2="586.4258999027132" y2="6" style="fill: none; stroke: rgb(0, 0, 0); stroke-width: 1; opacity: 1;"></line><line x1="689.7660793427738" y1="0" x2="689.7660793427738" y2="6" style="fill: none; stroke: rgb(0, 0, 0); stroke-width: 1; opacity: 1;"></line></g><g id="g21" class="type-rule" style="pointer-events: none;"></g><g id="g22" class="type-text"><text x="69.72500270241055" y="9" text-anchor="middle" dy=".9em" style="font: 11px sans-serif; fill: rgb(0, 0, 0); opacity: 1;">4,000</text><text x="173.0651821424711" y="9" text-anchor="middle" dy=".9em" style="font: 11px sans-serif; fill: rgb(0, 0, 0); opacity: 1;">6,000</text><text x="276.4053615825316" y="9" text-anchor="middle" dy=".9em" style="font: 11px sans-serif; fill: rgb(0, 0, 0); opacity: 1;">8,000</text><text x="379.74554102259214" y="9" text-anchor="middle" dy=".9em" style="font: 11px sans-serif; fill: rgb(0, 0, 0); opacity: 1;">10,000</text><text x="483.0857204626527" y="9" text-anchor="middle" dy=".9em" style="font: 11px sans-serif; fill: rgb(0, 0, 0); opacity: 1;">12,000</text><text x="586.4258999027132" y="9" text-anchor="middle" dy=".9em" style="font: 11px sans-serif; fill: rgb(0, 0, 0); opacity: 1;">14,000</text><text x="689.7660793427738" y="9" text-anchor="middle" dy=".9em" style="font: 11px sans-serif; fill: rgb(0, 0, 0); opacity: 1;">16,000</text></g><g id="g23" class="type-path" style="pointer-events: none;"><path transform="translate(0.5,0.5)" d="M0,6V0H717V6" style="fill: none; stroke: rgb(0, 0, 0); stroke-width: 1;"></path></g><g id="g24" class="type-text"><text x="358" y="35" text-anchor="middle" dy=".35em" style="font: bold 11px sans-serif; fill: rgb(0, 0, 0);">price</text></g></g></g><g id="g25" class="type-group"><g transform="translate(0,0)"><rect class="background" width="0" height="0" style="pointer-events: none; fill: none;"></rect><g id="g26" class="type-rule" style="pointer-events: none;"><line x1="0" y1="396.6363636363636" x2="717" y2="396.6363636363636" style="fill: none; stroke: rgb(216, 216, 216); stroke-width: 1; opacity: 1;"></line><line x1="0" y1="349.47727272727275" x2="717" y2="349.47727272727275" style="fill: none; stroke: rgb(216, 216, 216); stroke-width: 1; opacity: 1;"></line><line x1="0" y1="302.3181818181818" x2="717" y2="302.3181818181818" style="fill: none; stroke: rgb(216, 216, 216); stroke-width: 1; opacity: 1;"></line><line x1="0" y1="255.15909090909096" x2="717" y2="255.15909090909096" style="fill: none; stroke: rgb(216, 216, 216); stroke-width: 1; opacity: 1;"></line><line x1="0" y1="208" x2="717" y2="208" style="fill: none; stroke: rgb(216, 216, 216); stroke-width: 1; opacity: 1;"></line><line x1="0" y1="160.8409090909091" x2="717" y2="160.8409090909091" style="fill: none; stroke: rgb(216, 216, 216); stroke-width: 1; opacity: 1;"></line><line x1="0" y1="113.68181818181817" x2="717" y2="113.68181818181817" style="fill: none; stroke: rgb(216, 216, 216); stroke-width: 1; opacity: 1;"></line><line x1="0" y1="66.52272727272731" x2="717" y2="66.52272727272731" style="fill: none; stroke: rgb(216, 216, 216); stroke-width: 1; opacity: 1;"></line><line x1="0" y1="19.36363636363639" x2="717" y2="19.36363636363639" style="fill: none; stroke: rgb(216, 216, 216); stroke-width: 1; opacity: 1;"></line></g><g id="g27" class="type-rule" style="pointer-events: none;"><line x1="-6" y1="396.6363636363636" x2="0" y2="396.6363636363636" style="fill: none; stroke: rgb(0, 0, 0); stroke-width: 1; opacity: 1;"></line><line x1="-6" y1="349.47727272727275" x2="0" y2="349.47727272727275" style="fill: none; stroke: rgb(0, 0, 0); stroke-width: 1; opacity: 1;"></line><line x1="-6" y1="302.3181818181818" x2="0" y2="302.3181818181818" style="fill: none; stroke: rgb(0, 0, 0); stroke-width: 1; opacity: 1;"></line><line x1="-6" y1="255.15909090909096" x2="0" y2="255.15909090909096" style="fill: none; stroke: rgb(0, 0, 0); stroke-width: 1; opacity: 1;"></line><line x1="-6" y1="208" x2="0" y2="208" style="fill: none; stroke: rgb(0, 0, 0); stroke-width: 1; opacity: 1;"></line><line x1="-6" y1="160.8409090909091" x2="0" y2="160.8409090909091" style="fill: none; stroke: rgb(0, 0, 0); stroke-width: 1; opacity: 1;"></line><line x1="-6" y1="113.68181818181817" x2="0" y2="113.68181818181817" style="fill: none; stroke: rgb(0, 0, 0); stroke-width: 1; opacity: 1;"></line><line x1="-6" y1="66.52272727272731" x2="0" y2="66.52272727272731" style="fill: none; stroke: rgb(0, 0, 0); stroke-width: 1; opacity: 1;"></line><line x1="-6" y1="19.36363636363639" x2="0" y2="19.36363636363639" style="fill: none; stroke: rgb(0, 0, 0); stroke-width: 1; opacity: 1;"></line></g><g id="g28" class="type-rule" style="pointer-events: none;"></g><g id="g29" class="type-text"><text x="-9" y="396.6363636363636" text-anchor="end" dy=".35em" style="font: 11px sans-serif; fill: rgb(0, 0, 0); opacity: 1;">1.0</text><text x="-9" y="349.47727272727275" text-anchor="end" dy=".35em" style="font: 11px sans-serif; fill: rgb(0, 0, 0); opacity: 1;">1.5</text><text x="-9" y="302.3181818181818" text-anchor="end" dy=".35em" style="font: 11px sans-serif; fill: rgb(0, 0, 0); opacity: 1;">2.0</text><text x="-9" y="255.15909090909096" text-anchor="end" dy=".35em" style="font: 11px sans-serif; fill: rgb(0, 0, 0); opacity: 1;">2.5</text><text x="-9" y="208" text-anchor="end" dy=".35em" style="font: 11px sans-serif; fill: rgb(0, 0, 0); opacity: 1;">3.0</text><text x="-9" y="160.8409090909091" text-anchor="end" dy=".35em" style="font: 11px sans-serif; fill: rgb(0, 0, 0); opacity: 1;">3.5</text><text x="-9" y="113.68181818181817" text-anchor="end" dy=".35em" style="font: 11px sans-serif; fill: rgb(0, 0, 0); opacity: 1;">4.0</text><text x="-9" y="66.52272727272731" text-anchor="end" dy=".35em" style="font: 11px sans-serif; fill: rgb(0, 0, 0); opacity: 1;">4.5</text><text x="-9" y="19.36363636363639" text-anchor="end" dy=".35em" style="font: 11px sans-serif; fill: rgb(0, 0, 0); opacity: 1;">5.0</text></g><g id="g30" class="type-path" style="pointer-events: none;"><path transform="translate(0.5,0.5)" d="M-6,0H0V415H-6" style="fill: none; stroke: rgb(0, 0, 0); stroke-width: 1;"></path></g><g id="g31" class="type-text"><text x="-35" y="207" text-anchor="middle" transform="rotate(-90 -35,207)" dy=".35em" style="font: bold 11px sans-serif; fill: rgb(0, 0, 0);">rep78</text></g></g></g><g id="g32" class="type-symbol"><path transform="translate(74.34034158469355,207.5)" d="M0,-4.653024295510498L2.6864248295588546,0 0,4.653024295510498 -2.6864248295588546,0Z" style="fill: none; stroke: red;"></path><path transform="translate(107.92589990271323,207.5)" d="M0,-4.653024295510498L2.6864248295588546,0 0,4.653024295510498 -2.6864248295588546,0Z" style="fill: none; stroke: red;"></path><path transform="translate(58.839314668684466,0)" d="M0,-4.653024295510498L2.6864248295588546,0 0,4.653024295510498 -2.6864248295588546,0Z" style="fill: none; stroke: red;"></path><path transform="translate(111.38779591395526,207.5)" d="M0,-4.653024295510498L2.6864248295588546,0 0,4.653024295510498 -2.6864248295588546,0Z" style="fill: none; stroke: red;"></path><path transform="translate(266.9664360609664,113.18181818181817)" d="M0,-4.653024295510498L2.6864248295588546,0 0,4.653024295510498 -2.6864248295588546,0Z" style="fill: none; stroke: red;"></path><path transform="translate(161.61112312182468,207.5)" d="M0,-4.653024295510498L2.6864248295588546,0 0,4.653024295510498 -2.6864248295588546,0Z" style="fill: none; stroke: red;"></path><path transform="translate(92.63155334558427,0)" d="M0,-4.653024295510498L2.6864248295588546,0 0,4.653024295510498 -2.6864248295588546,0Z" style="fill: none; stroke: red;"></path><path transform="translate(130.66073937952652,207.5)" d="M0,-4.653024295510498L2.6864248295588546,0 0,4.653024295510498 -2.6864248295588546,0Z" style="fill: none; stroke: red;"></path><path transform="translate(398.4668143984434,207.5)" d="M0,-4.653024295510498L2.6864248295588546,0 0,4.653024295510498 -2.6864248295588546,0Z" style="fill: none; stroke: red;"></path><path transform="translate(73.46195005945303,207.5)" d="M0,-4.653024295510498L2.6864248295588546,0 0,4.653024295510498 -2.6864248295588546,0Z" style="fill: none; stroke: red;"></path><path transform="translate(450.80861528483405,207.5)" d="M0,-4.653024295510498L2.6864248295588546,0 0,4.653024295510498 -2.6864248295588546,0Z" style="fill: none; stroke: red;"></path><path transform="translate(611.7609447627284,301.8181818181818)" d="M0,-4.653024295510498L2.6864248295588546,0 0,4.653024295510498 -2.6864248295588546,0Z" style="fill: none; stroke: red;"></path><path transform="translate(684.409090909091,207.5)" d="M0,-4.653024295510498L2.6864248295588546,0 0,4.653024295510498 -2.6864248295588546,0Z" style="fill: none; stroke: red;"></path><path transform="translate(33.004269808669335,207.5)" d="M0,-4.653024295510498L2.6864248295588546,0 0,4.653024295510498 -2.6864248295588546,0Z" style="fill: none; stroke: red;"></path><path transform="translate(157.32250567506216,113.18181818181817)" d="M0,-4.653024295510498L2.6864248295588546,0 0,4.653024295510498 -2.6864248295588546,0Z" style="fill: none; stroke: red;"></path><path transform="translate(95.2667279213058,207.5)" d="M0,-4.653024295510498L2.6864248295588546,0 0,4.653024295510498 -2.6864248295588546,0Z" style="fill: none; stroke: red;"></path><path transform="translate(126.26878175332396,301.8181818181818)" d="M0,-4.653024295510498L2.6864248295588546,0 0,4.653024295510498 -2.6864248295588546,0Z" style="fill: none; stroke: red;"></path><path transform="translate(52.018862825640475,301.8181818181818)" d="M0,-4.653024295510498L2.6864248295588546,0 0,4.653024295510498 -2.6864248295588546,0Z" style="fill: none; stroke: red;"></path><path transform="translate(66.89984866500919,207.5)" d="M0,-4.653024295510498L2.6864248295588546,0 0,4.653024295510498 -2.6864248295588546,0Z" style="fill: none; stroke: red;"></path><path transform="translate(68.39828126689007,18.86363636363639)" d="M0,-4.653024295510498L2.6864248295588546,0 0,4.653024295510498 -2.6864248295588546,0Z" style="fill: none; stroke: red;"></path><path transform="translate(69.74170359961084,301.8181818181818)" d="M0,-4.653024295510498L2.6864248295588546,0 0,4.653024295510498 -2.6864248295588546,0Z" style="fill: none; stroke: red;"></path><path transform="translate(166.67479191438764,301.8181818181818)" d="M0,-4.653024295510498L2.6864248295588546,0 0,4.653024295510498 -2.6864248295588546,0Z" style="fill: none; stroke: red;"></path><path transform="translate(190.23635282672143,301.8181818181818)" d="M0,-4.653024295510498L2.6864248295588546,0 0,4.653024295510498 -2.6864248295588546,0Z" style="fill: none; stroke: red;"></path><path transform="translate(89.32466760350232,113.18181818181817)" d="M0,-4.653024295510498L2.6864248295588546,0 0,4.653024295510498 -2.6864248295588546,0Z" style="fill: none; stroke: red;"></path><path transform="translate(78.88730948005622,207.5)" d="M0,-4.653024295510498L2.6864248295588546,0 0,4.653024295510498 -2.6864248295588546,0Z" style="fill: none; stroke: red;"></path><path transform="translate(456.5956653334775,207.5)" d="M0,-4.653024295510498L2.6864248295588546,0 0,4.653024295510498 -2.6864248295588546,0Z" style="fill: none; stroke: red;"></path><path transform="translate(564.947843476381,207.5)" d="M0,-4.653024295510498L2.6864248295588546,0 0,4.653024295510498 -2.6864248295588546,0Z" style="fill: none; stroke: red;"></path><path transform="translate(558.334071992217,207.5)" d="M0,-4.653024295510498L2.6864248295588546,0 0,4.653024295510498 -2.6864248295588546,0Z" style="fill: none; stroke: red;"></path><path transform="translate(60.38941736028537,113.18181818181817)" d="M0,-4.653024295510498L2.6864248295588546,0 0,4.653024295510498 -2.6864248295588546,0Z" style="fill: none; stroke: red;"></path><path transform="translate(140.47805642633227,113.18181818181817)" d="M0,-4.653024295510498L2.6864248295588546,0 0,4.653024295510498 -2.6864248295588546,0Z" style="fill: none; stroke: red;"></path><path transform="translate(181.09074694627606,207.5)" d="M0,-4.653024295510498L2.6864248295588546,0 0,4.653024295510498 -2.6864248295588546,0Z" style="fill: none; stroke: red;"></path><path transform="translate(95.88676899794618,207.5)" d="M0,-4.653024295510498L2.6864248295588546,0 0,4.653024295510498 -2.6864248295588546,0Z" style="fill: none; stroke: red;"></path><path transform="translate(188.22121932764028,113.18181818181817)" d="M0,-4.653024295510498L2.6864248295588546,0 0,4.653024295510498 -2.6864248295588546,0Z" style="fill: none; stroke: red;"></path><path transform="translate(32.59090909090909,207.5)" d="M0,-4.653024295510498L2.6864248295588546,0 0,4.653024295510498 -2.6864248295588546,0Z" style="fill: none; stroke: red;"></path><path transform="translate(317.9648146146362,113.18181818181817)" d="M0,-4.653024295510498L2.6864248295588546,0 0,4.653024295510498 -2.6864248295588546,0Z" style="fill: none; stroke: red;"></path><path transform="translate(129.782347854286,207.5)" d="M0,-4.653024295510498L2.6864248295588546,0 0,4.653024295510498 -2.6864248295588546,0Z" style="fill: none; stroke: red;"></path><path transform="translate(107.09917846719274,207.5)" d="M0,-4.653024295510498L2.6864248295588546,0 0,4.653024295510498 -2.6864248295588546,0Z" style="fill: none; stroke: red;"></path><path transform="translate(115.21138255323748,113.18181818181817)" d="M0,-4.653024295510498L2.6864248295588546,0 0,4.653024295510498 -2.6864248295588546,0Z" style="fill: none; stroke: red;"></path><path transform="translate(78.57728894173603,207.5)" d="M0,-4.653024295510498L2.6864248295588546,0 0,4.653024295510498 -2.6864248295588546,0Z" style="fill: none; stroke: red;"></path><path transform="translate(79.30067019781646,396.1363636363636)" d="M0,-4.653024295510498L2.6864248295588546,0 0,4.653024295510498 -2.6864248295588546,0Z" style="fill: none; stroke: red;"></path><path transform="translate(398.4151443087234,207.5)" d="M0,-4.653024295510498L2.6864248295588546,0 0,4.653024295510498 -2.6864248295588546,0Z" style="fill: none; stroke: red;"></path><path transform="translate(102.65555075127013,207.5)" d="M0,-4.653024295510498L2.6864248295588546,0 0,4.653024295510498 -2.6864248295588546,0Z" style="fill: none; stroke: red;"></path><path transform="translate(91.1847908334234,18.86363636363639)" d="M0,-4.653024295510498L2.6864248295588546,0 0,4.653024295510498 -2.6864248295588546,0Z" style="fill: none; stroke: red;"></path><path transform="translate(94.12998594746514,207.5)" d="M0,-4.653024295510498L2.6864248295588546,0 0,4.653024295510498 -2.6864248295588546,0Z" style="fill: none; stroke: red;"></path><path transform="translate(197.6768457464058,0)" d="M0,-4.653024295510498L2.6864248295588546,0 0,4.653024295510498 -2.6864248295588546,0Z" style="fill: none; stroke: red;"></path><path transform="translate(72.32520808561236,301.8181818181818)" d="M0,-4.653024295510498L2.6864248295588546,0 0,4.653024295510498 -2.6864248295588546,0Z" style="fill: none; stroke: red;"></path><path transform="translate(162.12782401902496,113.18181818181817)" d="M0,-4.653024295510498L2.6864248295588546,0 0,4.653024295510498 -2.6864248295588546,0Z" style="fill: none; stroke: red;"></path><path transform="translate(117.48486650091881,396.1363636363636)" d="M0,-4.653024295510498L2.6864248295588546,0 0,4.653024295510498 -2.6864248295588546,0Z" style="fill: none; stroke: red;"></path><path transform="translate(132.36585234028752,207.5)" d="M0,-4.653024295510498L2.6864248295588546,0 0,4.653024295510498 -2.6864248295588546,0Z" style="fill: none; stroke: red;"></path><path transform="translate(106.58247756999245,207.5)" d="M0,-4.653024295510498L2.6864248295588546,0 0,4.653024295510498 -2.6864248295588546,0Z" style="fill: none; stroke: red;"></path><path transform="translate(91.13312074370339,0)" d="M0,-4.653024295510498L2.6864248295588546,0 0,4.653024295510498 -2.6864248295588546,0Z" style="fill: none; stroke: red;"></path><path transform="translate(78.11225813425575,301.8181818181818)" d="M0,-4.653024295510498L2.6864248295588546,0 0,4.653024295510498 -2.6864248295588546,0Z" style="fill: none; stroke: red;"></path><path transform="translate(363.22781320938276,18.86363636363639)" d="M0,-4.653024295510498L2.6864248295588546,0 0,4.653024295510498 -2.6864248295588546,0Z" style="fill: none; stroke: red;"></path><path transform="translate(187.80785860988001,207.5)" d="M0,-4.653024295510498L2.6864248295588546,0 0,4.653024295510498 -2.6864248295588546,0Z" style="fill: none; stroke: red;"></path><path transform="translate(365.55296724678414,113.18181818181817)" d="M0,-4.653024295510498L2.6864248295588546,0 0,4.653024295510498 -2.6864248295588546,0Z" style="fill: none; stroke: red;"></path><path transform="translate(184.39763268835802,113.18181818181817)" d="M0,-4.653024295510498L2.6864248295588546,0 0,4.653024295510498 -2.6864248295588546,0Z" style="fill: none; stroke: red;"></path><path transform="translate(99.65868554750838,18.86363636363639)" d="M0,-4.653024295510498L2.6864248295588546,0 0,4.653024295510498 -2.6864248295588546,0Z" style="fill: none; stroke: red;"></path><path transform="translate(124.9770295103232,113.18181818181817)" d="M0,-4.653024295510498L2.6864248295588546,0 0,4.653024295510498 -2.6864248295588546,0Z" style="fill: none; stroke: red;"></path><path transform="translate(282.57080315641554,113.18181818181817)" d="M0,-4.653024295510498L2.6864248295588546,0 0,4.653024295510498 -2.6864248295588546,0Z" style="fill: none; stroke: red;"></path><path transform="translate(84.51934925953951,207.5)" d="M0,-4.653024295510498L2.6864248295588546,0 0,4.653024295510498 -2.6864248295588546,0Z" style="fill: none; stroke: red;"></path><path transform="translate(162.17949410874502,18.86363636363639)" d="M0,-4.653024295510498L2.6864248295588546,0 0,4.653024295510498 -2.6864248295588546,0Z" style="fill: none; stroke: red;"></path><path transform="translate(95.00837747270566,113.18181818181817)" d="M0,-4.653024295510498L2.6864248295588546,0 0,4.653024295510498 -2.6864248295588546,0Z" style="fill: none; stroke: red;"></path><path transform="translate(68.9666522538104,113.18181818181817)" d="M0,-4.653024295510498L2.6864248295588546,0 0,4.653024295510498 -2.6864248295588546,0Z" style="fill: none; stroke: red;"></path><path transform="translate(533.7391092854826,0)" d="M0,-4.653024295510498L2.6864248295588546,0 0,4.653024295510498 -2.6864248295588546,0Z" style="fill: none; stroke: red;"></path><path transform="translate(63.79964328180737,207.5)" d="M0,-4.653024295510498L2.6864248295588546,0 0,4.653024295510498 -2.6864248295588546,0Z" style="fill: none; stroke: red;"></path><path transform="translate(58.78764457896444,18.86363636363639)" d="M0,-4.653024295510498L2.6864248295588546,0 0,4.653024295510498 -2.6864248295588546,0Z" style="fill: none; stroke: red;"></path><path transform="translate(167.34650308074802,18.86363636363639)" d="M0,-4.653024295510498L2.6864248295588546,0 0,4.653024295510498 -2.6864248295588546,0Z" style="fill: none; stroke: red;"></path><path transform="translate(56.20414009296292,18.86363636363639)" d="M0,-4.653024295510498L2.6864248295588546,0 0,4.653024295510498 -2.6864248295588546,0Z" style="fill: none; stroke: red;"></path><path transform="translate(158.04588693114258,18.86363636363639)" d="M0,-4.653024295510498L2.6864248295588546,0 0,4.653024295510498 -2.6864248295588546,0Z" style="fill: none; stroke: red;"></path><path transform="translate(231.4690844233056,113.18181818181817)" d="M0,-4.653024295510498L2.6864248295588546,0 0,4.653024295510498 -2.6864248295588546,0Z" style="fill: none; stroke: red;"></path><path transform="translate(141.40811804129285,18.86363636363639)" d="M0,-4.653024295510498L2.6864248295588546,0 0,4.653024295510498 -2.6864248295588546,0Z" style="fill: none; stroke: red;"></path><path transform="translate(105.23905523727164,113.18181818181817)" d="M0,-4.653024295510498L2.6864248295588546,0 0,4.653024295510498 -2.6864248295588546,0Z" style="fill: none; stroke: red;"></path><path transform="translate(216.48475840449683,113.18181818181817)" d="M0,-4.653024295510498L2.6864248295588546,0 0,4.653024295510498 -2.6864248295588546,0Z" style="fill: none; stroke: red;"></path><path transform="translate(482.3273700140526,18.86363636363639)" d="M0,-4.653024295510498L2.6864248295588546,0 0,4.653024295510498 -2.6864248295588546,0Z" style="fill: none; stroke: red;"></path></g></g></g></g></svg>