<svg class="marks" width="769" height="473" xmlns="http://www.w3.org/2000/svg"><g transform="translate(49,6)"><g id="g25" class="type-group"><g transform="translate(0,0)"><rect class="background" width="638" height="419" style="pointer-events: none; fill: none;"></rect><g id="g26" class="type-group"><g transform="translate(0,419)"><rect class="background" width="0" height="0" style="pointer-events: none; fill: none;"></rect><g id="g27" class="type-rule" style="pointer-events: none;"><line x1="89.49999999999999" y1="-419" x2="89.49999999999999" y2="0" style="fill: none; stroke: rgb(216, 216, 216); stroke-width: 1; opacity: 1;"></line><line x1="189.49999999999997" y1="-419" x2="189.49999999999997" y2="0" style="fill: none; stroke: rgb(216, 216, 216); stroke-width: 1; opacity: 1;"></line><line x1="289.49999999999994" y1="-419" x2="289.49999999999994" y2="0" style="fill: none; stroke: rgb(216, 216, 216); stroke-width: 1; opacity: 1;"></line><line x1="389.49999999999994" y1="-419" x2="389.49999999999994" y2="0" style="fill: none; stroke: rgb(216, 216, 216); stroke-width: 1; opacity: 1;"></line><line x1="489.49999999999994" y1="-419" x2="489.49999999999994" y2="0" style="fill: none; stroke: rgb(216, 216, 216); stroke-width: 1; opacity: 1;"></line><line x1="589.4999999999999" y1="-419" x2="589.4999999999999" y2="0" style="fill: none; stroke: rgb(216, 216, 216); stroke-width: 1; opacity: 1;"></line></g><g id="g28" class="type-rule" style="pointer-events: none;"><line x1="89.49999999999999" y1="0" x2="89.49999999999999" y2="6" style="fill: none; stroke: rgb(0, 0, 0); stroke-width: 1; opacity: 1;"></line><line x1="189.49999999999997" y1="0" x2="189.49999999999997" y2="6" style="fill: none; stroke: rgb(0, 0, 0); stroke-width: 1; opacity: 1;"></line><line x1="289.49999999999994" y1="0" x2="289.49999999999994" y2="6" style="fill: none; stroke: rgb(0, 0, 0); stroke-width: 1; opacity: 1;"></line><line x1="389.49999999999994" y1="0" x2="389.49999999999994" y2="6" style="fill: none; stroke: rgb(0, 0, 0); stroke-width: 1; opacity: 1;"></line><line x1="489.49999999999994" y1="0" x2="489.49999999999994" y2="6" style="fill: none; stroke: rgb(0, 0, 0); stroke-width: 1; opacity: 1;"></line><line x1="589.4999999999999" y1="0" x2="589.4999999999999" y2="6" style="fill: none; stroke: rgb(0, 0, 0); stroke-width: 1; opacity: 1;"></line></g><g id="g29" class="type-rule" style="pointer-events: none;"></g><g id="g30" class="type-text"><text x="89.49999999999999" y="9" text-anchor="middle" dy=".9em" style="font: 11px sans-serif; fill: rgb(0, 0, 0); opacity: 1;">15</text><text x="189.49999999999997" y="9" text-anchor="middle" dy=".9em" style="font: 11px sans-serif; fill: rgb(0, 0, 0); opacity: 1;">20</text><text x="289.49999999999994" y="9" text-anchor="middle" dy=".9em" style="font: 11px sans-serif; fill: rgb(0, 0, 0); opacity: 1;">25</text><text x="389.49999999999994" y="9" text-anchor="middle" dy=".9em" style="font: 11px sans-serif; fill: rgb(0, 0, 0); opacity: 1;">30</text><text x="489.49999999999994" y="9" text-anchor="middle" dy=".9em" style="font: 11px sans-serif; fill: rgb(0, 0, 0); opacity: 1;">35</text><text x="589.4999999999999" y="9" text-anchor="middle" dy=".9em" style="font: 11px sans-serif; fill: rgb(0, 0, 0); opacity: 1;">40</text></g><g id="g31" class="type-path" style="pointer-events: none;"><path transform="translate(0.5,0.5)" d="M0,6V0H638V6" style="fill: none; stroke: rgb(0, 0, 0); stroke-width: 1;"></path></g><g id="g32" class="type-text"><text x="319" y="35" text-anchor="middle" dy=".35em" style="font: bold 11px sans-serif; fill: rgb(0, 0, 0);">mpg</text></g></g></g><g id="g33" class="type-group"><g transform="translate(0,0)"><rect class="background" width="0" height="0" style="pointer-events: none; fill: none;"></rect><g id="g34" class="type-rule" style="pointer-events: none;"><line x1="0" y1="379.0463373329009" x2="638" y2="379.0463373329009" style="fill: none; stroke: rgb(216, 216, 216); stroke-width: 1; opacity: 1;"></line><line x1="0" y1="318.6564695708572" x2="638" y2="318.6564695708572" style="fill: none; stroke: rgb(216, 216, 216); stroke-width: 1; opacity: 1;"></line><line x1="0" y1="258.26660180881345" x2="638" y2="258.26660180881345" style="fill: none; stroke: rgb(216, 216, 216); stroke-width: 1; opacity: 1;"></line><line x1="0" y1="197.87673404676974" x2="638" y2="197.87673404676974" style="fill: none; stroke: rgb(216, 216, 216); stroke-width: 1; opacity: 1;"></line><line x1="0" y1="137.48686628472598" x2="638" y2="137.48686628472598" style="fill: none; stroke: rgb(216, 216, 216); stroke-width: 1; opacity: 1;"></line><line x1="0" y1="77.09699852268221" x2="638" y2="77.09699852268221" style="fill: none; stroke: rgb(216, 216, 216); stroke-width: 1; opacity: 1;"></line><line x1="0" y1="16.707130760638492" x2="638" y2="16.707130760638492" style="fill: none; stroke: rgb(216, 216, 216); stroke-width: 1; opacity: 1;"></line></g><g id="g35" class="type-rule" style="pointer-events: none;"><line x1="-6" y1="379.0463373329009" x2="0" y2="379.0463373329009" style="fill: none; stroke: rgb(0, 0, 0); stroke-width: 1; opacity: 1;"></line><line x1="-6" y1="318.6564695708572" x2="0" y2="318.6564695708572" style="fill: none; stroke: rgb(0, 0, 0); stroke-width: 1; opacity: 1;"></line><line x1="-6" y1="258.26660180881345" x2="0" y2="258.26660180881345" style="fill: none; stroke: rgb(0, 0, 0); stroke-width: 1; opacity: 1;"></line><line x1="-6" y1="197.87673404676974" x2="0" y2="197.87673404676974" style="fill: none; stroke: rgb(0, 0, 0); stroke-width: 1; opacity: 1;"></line><line x1="-6" y1="137.48686628472598" x2="0" y2="137.48686628472598" style="fill: none; stroke: rgb(0, 0, 0); stroke-width: 1; opacity: 1;"></line><line x1="-6" y1="77.09699852268221" x2="0" y2="77.09699852268221" style="fill: none; stroke: rgb(0, 0, 0); stroke-width: 1; opacity: 1;"></line><line x1="-6" y1="16.707130760638492" x2="0" y2="16.707130760638492" style="fill: none; stroke: rgb(0, 0, 0); stroke-width: 1; opacity: 1;"></line></g><g id="g36" class="type-rule" style="pointer-events: none;"></g><g id="g37" class="type-text"><text x="-9" y="379.0463373329009" text-anchor="end" dy=".35em" style="font: 11px sans-serif; fill: rgb(0, 0, 0); opacity: 1;">4,000</text><text x="-9" y="318.6564695708572" text-anchor="end" dy=".35em" style="font: 11px sans-serif; fill: rgb(0, 0, 0); opacity: 1;">6,000</text><text x="-9" y="258.26660180881345" text-anchor="end" dy=".35em" style="font: 11px sans-serif; fill: rgb(0, 0, 0); opacity: 1;">8,000</text><text x="-9" y="197.87673404676974" text-anchor="end" dy=".35em" style="font: 11px sans-serif; fill: rgb(0, 0, 0); opacity: 1;">10,000</text><text x="-9" y="137.48686628472598" text-anchor="end" dy=".35em" style="font: 11px sans-serif; fill: rgb(0, 0, 0); opacity: 1;">12,000</text><text x="-9" y="77.09699852268221" text-anchor="end" dy=".35em" style="font: 11px sans-serif; fill: rgb(0, 0, 0); opacity: 1;">14,000</text><text x="-9" y="16.707130760638492" text-anchor="end" dy=".35em" style="font: 11px sans-serif; fill: rgb(0, 0, 0); opacity: 1;">16,000</text></g><g id="g38" class="type-path" style="pointer-events: none;"><path transform="translate(0.5,0.5)" d="M-6,0H0V419H-6" style="fill: none; stroke: rgb(0, 0, 0); stroke-width: 1;"></path></g><g id="g39" class="type-text"><text x="-35" y="209" text-anchor="middle" transform="rotate(-90 -35,209)" dy=".35em" style="font: bold 11px sans-serif; fill: rgb(0, 0, 0);">price</text></g></g></g><g id="g40" class="type-symbol"><path transform="translate(228.99999999999994,375.55703887867975)" d="M0,1.7841241161527712A1.7841241161527712,1.7841241161527712 0 1,1 0,-1.7841241161527712A1.7841241161527712,1.7841241161527712 0 1,1 0,1.7841241161527712Z" style="fill: rgb(31, 119, 180);"></path><path transform="translate(128.99999999999997,355.9303318560156)" d="M0,1.7841241161527712A1.7841241161527712,1.7841241161527712 0 1,1 0,-1.7841241161527712A1.7841241161527712,1.7841241161527712 0 1,1 0,1.7841241161527712Z" style="fill: rgb(31, 119, 180);"></path><path transform="translate(228.99999999999994,384.61551904298636)" d="M0,1.7841241161527712A1.7841241161527712,1.7841241161527712 0 1,1 0,-1.7841241161527712A1.7841241161527712,1.7841241161527712 0 1,1 0,1.7841241161527712Z" style="fill: rgb(31, 119, 180);"></path><path transform="translate(188.99999999999997,353.9072712859871)" d="M0,1.7841241161527712A1.7841241161527712,1.7841241161527712 0 1,1 0,-1.7841241161527712A1.7841241161527712,1.7841241161527712 0 1,1 0,1.7841241161527712Z" style="fill: rgb(31, 119, 180);"></path><path transform="translate(88.99999999999999,262.99032537023027)" d="M0,1.7841241161527712A1.7841241161527712,1.7841241161527712 0 1,1 0,-1.7841241161527712A1.7841241161527712,1.7841241161527712 0 1,1 0,1.7841241161527712Z" style="fill: rgb(31, 119, 180);"></path><path transform="translate(148.99999999999997,324.55779555363387)" d="M0,1.7841241161527712A1.7841241161527712,1.7841241161527712 0 1,1 0,-1.7841241161527712A1.7841241161527712,1.7841241161527712 0 1,1 0,1.7841241161527712Z" style="fill: rgb(31, 119, 180);"></path><path transform="translate(308.99999999999994,364.86803228479806)" d="M0,1.7841241161527712A1.7841241161527712,1.7841241161527712 0 1,1 0,-1.7841241161527712A1.7841241161527712,1.7841241161527712 0 1,1 0,1.7841241161527712Z" style="fill: rgb(31, 119, 180);"></path><path transform="translate(188.99999999999997,342.64456094836595)" d="M0,1.7841241161527712A1.7841241161527712,1.7841241161527712 0 1,1 0,-1.7841241161527712A1.7841241161527712,1.7841241161527712 0 1,1 0,1.7841241161527712Z" style="fill: rgb(31, 119, 180);"></path><path transform="translate(108.99999999999999,186.1442186430296)" d="M0,1.7841241161527712A1.7841241161527712,1.7841241161527712 0 1,1 0,-1.7841241161527712A1.7841241161527712,1.7841241161527712 0 1,1 0,1.7841241161527712Z" style="fill: rgb(31, 119, 180);"></path><path transform="translate(168.99999999999997,376.07035275465716)" d="M0,1.7841241161527712A1.7841241161527712,1.7841241161527712 0 1,1 0,-1.7841241161527712A1.7841241161527712,1.7841241161527712 0 1,1 0,1.7841241161527712Z" style="fill: rgb(31, 119, 180);"></path><path transform="translate(68.99999999999999,155.55675062155441)" d="M0,1.7841241161527712A1.7841241161527712,1.7841241161527712 0 1,1 0,-1.7841241161527712A1.7841241161527712,1.7841241161527712 0 1,1 0,1.7841241161527712Z" style="fill: rgb(31, 119, 180);"></path><path transform="translate(68.99999999999999,61.499531582171294)" d="M0,1.7841241161527712A1.7841241161527712,1.7841241161527712 0 1,1 0,-1.7841241161527712A1.7841241161527712,1.7841241161527712 0 1,1 0,1.7841241161527712Z" style="fill: rgb(31, 119, 180);"></path><path transform="translate(208.99999999999994,19.04545454545453)" d="M0,1.7841241161527712A1.7841241161527712,1.7841241161527712 0 1,1 0,-1.7841241161527712A1.7841241161527712,1.7841241161527712 0 1,1 0,1.7841241161527712Z" style="fill: rgb(31, 119, 180);"></path><path transform="translate(369,399.7129859834973)" d="M0,1.7841241161527712A1.7841241161527712,1.7841241161527712 0 1,1 0,-1.7841241161527712A1.7841241161527712,1.7841241161527712 0 1,1 0,1.7841241161527712Z" style="fill: rgb(31, 119, 180);"></path><path transform="translate(108.99999999999999,327.06397506575865)" d="M0,1.7841241161527712A1.7841241161527712,1.7841241161527712 0 1,1 0,-1.7841241161527712A1.7841241161527712,1.7841241161527712 0 1,1 0,1.7841241161527712Z" style="fill: rgb(31, 119, 180);"></path><path transform="translate(228.99999999999994,363.3280906568659)" d="M0,1.7841241161527712A1.7841241161527712,1.7841241161527712 0 1,1 0,-1.7841241161527712A1.7841241161527712,1.7841241161527712 0 1,1 0,1.7841241161527712Z" style="fill: rgb(31, 119, 180);"></path><path transform="translate(228.99999999999994,345.2111303282528)" d="M0,1.7841241161527712A1.7841241161527712,1.7841241161527712 0 1,1 0,-1.7841241161527712A1.7841241161527712,1.7841241161527712 0 1,1 0,1.7841241161527712Z" style="fill: rgb(31, 119, 180);"></path><path transform="translate(268.99999999999994,388.6012503152812)" d="M0,1.7841241161527712A1.7841241161527712,1.7841241161527712 0 1,1 0,-1.7841241161527712A1.7841241161527712,1.7841241161527712 0 1,1 0,1.7841241161527712Z" style="fill: rgb(31, 119, 180);"></path><path transform="translate(168.99999999999997,379.90510935754696)" d="M0,1.7841241161527712A1.7841241161527712,1.7841241161527712 0 1,1 0,-1.7841241161527712A1.7841241161527712,1.7841241161527712 0 1,1 0,1.7841241161527712Z" style="fill: rgb(31, 119, 180);"></path><path transform="translate(388.99999999999994,379.0294562749973)" d="M0,1.7841241161527712A1.7841241161527712,1.7841241161527712 0 1,1 0,-1.7841241161527712A1.7841241161527712,1.7841241161527712 0 1,1 0,1.7841241161527712Z" style="fill: rgb(31, 119, 180);"></path><path transform="translate(148.99999999999997,378.24438799409074)" d="M0,1.7841241161527712A1.7841241161527712,1.7841241161527712 0 1,1 0,-1.7841241161527712A1.7841241161527712,1.7841241161527712 0 1,1 0,1.7841241161527712Z" style="fill: rgb(31, 119, 180);"></path><path transform="translate(108.99999999999999,321.59869203329373)" d="M0,1.7841241161527712A1.7841241161527712,1.7841241161527712 0 1,1 0,-1.7841241161527712A1.7841241161527712,1.7841241161527712 0 1,1 0,1.7841241161527712Z" style="fill: rgb(31, 119, 180);"></path><path transform="translate(128.99999999999997,307.8298021835477)" d="M0,1.7841241161527712A1.7841241161527712,1.7841241161527712 0 1,1 0,-1.7841241161527712A1.7841241161527712,1.7841241161527712 0 1,1 0,1.7841241161527712Z" style="fill: rgb(31, 119, 180);"></path><path transform="translate(348.99999999999994,366.8005080531835)" d="M0,1.7841241161527712A1.7841241161527712,1.7841241161527712 0 1,1 0,-1.7841241161527712A1.7841241161527712,1.7841241161527712 0 1,1 0,1.7841241161527712Z" style="fill: rgb(31, 119, 180);"></path><path transform="translate(208.99999999999994,372.89988469714984)" d="M0,1.7841241161527712A1.7841241161527712,1.7841241161527712 0 1,1 0,-1.7841241161527712A1.7841241161527712,1.7841241161527712 0 1,1 0,1.7841241161527712Z" style="fill: rgb(31, 119, 180);"></path><path transform="translate(28.999999999999982,152.17491802687996)" d="M0,1.7841241161527712A1.7841241161527712,1.7841241161527712 0 1,1 0,-1.7841241161527712A1.7841241161527712,1.7841241161527712 0 1,1 0,1.7841241161527712Z" style="fill: rgb(31, 119, 180);"></path><path transform="translate(28.999999999999982,88.85614167837709)" d="M0,1.7841241161527712A1.7841241161527712,1.7841241161527712 0 1,1 0,-1.7841241161527712A1.7841241161527712,1.7841241161527712 0 1,1 0,1.7841241161527712Z" style="fill: rgb(31, 119, 180);"></path><path transform="translate(68.99999999999999,92.72109321514792)" d="M0,1.7841241161527712A1.7841241161527712,1.7841241161527712 0 1,1 0,-1.7841241161527712A1.7841241161527712,1.7841241161527712 0 1,1 0,1.7841241161527712Z" style="fill: rgb(31, 119, 180);"></path><path transform="translate(228.99999999999994,383.7096710265557)" d="M0,1.7841241161527712A1.7841241161527712,1.7841241161527712 0 1,1 0,-1.7841241161527712A1.7841241161527712,1.7841241161527712 0 1,1 0,1.7841241161527712Z" style="fill: rgb(31, 119, 180);"></path><path transform="translate(68.99999999999999,336.9075235109718)" d="M0,1.7841241161527712A1.7841241161527712,1.7841241161527712 0 1,1 0,-1.7841241161527712A1.7841241161527712,1.7841241161527712 0 1,1 0,1.7841241161527712Z" style="fill: rgb(31, 119, 180);"></path><path transform="translate(88.99999999999999,313.17430548048856)" d="M0,1.7841241161527712A1.7841241161527712,1.7841241161527712 0 1,1 0,-1.7841241161527712A1.7841241161527712,1.7841241161527712 0 1,1 0,1.7841241161527712Z" style="fill: rgb(31, 119, 180);"></path><path transform="translate(148.99999999999997,362.9657514502937)" d="M0,1.7841241161527712A1.7841241161527712,1.7841241161527712 0 1,1 0,-1.7841241161527712A1.7841241161527712,1.7841241161527712 0 1,1 0,1.7841241161527712Z" style="fill: rgb(31, 119, 180);"></path><path transform="translate(68.99999999999999,309.00740460490755)" d="M0,1.7841241161527712A1.7841241161527712,1.7841241161527712 0 1,1 0,-1.7841241161527712A1.7841241161527712,1.7841241161527712 0 1,1 0,1.7841241161527712Z" style="fill: rgb(31, 119, 180);"></path><path transform="translate(188.99999999999997,399.9545454545455)" d="M0,1.7841241161527712A1.7841241161527712,1.7841241161527712 0 1,1 0,-1.7841241161527712A1.7841241161527712,1.7841241161527712 0 1,1 0,1.7841241161527712Z" style="fill: rgb(31, 119, 180);"></path><path transform="translate(208.99999999999994,233.18792562966166)" d="M0,1.7841241161527712A1.7841241161527712,1.7841241161527712 0 1,1 0,-1.7841241161527712A1.7841241161527712,1.7841241161527712 0 1,1 0,1.7841241161527712Z" style="fill: rgb(31, 119, 180);"></path><path transform="translate(168.99999999999997,343.15787482434337)" d="M0,1.7841241161527712A1.7841241161527712,1.7841241161527712 0 1,1 0,-1.7841241161527712A1.7841241161527712,1.7841241161527712 0 1,1 0,1.7841241161527712Z" style="fill: rgb(31, 119, 180);"></path><path transform="translate(168.99999999999997,356.4134507981119)" d="M0,1.7841241161527712A1.7841241161527712,1.7841241161527712 0 1,1 0,-1.7841241161527712A1.7841241161527712,1.7841241161527712 0 1,1 0,1.7841241161527712Z" style="fill: rgb(31, 119, 180);"></path><path transform="translate(148.99999999999997,351.6728461787915)" d="M0,1.7841241161527712A1.7841241161527712,1.7841241161527712 0 1,1 0,-1.7841241161527712A1.7841241161527712,1.7841241161527712 0 1,1 0,1.7841241161527712Z" style="fill: rgb(31, 119, 180);"></path><path transform="translate(168.99999999999997,373.081054300436)" d="M0,1.7841241161527712A1.7841241161527712,1.7841241161527712 0 1,1 0,-1.7841241161527712A1.7841241161527712,1.7841241161527712 0 1,1 0,1.7841241161527712Z" style="fill: rgb(31, 119, 180);"></path><path transform="translate(268.99999999999994,372.6583252261017)" d="M0,1.7841241161527712A1.7841241161527712,1.7841241161527712 0 1,1 0,-1.7841241161527712A1.7841241161527712,1.7841241161527712 0 1,1 0,1.7841241161527712Z" style="fill: rgb(31, 119, 180);"></path><path transform="translate(108.99999999999999,186.17441357691058)" d="M0,1.7841241161527712A1.7841241161527712,1.7841241161527712 0 1,1 0,-1.7841241161527712A1.7841241161527712,1.7841241161527712 0 1,1 0,1.7841241161527712Z" style="fill: rgb(31, 119, 180);"></path><path transform="translate(348.99999999999994,359.0102151118798)" d="M0,1.7841241161527712A1.7841241161527712,1.7841241161527712 0 1,1 0,-1.7841241161527712A1.7841241161527712,1.7841241161527712 0 1,1 0,1.7841241161527712Z" style="fill: rgb(31, 119, 180);"></path><path transform="translate(468.99999999999994,365.71349043346663)" d="M0,1.7841241161527712A1.7841241161527712,1.7841241161527712 0 1,1 0,-1.7841241161527712A1.7841241161527712,1.7841241161527712 0 1,1 0,1.7841241161527712Z" style="fill: rgb(31, 119, 180);"></path><path transform="translate(288.99999999999994,363.9923792022484)" d="M0,1.7841241161527712A1.7841241161527712,1.7841241161527712 0 1,1 0,-1.7841241161527712A1.7841241161527712,1.7841241161527712 0 1,1 0,1.7841241161527712Z" style="fill: rgb(31, 119, 180);"></path><path transform="translate(308.99999999999994,303.48173170468056)" d="M0,1.7841241161527712A1.7841241161527712,1.7841241161527712 0 1,1 0,-1.7841241161527712A1.7841241161527712,1.7841241161527712 0 1,1 0,1.7841241161527712Z" style="fill: rgb(31, 119, 180);"></path><path transform="translate(148.99999999999997,376.73464130003964)" d="M0,1.7841241161527712A1.7841241161527712,1.7841241161527712 0 1,1 0,-1.7841241161527712A1.7841241161527712,1.7841241161527712 0 1,1 0,1.7841241161527712Z" style="fill: rgb(31, 119, 180);"></path><path transform="translate(148.99999999999997,324.25584621482363)" d="M0,1.7841241161527712A1.7841241161527712,1.7841241161527712 0 1,1 0,-1.7841241161527712A1.7841241161527712,1.7841241161527712 0 1,1 0,1.7841241161527712Z" style="fill: rgb(31, 119, 180);"></path><path transform="translate(148.99999999999997,350.3442690880265)" d="M0,1.7841241161527712A1.7841241161527712,1.7841241161527712 0 1,1 0,-1.7841241161527712A1.7841241161527712,1.7841241161527712 0 1,1 0,1.7841241161527712Z" style="fill: rgb(31, 119, 180);"></path><path transform="translate(168.99999999999997,341.64812813029226)" d="M0,1.7841241161527712A1.7841241161527712,1.7841241161527712 0 1,1 0,-1.7841241161527712A1.7841241161527712,1.7841241161527712 0 1,1 0,1.7841241161527712Z" style="fill: rgb(31, 119, 180);"></path><path transform="translate(168.99999999999997,356.71540013692214)" d="M0,1.7841241161527712A1.7841241161527712,1.7841241161527712 0 1,1 0,-1.7841241161527712A1.7841241161527712,1.7841241161527712 0 1,1 0,1.7841241161527712Z" style="fill: rgb(31, 119, 180);"></path><path transform="translate(168.99999999999997,365.74368536734767)" d="M0,1.7841241161527712A1.7841241161527712,1.7841241161527712 0 1,1 0,-1.7841241161527712A1.7841241161527712,1.7841241161527712 0 1,1 0,1.7841241161527712Z" style="fill: rgb(31, 119, 180);"></path><path transform="translate(268.99999999999994,373.3528087053652)" d="M0,1.7841241161527712A1.7841241161527712,1.7841241161527712 0 1,1 0,-1.7841241161527712A1.7841241161527712,1.7841241161527712 0 1,1 0,1.7841241161527712Z" style="fill: rgb(31, 119, 180);"></path><path transform="translate(128.99999999999997,206.7371635498865)" d="M0,5.641895835477563A5.641895835477563,5.641895835477563 0 1,1 0,-5.641895835477563A5.641895835477563,5.641895835477563 0 1,1 0,5.641895835477563Z" style="fill: rgb(255, 127, 14);"></path><path transform="translate(248.99999999999994,309.2489640759557)" d="M0,5.641895835477563A5.641895835477563,5.641895835477563 0 1,1 0,-5.641895835477563A5.641895835477563,5.641895835477563 0 1,1 0,5.641895835477563Z" style="fill: rgb(255, 127, 14);"></path><path transform="translate(288.99999999999994,205.3783915252405)" d="M0,5.641895835477563A5.641895835477563,5.641895835477563 0 1,1 0,-5.641895835477563A5.641895835477563,5.641895835477563 0 1,1 0,5.641895835477563Z" style="fill: rgb(255, 127, 14);"></path><path transform="translate(248.99999999999994,311.2418297121032)" d="M0,5.641895835477563A5.641895835477563,5.641895835477563 0 1,1 0,-5.641895835477563A5.641895835477563,5.641895835477563 0 1,1 0,5.641895835477563Z" style="fill: rgb(255, 127, 14);"></path><path transform="translate(488.99999999999994,360.76152127697907)" d="M0,5.641895835477563A5.641895835477563,5.641895835477563 0 1,1 0,-5.641895835477563A5.641895835477563,5.641895835477563 0 1,1 0,5.641895835477563Z" style="fill: rgb(255, 127, 14);"></path><path transform="translate(268.99999999999994,345.96600367527833)" d="M0,5.641895835477563A5.641895835477563,5.641895835477563 0 1,1 0,-5.641895835477563A5.641895835477563,5.641895835477563 0 1,1 0,5.641895835477563Z" style="fill: rgb(255, 127, 14);"></path><path transform="translate(208.99999999999994,253.87145533816164)" d="M0,5.641895835477563A5.641895835477563,5.641895835477563 0 1,1 0,-5.641895835477563A5.641895835477563,5.641895835477563 0 1,1 0,5.641895835477563Z" style="fill: rgb(255, 127, 14);"></path><path transform="translate(208.99999999999994,369.60863690411844)" d="M0,5.641895835477563A5.641895835477563,5.641895835477563 0 1,1 0,-5.641895835477563A5.641895835477563,5.641895835477563 0 1,1 0,5.641895835477563Z" style="fill: rgb(255, 127, 14);"></path><path transform="translate(288.99999999999994,324.2256512809426)" d="M0,5.641895835477563A5.641895835477563,5.641895835477563 0 1,1 0,-5.641895835477563A5.641895835477563,5.641895835477563 0 1,1 0,5.641895835477563Z" style="fill: rgb(255, 127, 14);"></path><path transform="translate(348.99999999999994,363.479065326271)" d="M0,5.641895835477563A5.641895835477563,5.641895835477563 0 1,1 0,-5.641895835477563A5.641895835477563,5.641895835477563 0 1,1 0,5.641895835477563Z" style="fill: rgb(255, 127, 14);"></path><path transform="translate(388.99999999999994,378.6973120023061)" d="M0,5.641895835477563A5.641895835477563,5.641895835477563 0 1,1 0,-5.641895835477563A5.641895835477563,5.641895835477563 0 1,1 0,5.641895835477563Z" style="fill: rgb(255, 127, 14);"></path><path transform="translate(68.99999999999999,107.09388174251433)" d="M0,5.641895835477563A5.641895835477563,5.641895835477563 0 1,1 0,-5.641895835477563A5.641895835477563,5.641895835477563 0 1,1 0,5.641895835477563Z" style="fill: rgb(255, 127, 14);"></path><path transform="translate(308.99999999999994,381.71680539040824)" d="M0,5.641895835477563A5.641895835477563,5.641895835477563 0 1,1 0,-5.641895835477563A5.641895835477563,5.641895835477563 0 1,1 0,5.641895835477563Z" style="fill: rgb(255, 127, 14);"></path><path transform="translate(488.99999999999994,384.64571397686734)" d="M0,5.641895835477563A5.641895835477563,5.641895835477563 0 1,1 0,-5.641895835477563A5.641895835477563,5.641895835477563 0 1,1 0,5.641895835477563Z" style="fill: rgb(255, 127, 14);"></path><path transform="translate(148.99999999999997,321.2061578928404)" d="M0,5.641895835477563A5.641895835477563,5.641895835477563 0 1,1 0,-5.641895835477563A5.641895835477563,5.641895835477563 0 1,1 0,5.641895835477563Z" style="fill: rgb(255, 127, 14);"></path><path transform="translate(409,386.15546067091844)" d="M0,5.641895835477563A5.641895835477563,5.641895835477563 0 1,1 0,-5.641895835477563A5.641895835477563,5.641895835477563 0 1,1 0,5.641895835477563Z" style="fill: rgb(255, 127, 14);"></path><path transform="translate(148.99999999999997,326.64124599142434)" d="M0,5.641895835477563A5.641895835477563,5.641895835477563 0 1,1 0,-5.641895835477563A5.641895835477563,5.641895835477563 0 1,1 0,5.641895835477563Z" style="fill: rgb(255, 127, 14);"></path><path transform="translate(248.99999999999994,283.7342449464923)" d="M0,5.641895835477563A5.641895835477563,5.641895835477563 0 1,1 0,-5.641895835477563A5.641895835477563,5.641895835477563 0 1,1 0,5.641895835477563Z" style="fill: rgb(255, 127, 14);"></path><path transform="translate(609,336.3640147011134)" d="M0,5.641895835477563A5.641895835477563,5.641895835477563 0 1,1 0,-5.641895835477563A5.641895835477563,5.641895835477563 0 1,1 0,5.641895835477563Z" style="fill: rgb(255, 127, 14);"></path><path transform="translate(288.99999999999994,357.5004684178287)" d="M0,5.641895835477563A5.641895835477563,5.641895835477563 0 1,1 0,-5.641895835477563A5.641895835477563,5.641895835477563 0 1,1 0,5.641895835477563Z" style="fill: rgb(255, 127, 14);"></path><path transform="translate(288.99999999999994,292.4907757719886)" d="M0,5.641895835477563A5.641895835477563,5.641895835477563 0 1,1 0,-5.641895835477563A5.641895835477563,5.641895835477563 0 1,1 0,5.641895835477563Z" style="fill: rgb(255, 127, 14);"></path><path transform="translate(128.99999999999997,137.13784095413106)" d="M0,5.641895835477563A5.641895835477563,5.641895835477563 0 1,1 0,-5.641895835477563A5.641895835477563,5.641895835477563 0 1,1 0,5.641895835477563Z" style="fill: rgb(255, 127, 14);"></path></g><g id="g41" class="type-group"><g transform="translate(649.5,0.5)"><rect class="background" width="62" height="46" style="pointer-events: none; fill: none;"></rect><g id="g42" class="type-text" style="pointer-events: none;"><text x="3" y="3" text-anchor="start" dy=".9em" style="font: bold 11px sans-serif; fill: rgb(0, 0, 0); opacity: 1;">foreign</text></g><g id="g43" class="type-symbol" style="pointer-events: none;"><path transform="translate(7.5,23)" d="M0,3.989422804014327A3.989422804014327,3.989422804014327 0 1,1 0,-3.989422804014327A3.989422804014327,3.989422804014327 0 1,1 0,3.989422804014327Z" style="fill: rgb(31, 119, 180); stroke: rgb(136, 136, 136); stroke-width: 1; opacity: 1;"></path><path transform="translate(7.5,38)" d="M0,3.989422804014327A3.989422804014327,3.989422804014327 0 1,1 0,-3.989422804014327A3.989422804014327,3.989422804014327 0 1,1 0,3.989422804014327Z" style="fill: rgb(255, 127, 14); stroke: rgb(136, 136, 136); stroke-width: 1; opacity: 1;"></path></g><g id="g44" class="type-text" style="pointer-events: none;"><text x="16" y="23" text-anchor="start" dy=".35em" style="font: 10px sans-serif; fill: rgb(0, 0, 0); opacity: 1;">Domestic</text><text x="16" y="38" text-anchor="start" dy=".35em" style="font: 10px sans-serif; fill: rgb(0, 0, 0); opacity: 1;">Foreign</text></g></g></g><g id="g45" class="type-group"><g transform="translate(649.5,0.5)"><rect class="background" width="65" height="40" style="pointer-events: none; fill: none;"></rect><g id="g46" class="type-text" style="pointer-events: none;"><text x="3" y="3" text-anchor="start" dy=".9em" style="font: bold 11px sans-serif; fill: rgb(0, 0, 0); opacity: 1;">foreign</text></g><g id="g47" class="type-symbol" style="pointer-events: none;"><path transform="translate(9,21)" d="M0,1.7841241161527712A1.7841241161527712,1.7841241161527712 0 1,1 0,-1.7841241161527712A1.7841241161527712,1.7841241161527712 0 1,1 0,1.7841241161527712Z" style="fill: none; stroke: rgb(136, 136, 136); stroke-width: 1; opacity: 1;"></path><path transform="translate(9,32)" d="M0,5.641895835477563A5.641895835477563,5.641895835477563 0 1,1 0,-5.641895835477563A5.641895835477563,5.641895835477563 0 1,1 0,5.641895835477563Z" style="fill: none; stroke: rgb(136, 136, 136); stroke-width: 1; opacity: 1;"></path></g><g id="g48" class="type-text" style="pointer-events: none;"><text x="19" y="21" text-anchor="start" dy=".35em" style="font: 10px sans-serif; fill: rgb(0, 0, 0); opacity: 1;">Domestic</text><text x="19" y="32" text-anchor="start" dy=".35em" style="font: 10px sans-serif; fill: rgb(0, 0, 0); opacity: 1;">Foreign</text></g></g></g></g></g></g></svg>