<svg class="marks" width="769" height="473" xmlns="http://www.w3.org/2000/svg"><g transform="translate(49,6)"><g id="g17" class="type-group"><g transform="translate(0,0)"><rect class="background" width="714" height="419" style="pointer-events: none; fill: none;"></rect><g id="g18" class="type-group"><g transform="translate(0,419)"><rect class="background" width="0" height="0" style="pointer-events: none; fill: none;"></rect><g id="g19" class="type-rule" style="pointer-events: none;"><line x1="32.954545454545446" y1="-419" x2="32.954545454545446" y2="0" style="fill: none; stroke: rgb(216, 216, 216); stroke-width: 1; opacity: 1;"></line><line x1="114.09090909090907" y1="-419" x2="114.09090909090907" y2="0" style="fill: none; stroke: rgb(216, 216, 216); stroke-width: 1; opacity: 1;"></line><line x1="195.22727272727272" y1="-419" x2="195.22727272727272" y2="0" style="fill: none; stroke: rgb(216, 216, 216); stroke-width: 1; opacity: 1;"></line><line x1="276.3636363636363" y1="-419" x2="276.3636363636363" y2="0" style="fill: none; stroke: rgb(216, 216, 216); stroke-width: 1; opacity: 1;"></line><line x1="357.5" y1="-419" x2="357.5" y2="0" style="fill: none; stroke: rgb(216, 216, 216); stroke-width: 1; opacity: 1;"></line><line x1="438.6363636363636" y1="-419" x2="438.6363636363636" y2="0" style="fill: none; stroke: rgb(216, 216, 216); stroke-width: 1; opacity: 1;"></line><line x1="519.7727272727273" y1="-419" x2="519.7727272727273" y2="0" style="fill: none; stroke: rgb(216, 216, 216); stroke-width: 1; opacity: 1;"></line><line x1="600.9090909090909" y1="-419" x2="600.9090909090909" y2="0" style="fill: none; stroke: rgb(216, 216, 216); stroke-width: 1; opacity: 1;"></line><line x1="682.0454545454545" y1="-419" x2="682.0454545454545" y2="0" style="fill: none; stroke: rgb(216, 216, 216); stroke-width: 1; opacity: 1;"></line></g><g id="g20" class="type-rule" style="pointer-events: none;"><line x1="32.954545454545446" y1="0" x2="32.954545454545446" y2="6" style="fill: none; stroke: rgb(0, 0, 0); stroke-width: 1; opacity: 1;"></line><line x1="114.09090909090907" y1="0" x2="114.09090909090907" y2="6" style="fill: none; stroke: rgb(0, 0, 0); stroke-width: 1; opacity: 1;"></line><line x1="195.22727272727272" y1="0" x2="195.22727272727272" y2="6" style="fill: none; stroke: rgb(0, 0, 0); stroke-width: 1; opacity: 1;"></line><line x1="276.3636363636363" y1="0" x2="276.3636363636363" y2="6" style="fill: none; stroke: rgb(0, 0, 0); stroke-width: 1; opacity: 1;"></line><line x1="357.5" y1="0" x2="357.5" y2="6" style="fill: none; stroke: rgb(0, 0, 0); stroke-width: 1; opacity: 1;"></line><line x1="438.6363636363636" y1="0" x2="438.6363636363636" y2="6" style="fill: none; stroke: rgb(0, 0, 0); stroke-width: 1; opacity: 1;"></line><line x1="519.7727272727273" y1="0" x2="519.7727272727273" y2="6" style="fill: none; stroke: rgb(0, 0, 0); stroke-width: 1; opacity: 1;"></line><line x1="600.9090909090909" y1="0" x2="600.9090909090909" y2="6" style="fill: none; stroke: rgb(0, 0, 0); stroke-width: 1; opacity: 1;"></line><line x1="682.0454545454545" y1="0" x2="682.0454545454545" y2="6" style="fill: none; stroke: rgb(0, 0, 0); stroke-width: 1; opacity: 1;"></line></g><g id="g21" class="type-rule" style="pointer-events: none;"></g><g id="g22" class="type-text"><text x="32.954545454545446" y="9" text-anchor="middle" dy=".9em" style="font: 11px sans-serif; fill: rgb(0, 0, 0); opacity: 1;">1.0</text><text x="114.09090909090907" y="9" text-anchor="middle" dy=".9em" style="font: 11px sans-serif; fill: rgb(0, 0, 0); opacity: 1;">1.5</text><text x="195.22727272727272" y="9" text-anchor="middle" dy=".9em" style="font: 11px sans-serif; fill: rgb(0, 0, 0); opacity: 1;">2.0</text><text x="276.3636363636363" y="9" text-anchor="middle" dy=".9em" style="font: 11px sans-serif; fill: rgb(0, 0, 0); opacity: 1;">2.5</text><text x="357.5" y="9" text-anchor="middle" dy=".9em" style="font: 11px sans-serif; fill: rgb(0, 0, 0); opacity: 1;">3.0</text><text x="438.6363636363636" y="9" text-anchor="middle" dy=".9em" style="font: 11px sans-serif; fill: rgb(0, 0, 0); opacity: 1;">3.5</text><text x="519.7727272727273" y="9" text-anchor="middle" dy=".9em" style="font: 11px sans-serif; fill: rgb(0, 0, 0); opacity: 1;">4.0</text><text x="600.9090909090909" y="9" text-anchor="middle" dy=".9em" style="font: 11px sans-serif; fill: rgb(0, 0, 0); opacity: 1;">4.5</text><text x="682.0454545454545" y="9" text-anchor="middle" dy=".9em" style="font: 11px sans-serif; fill: rgb(0, 0, 0); opacity: 1;">5.0</text></g><g id="g23" class="type-path" style="pointer-events: none;"><path transform="translate(0.5,0.5)" d="M0,6V0H714V6" style="fill: none; stroke: rgb(0, 0, 0); stroke-width: 1;"></path></g><g id="g24" class="type-text"><text x="357" y="35" text-anchor="middle" dy=".35em" style="font: bold 11px sans-serif; fill: rgb(0, 0, 0);">rep78</text></g></g></g><g id="g25" class="type-group"><g transform="translate(0,0)"><rect class="background" width="0" height="0" style="pointer-events: none; fill: none;"></rect><g id="g26" class="type-rule" style="pointer-events: none;"><line x1="0" y1="400.4545454545455" x2="714" y2="400.4545454545455" style="fill: none; stroke: rgb(216, 216, 216); stroke-width: 1; opacity: 1;"></line><line x1="0" y1="352.5595258507367" x2="714" y2="352.5595258507367" style="fill: none; stroke: rgb(216, 216, 216); stroke-width: 1; opacity: 1;"></line><line x1="0" y1="304.66450624692794" x2="714" y2="304.66450624692794" style="fill: none; stroke: rgb(216, 216, 216); stroke-width: 1; opacity: 1;"></line><line x1="0" y1="256.7694866431192" x2="714" y2="256.7694866431192" style="fill: none; stroke: rgb(216, 216, 216); stroke-width: 1; opacity: 1;"></line><line x1="0" y1="208.87446703931047" x2="714" y2="208.87446703931047" style="fill: none; stroke: rgb(216, 216, 216); stroke-width: 1; opacity: 1;"></line><line x1="0" y1="160.97944743550175" x2="714" y2="160.97944743550175" style="fill: none; stroke: rgb(216, 216, 216); stroke-width: 1; opacity: 1;"></line><line x1="0" y1="113.084427831693" x2="714" y2="113.084427831693" style="fill: none; stroke: rgb(216, 216, 216); stroke-width: 1; opacity: 1;"></line><line x1="0" y1="65.18940822788427" x2="714" y2="65.18940822788427" style="fill: none; stroke: rgb(216, 216, 216); stroke-width: 1; opacity: 1;"></line><line x1="0" y1="17.294388624075538" x2="714" y2="17.294388624075538" style="fill: none; stroke: rgb(216, 216, 216); stroke-width: 1; opacity: 1;"></line></g><g id="g27" class="type-rule" style="pointer-events: none;"><line x1="-6" y1="400.4545454545455" x2="0" y2="400.4545454545455" style="fill: none; stroke: rgb(0, 0, 0); stroke-width: 1; opacity: 1;"></line><line x1="-6" y1="352.5595258507367" x2="0" y2="352.5595258507367" style="fill: none; stroke: rgb(0, 0, 0); stroke-width: 1; opacity: 1;"></line><line x1="-6" y1="304.66450624692794" x2="0" y2="304.66450624692794" style="fill: none; stroke: rgb(0, 0, 0); stroke-width: 1; opacity: 1;"></line><line x1="-6" y1="256.7694866431192" x2="0" y2="256.7694866431192" style="fill: none; stroke: rgb(0, 0, 0); stroke-width: 1; opacity: 1;"></line><line x1="-6" y1="208.87446703931047" x2="0" y2="208.87446703931047" style="fill: none; stroke: rgb(0, 0, 0); stroke-width: 1; opacity: 1;"></line><line x1="-6" y1="160.97944743550175" x2="0" y2="160.97944743550175" style="fill: none; stroke: rgb(0, 0, 0); stroke-width: 1; opacity: 1;"></line><line x1="-6" y1="113.084427831693" x2="0" y2="113.084427831693" style="fill: none; stroke: rgb(0, 0, 0); stroke-width: 1; opacity: 1;"></line><line x1="-6" y1="65.18940822788427" x2="0" y2="65.18940822788427" style="fill: none; stroke: rgb(0, 0, 0); stroke-width: 1; opacity: 1;"></line><line x1="-6" y1="17.294388624075538" x2="0" y2="17.294388624075538" style="fill: none; stroke: rgb(0, 0, 0); stroke-width: 1; opacity: 1;"></line></g><g id="g28" class="type-rule" style="pointer-events: none;"></g><g id="g29" class="type-text"><text x="-9" y="400.4545454545455" text-anchor="end" dy=".35em" style="font: 11px sans-serif; fill: rgb(0, 0, 0); opacity: 1;">0</text><text x="-9" y="352.5595258507367" text-anchor="end" dy=".35em" style="font: 11px sans-serif; fill: rgb(0, 0, 0); opacity: 1;">2,000</text><text x="-9" y="304.66450624692794" text-anchor="end" dy=".35em" style="font: 11px sans-serif; fill: rgb(0, 0, 0); opacity: 1;">4,000</text><text x="-9" y="256.7694866431192" text-anchor="end" dy=".35em" style="font: 11px sans-serif; fill: rgb(0, 0, 0); opacity: 1;">6,000</text><text x="-9" y="208.87446703931047" text-anchor="end" dy=".35em" style="font: 11px sans-serif; fill: rgb(0, 0, 0); opacity: 1;">8,000</text><text x="-9" y="160.97944743550175" text-anchor="end" dy=".35em" style="font: 11px sans-serif; fill: rgb(0, 0, 0); opacity: 1;">10,000</text><text x="-9" y="113.084427831693" text-anchor="end" dy=".35em" style="font: 11px sans-serif; fill: rgb(0, 0, 0); opacity: 1;">12,000</text><text x="-9" y="65.18940822788427" text-anchor="end" dy=".35em" style="font: 11px sans-serif; fill: rgb(0, 0, 0); opacity: 1;">14,000</text><text x="-9" y="17.294388624075538" text-anchor="end" dy=".35em" style="font: 11px sans-serif; fill: rgb(0, 0, 0); opacity: 1;">16,000</text></g><g id="g30" class="type-path" style="pointer-events: none;"><path transform="translate(0.5,0.5)" d="M-6,0H0V419H-6" style="fill: none; stroke: rgb(0, 0, 0); stroke-width: 1;"></path></g><g id="g31" class="type-text"><text x="-35" y="209" text-anchor="middle" transform="rotate(-90 -35,209)" dy=".35em" style="font: bold 11px sans-serif; fill: rgb(0, 0, 0);">price</text></g></g></g><g id="g32" class="type-rect"><rect x="357" y="301.7937027765394" width="10" height="98.16084267800608" style="fill: rgb(51, 51, 51); stroke: rgb(0, 0, 0);"></rect><rect x="357" y="286.2278214053016" width="10" height="113.7267240492439" style="fill: rgb(51, 51, 51); stroke: rgb(0, 0, 0);"></rect><rect x="0" y="308.9779557171107" width="10" height="90.97658973743478" style="fill: rgb(51, 51, 51); stroke: rgb(0, 0, 0);"></rect><rect x="357" y="284.623338248574" width="10" height="115.33120720597151" style="fill: rgb(51, 51, 51); stroke: rgb(0, 0, 0);"></rect><rect x="519.2727272727273" y="212.51738623503996" width="10" height="187.43715921950553" style="fill: rgb(51, 51, 51); stroke: rgb(0, 0, 0);"></rect><rect x="357" y="261.3463587211229" width="10" height="138.6081867334226" style="fill: rgb(51, 51, 51); stroke: rgb(0, 0, 0);"></rect><rect x="0" y="293.3162843066653" width="10" height="106.6382611478802" style="fill: rgb(51, 51, 51); stroke: rgb(0, 0, 0);"></rect><rect x="357" y="275.6909170924637" width="10" height="124.26362836208182" style="fill: rgb(51, 51, 51); stroke: rgb(0, 0, 0);"></rect><rect x="357" y="151.57097378919332" width="10" height="248.38357166535218" style="fill: rgb(51, 51, 51); stroke: rgb(0, 0, 0);"></rect><rect x="357" y="302.2008104431718" width="10" height="97.75373501137369" style="fill: rgb(51, 51, 51); stroke: rgb(0, 0, 0);"></rect><rect x="357" y="127.3121463598642" width="10" height="272.6423990946813" style="fill: rgb(51, 51, 51); stroke: rgb(0, 0, 0);"></rect><rect x="194.72727272727272" y="52.71565332693209" width="10" height="347.2388921276134" style="fill: rgb(51, 51, 51); stroke: rgb(0, 0, 0);"></rect><rect x="357" y="19.04545454545453" width="10" height="380.909090909091" style="fill: rgb(51, 51, 51); stroke: rgb(0, 0, 0);"></rect><rect x="357" y="320.9517106180629" width="10" height="79.00283483648258" style="fill: rgb(51, 51, 51); stroke: rgb(0, 0, 0);"></rect><rect x="519.2727272727273" y="263.33400203468096" width="10" height="136.62054341986453" style="fill: rgb(51, 51, 51); stroke: rgb(0, 0, 0);"></rect><rect x="357" y="292.09496130676814" width="10" height="107.85958414777735" style="fill: rgb(51, 51, 51); stroke: rgb(0, 0, 0);"></rect><rect x="194.72727272727272" y="277.7264554256255" width="10" height="122.22809002892001" style="fill: rgb(51, 51, 51); stroke: rgb(0, 0, 0);"></rect><rect x="194.72727272727272" y="312.13902701096214" width="10" height="87.81551844358336" style="fill: rgb(51, 51, 51); stroke: rgb(0, 0, 0);"></rect><rect x="357" y="305.24214418801364" width="10" height="94.71240126653186" style="fill: rgb(51, 51, 51); stroke: rgb(0, 0, 0);"></rect><rect x="681.5454545454545" y="304.5476664037584" width="10" height="95.4068790507871" style="fill: rgb(51, 51, 51); stroke: rgb(0, 0, 0);"></rect><rect x="194.72727272727272" y="303.9250311489089" width="10" height="96.02951430563661" style="fill: rgb(51, 51, 51); stroke: rgb(0, 0, 0);"></rect><rect x="194.72727272727272" y="258.9995027605363" width="10" height="140.9550426940092" style="fill: rgb(51, 51, 51); stroke: rgb(0, 0, 0);"></rect><rect x="194.72727272727272" y="248.07943829086793" width="10" height="151.87510716367757" style="fill: rgb(51, 51, 51); stroke: rgb(0, 0, 0);"></rect><rect x="519.2727272727273" y="294.8489249339871" width="10" height="105.10562052055838" style="fill: rgb(51, 51, 51); stroke: rgb(0, 0, 0);"></rect><rect x="357" y="299.6863219139718" width="10" height="100.26822354057367" style="fill: rgb(51, 51, 51); stroke: rgb(0, 0, 0);"></rect><rect x="357" y="124.6300252620509" width="10" height="275.32452019249456" style="fill: rgb(51, 51, 51); stroke: rgb(0, 0, 0);"></rect><rect x="357" y="74.41209720745742" width="10" height="325.5424482470881" style="fill: rgb(51, 51, 51); stroke: rgb(0, 0, 0);"></rect><rect x="357" y="77.47737846210117" width="10" height="322.4771669924443" style="fill: rgb(51, 51, 51); stroke: rgb(0, 0, 0);"></rect><rect x="519.2727272727273" y="308.2595304230536" width="10" height="91.69501503149189" style="fill: rgb(51, 51, 51); stroke: rgb(0, 0, 0);"></rect><rect x="519.2727272727273" y="271.1408902301019" width="10" height="128.8136552244436" style="fill: rgb(51, 51, 51); stroke: rgb(0, 0, 0);"></rect><rect x="357" y="252.318147525805" width="10" height="147.6363979287405" style="fill: rgb(51, 51, 51); stroke: rgb(0, 0, 0);"></rect><rect x="357" y="291.8075911891453" width="10" height="108.14695426540021" style="fill: rgb(51, 51, 51); stroke: rgb(0, 0, 0);"></rect><rect x="519.2727272727273" y="249.0133911731422" width="10" height="150.9411542814033" style="fill: rgb(51, 51, 51); stroke: rgb(0, 0, 0);"></rect><rect x="357" y="321.1432906964782" width="10" height="78.81125475806732" style="fill: rgb(51, 51, 51); stroke: rgb(0, 0, 0);"></rect><rect x="519.2727272727273" y="188.88119406056035" width="10" height="211.07335139398515" style="fill: rgb(51, 51, 51); stroke: rgb(0, 0, 0);"></rect><rect x="357" y="276.09802475909606" width="10" height="123.85652069544943" style="fill: rgb(51, 51, 51); stroke: rgb(0, 0, 0);"></rect><rect x="357" y="286.61098156213205" width="10" height="113.34356389241344" style="fill: rgb(51, 51, 51); stroke: rgb(0, 0, 0);"></rect><rect x="519.2727272727273" y="282.8512225232331" width="10" height="117.10332293131239" style="fill: rgb(51, 51, 51); stroke: rgb(0, 0, 0);"></rect><rect x="357" y="299.8300069727833" width="10" height="100.12453848176222" style="fill: rgb(51, 51, 51); stroke: rgb(0, 0, 0);"></rect><rect x="32.454545454545446" y="299.4947418355566" width="10" height="100.45980361898887" style="fill: rgb(51, 51, 51); stroke: rgb(0, 0, 0);"></rect><rect x="357" y="151.59492129899525" width="10" height="248.35962415555025" style="fill: rgb(51, 51, 51); stroke: rgb(0, 0, 0);"></rect><rect x="357" y="288.67046740509585" width="10" height="111.28407804944965" style="fill: rgb(51, 51, 51); stroke: rgb(0, 0, 0);"></rect><rect x="681.5454545454545" y="293.9868145811186" width="10" height="105.96773087342689" style="fill: rgb(51, 51, 51); stroke: rgb(0, 0, 0);"></rect><rect x="357" y="292.62180652241005" width="10" height="107.33273893213544" style="fill: rgb(51, 51, 51); stroke: rgb(0, 0, 0);"></rect><rect x="0" y="244.63099687939365" width="10" height="155.32354857515185" style="fill: rgb(51, 51, 51); stroke: rgb(0, 0, 0);"></rect><rect x="194.72727272727272" y="302.7276556588137" width="10" height="97.22688979573178" style="fill: rgb(51, 51, 51); stroke: rgb(0, 0, 0);"></rect><rect x="519.2727272727273" y="261.1068836231039" width="10" height="138.8476618314416" style="fill: rgb(51, 51, 51); stroke: rgb(0, 0, 0);"></rect><rect x="32.454545454545446" y="281.7975320919493" width="10" height="118.15701336259622" style="fill: rgb(51, 51, 51); stroke: rgb(0, 0, 0);"></rect><rect x="357" y="274.9006492690008" width="10" height="125.05389618554472" style="fill: rgb(51, 51, 51); stroke: rgb(0, 0, 0);"></rect><rect x="357" y="286.8504566601511" width="10" height="113.10408879439439" style="fill: rgb(51, 51, 51); stroke: rgb(0, 0, 0);"></rect><rect x="0" y="294.0107620909205" width="10" height="105.94378336362502" style="fill: rgb(51, 51, 51); stroke: rgb(0, 0, 0);"></rect><rect x="194.72727272727272" y="300.0455345610004" width="10" height="99.90901089354509" style="fill: rgb(51, 51, 51); stroke: rgb(0, 0, 0);"></rect><rect x="681.5454545454545" y="167.9031754740921" width="10" height="232.0513699804534" style="fill: rgb(51, 51, 51); stroke: rgb(0, 0, 0);"></rect><rect x="357" y="249.20497125155745" width="10" height="150.74957420298804" style="fill: rgb(51, 51, 51); stroke: rgb(0, 0, 0);"></rect><rect x="519.2727272727273" y="166.82553753300644" width="10" height="233.12900792153906" style="fill: rgb(51, 51, 51); stroke: rgb(0, 0, 0);"></rect><rect x="519.2727272727273" y="250.78550689848313" width="10" height="149.16903855606236" style="fill: rgb(51, 51, 51); stroke: rgb(0, 0, 0);"></rect><rect x="681.5454545454545" y="290.0594229736063" width="10" height="109.89512248093922" style="fill: rgb(51, 51, 51); stroke: rgb(0, 0, 0);"></rect><rect x="519.2727272727273" y="278.32514317067313" width="10" height="121.62940228387237" style="fill: rgb(51, 51, 51); stroke: rgb(0, 0, 0);"></rect><rect x="519.2727272727273" y="205.2852382748648" width="10" height="194.6693071796807" style="fill: rgb(51, 51, 51); stroke: rgb(0, 0, 0);"></rect><rect x="357" y="297.07604334556424" width="10" height="102.87850210898125" style="fill: rgb(51, 51, 51); stroke: rgb(0, 0, 0);"></rect><rect x="681.5454545454545" y="261.082936113302" width="10" height="138.87160934124347" style="fill: rgb(51, 51, 51); stroke: rgb(0, 0, 0);"></rect><rect x="519.2727272727273" y="292.21469885577767" width="10" height="107.73984659876783" style="fill: rgb(51, 51, 51); stroke: rgb(0, 0, 0);"></rect><rect x="519.2727272727273" y="304.28424379593747" width="10" height="95.67030165860803" style="fill: rgb(51, 51, 51); stroke: rgb(0, 0, 0);"></rect><rect x="0" y="88.87639312780769" width="10" height="311.07815232673784" style="fill: rgb(51, 51, 51); stroke: rgb(0, 0, 0);"></rect><rect x="357" y="306.6789947761279" width="10" height="93.27555067841757" style="fill: rgb(51, 51, 51); stroke: rgb(0, 0, 0);"></rect><rect x="681.5454545454545" y="309.00190322691265" width="10" height="90.95264222763285" style="fill: rgb(51, 51, 51); stroke: rgb(0, 0, 0);"></rect><rect x="681.5454545454545" y="258.6881851331116" width="10" height="141.26636032143392" style="fill: rgb(51, 51, 51); stroke: rgb(0, 0, 0);"></rect><rect x="681.5454545454545" y="310.1992787170078" width="10" height="89.75526673753768" style="fill: rgb(51, 51, 51); stroke: rgb(0, 0, 0);"></rect><rect x="681.5454545454545" y="262.9987368974543" width="10" height="136.9558085570912" style="fill: rgb(51, 51, 51); stroke: rgb(0, 0, 0);"></rect><rect x="519.2727272727273" y="228.96932546894826" width="10" height="170.98521998559724" style="fill: rgb(51, 51, 51); stroke: rgb(0, 0, 0);"></rect><rect x="681.5454545454545" y="270.7098350536675" width="10" height="129.24471040087798" style="fill: rgb(51, 51, 51); stroke: rgb(0, 0, 0);"></rect><rect x="519.2727272727273" y="287.4730919150006" width="10" height="112.48145353954487" style="fill: rgb(51, 51, 51); stroke: rgb(0, 0, 0);"></rect><rect x="519.2727272727273" y="235.91410331150053" width="10" height="164.04044214304497" style="fill: rgb(51, 51, 51); stroke: rgb(0, 0, 0);"></rect><rect x="681.5454545454545" y="112.7041653807025" width="10" height="287.25038007384296" style="fill: rgb(51, 51, 51); stroke: rgb(0, 0, 0);"></rect></g></g></g></g></svg>