<svg class="marks" width="769" height="473" xmlns="http://www.w3.org/2000/svg"><g transform="translate(71,6)"><g id="g18" class="type-group"><g transform="translate(0,0)"><rect class="background" width="680" height="419" style="pointer-events: none; fill: none;"></rect><g id="g19" class="type-group"><g transform="translate(0,419)"><rect class="background" width="0" height="0" style="pointer-events: none; fill: none;"></rect><g id="g20" class="type-rule" style="pointer-events: none;"><line x1="31.409090909093134" y1="-419" x2="31.409090909093134" y2="0" style="fill: none; stroke: rgb(216, 216, 216); stroke-width: 1; opacity: 1;"></line><line x1="85.16403162055519" y1="-419" x2="85.16403162055519" y2="0" style="fill: none; stroke: rgb(216, 216, 216); stroke-width: 1; opacity: 1;"></line><line x1="138.91897233201726" y1="-419" x2="138.91897233201726" y2="0" style="fill: none; stroke: rgb(216, 216, 216); stroke-width: 1; opacity: 1;"></line><line x1="192.67391304347933" y1="-419" x2="192.67391304347933" y2="0" style="fill: none; stroke: rgb(216, 216, 216); stroke-width: 1; opacity: 1;"></line><line x1="246.4288537549414" y1="-419" x2="246.4288537549414" y2="0" style="fill: none; stroke: rgb(216, 216, 216); stroke-width: 1; opacity: 1;"></line><line x1="300.18379446640347" y1="-419" x2="300.18379446640347" y2="0" style="fill: none; stroke: rgb(216, 216, 216); stroke-width: 1; opacity: 1;"></line><line x1="353.9387351778655" y1="-419" x2="353.9387351778655" y2="0" style="fill: none; stroke: rgb(216, 216, 216); stroke-width: 1; opacity: 1;"></line><line x1="407.6936758893276" y1="-419" x2="407.6936758893276" y2="0" style="fill: none; stroke: rgb(216, 216, 216); stroke-width: 1; opacity: 1;"></line><line x1="461.44861660078965" y1="-419" x2="461.44861660078965" y2="0" style="fill: none; stroke: rgb(216, 216, 216); stroke-width: 1; opacity: 1;"></line><line x1="515.2035573122517" y1="-419" x2="515.2035573122517" y2="0" style="fill: none; stroke: rgb(216, 216, 216); stroke-width: 1; opacity: 1;"></line><line x1="568.9584980237138" y1="-419" x2="568.9584980237138" y2="0" style="fill: none; stroke: rgb(216, 216, 216); stroke-width: 1; opacity: 1;"></line><line x1="622.7134387351758" y1="-419" x2="622.7134387351758" y2="0" style="fill: none; stroke: rgb(216, 216, 216); stroke-width: 1; opacity: 1;"></line><line x1="676.4683794466379" y1="-419" x2="676.4683794466379" y2="0" style="fill: none; stroke: rgb(216, 216, 216); stroke-width: 1; opacity: 1;"></line></g><g id="g21" class="type-rule" style="pointer-events: none;"><line x1="31.409090909093134" y1="0" x2="31.409090909093134" y2="6" style="fill: none; stroke: rgb(0, 0, 0); stroke-width: 1; opacity: 1;"></line><line x1="85.16403162055519" y1="0" x2="85.16403162055519" y2="6" style="fill: none; stroke: rgb(0, 0, 0); stroke-width: 1; opacity: 1;"></line><line x1="138.91897233201726" y1="0" x2="138.91897233201726" y2="6" style="fill: none; stroke: rgb(0, 0, 0); stroke-width: 1; opacity: 1;"></line><line x1="192.67391304347933" y1="0" x2="192.67391304347933" y2="6" style="fill: none; stroke: rgb(0, 0, 0); stroke-width: 1; opacity: 1;"></line><line x1="246.4288537549414" y1="0" x2="246.4288537549414" y2="6" style="fill: none; stroke: rgb(0, 0, 0); stroke-width: 1; opacity: 1;"></line><line x1="300.18379446640347" y1="0" x2="300.18379446640347" y2="6" style="fill: none; stroke: rgb(0, 0, 0); stroke-width: 1; opacity: 1;"></line><line x1="353.9387351778655" y1="0" x2="353.9387351778655" y2="6" style="fill: none; stroke: rgb(0, 0, 0); stroke-width: 1; opacity: 1;"></line><line x1="407.6936758893276" y1="0" x2="407.6936758893276" y2="6" style="fill: none; stroke: rgb(0, 0, 0); stroke-width: 1; opacity: 1;"></line><line x1="461.44861660078965" y1="0" x2="461.44861660078965" y2="6" style="fill: none; stroke: rgb(0, 0, 0); stroke-width: 1; opacity: 1;"></line><line x1="515.2035573122517" y1="0" x2="515.2035573122517" y2="6" style="fill: none; stroke: rgb(0, 0, 0); stroke-width: 1; opacity: 1;"></line><line x1="568.9584980237138" y1="0" x2="568.9584980237138" y2="6" style="fill: none; stroke: rgb(0, 0, 0); stroke-width: 1; opacity: 1;"></line><line x1="622.7134387351758" y1="0" x2="622.7134387351758" y2="6" style="fill: none; stroke: rgb(0, 0, 0); stroke-width: 1; opacity: 1;"></line><line x1="676.4683794466379" y1="0" x2="676.4683794466379" y2="6" style="fill: none; stroke: rgb(0, 0, 0); stroke-width: 1; opacity: 1;"></line></g><g id="g22" class="type-rule" style="pointer-events: none;"></g><g id="g23" class="type-text"><text x="31.409090909093134" y="9" text-anchor="middle" dy=".9em" style="font: 11px sans-serif; fill: rgb(0, 0, 0); opacity: 1;">2,000</text><text x="85.16403162055519" y="9" text-anchor="middle" dy=".9em" style="font: 11px sans-serif; fill: rgb(0, 0, 0); opacity: 1;">2,002</text><text x="138.91897233201726" y="9" text-anchor="middle" dy=".9em" style="font: 11px sans-serif; fill: rgb(0, 0, 0); opacity: 1;">2,004</text><text x="192.67391304347933" y="9" text-anchor="middle" dy=".9em" style="font: 11px sans-serif; fill: rgb(0, 0, 0); opacity: 1;">2,006</text><text x="246.4288537549414" y="9" text-anchor="middle" dy=".9em" style="font: 11px sans-serif; fill: rgb(0, 0, 0); opacity: 1;">2,008</text><text x="300.18379446640347" y="9" text-anchor="middle" dy=".9em" style="font: 11px sans-serif; fill: rgb(0, 0, 0); opacity: 1;">2,010</text><text x="353.9387351778655" y="9" text-anchor="middle" dy=".9em" style="font: 11px sans-serif; fill: rgb(0, 0, 0); opacity: 1;">2,012</text><text x="407.6936758893276" y="9" text-anchor="middle" dy=".9em" style="font: 11px sans-serif; fill: rgb(0, 0, 0); opacity: 1;">2,014</text><text x="461.44861660078965" y="9" text-anchor="middle" dy=".9em" style="font: 11px sans-serif; fill: rgb(0, 0, 0); opacity: 1;">2,016</text><text x="515.2035573122517" y="9" text-anchor="middle" dy=".9em" style="font: 11px sans-serif; fill: rgb(0, 0, 0); opacity: 1;">2,018</text><text x="568.9584980237138" y="9" text-anchor="middle" dy=".9em" style="font: 11px sans-serif; fill: rgb(0, 0, 0); opacity: 1;">2,020</text><text x="622.7134387351758" y="9" text-anchor="middle" dy=".9em" style="font: 11px sans-serif; fill: rgb(0, 0, 0); opacity: 1;">2,022</text><text x="676.4683794466379" y="9" text-anchor="middle" dy=".9em" style="font: 11px sans-serif; fill: rgb(0, 0, 0); opacity: 1;">2,024</text></g><g id="g24" class="type-path" style="pointer-events: none;"><path transform="translate(0.5,0.5)" d="M0,6V0H680V6" style="fill: none; stroke: rgb(0, 0, 0); stroke-width: 1;"></path></g><g id="g25" class="type-text"><text x="340" y="35" text-anchor="middle" dy=".35em" style="font: bold 11px sans-serif; fill: rgb(0, 0, 0);">t</text></g></g></g><g id="g26" class="type-group"><g transform="translate(0,0)"><rect class="background" width="0" height="0" style="pointer-events: none; fill: none;"></rect><g id="g27" class="type-rule" style="pointer-events: none;"><line x1="0" y1="415.49914753786595" x2="680" y2="415.49914753786595" style="fill: none; stroke: rgb(216, 216, 216); stroke-width: 1; opacity: 1;"></line><line x1="0" y1="364.9497069954456" x2="680" y2="364.9497069954456" style="fill: none; stroke: rgb(216, 216, 216); stroke-width: 1; opacity: 1;"></line><line x1="0" y1="314.40026645302515" x2="680" y2="314.40026645302515" style="fill: none; stroke: rgb(216, 216, 216); stroke-width: 1; opacity: 1;"></line><line x1="0" y1="263.8508259106048" x2="680" y2="263.8508259106048" style="fill: none; stroke: rgb(216, 216, 216); stroke-width: 1; opacity: 1;"></line><line x1="0" y1="213.30138536818436" x2="680" y2="213.30138536818436" style="fill: none; stroke: rgb(216, 216, 216); stroke-width: 1; opacity: 1;"></line><line x1="0" y1="162.75194482576396" x2="680" y2="162.75194482576396" style="fill: none; stroke: rgb(216, 216, 216); stroke-width: 1; opacity: 1;"></line><line x1="0" y1="112.20250428334354" x2="680" y2="112.20250428334354" style="fill: none; stroke: rgb(216, 216, 216); stroke-width: 1; opacity: 1;"></line><line x1="0" y1="61.653063740923145" x2="680" y2="61.653063740923145" style="fill: none; stroke: rgb(216, 216, 216); stroke-width: 1; opacity: 1;"></line><line x1="0" y1="11.10362319850274" x2="680" y2="11.10362319850274" style="fill: none; stroke: rgb(216, 216, 216); stroke-width: 1; opacity: 1;"></line></g><g id="g28" class="type-rule" style="pointer-events: none;"><line x1="-6" y1="415.49914753786595" x2="0" y2="415.49914753786595" style="fill: none; stroke: rgb(0, 0, 0); stroke-width: 1; opacity: 1;"></line><line x1="-6" y1="364.9497069954456" x2="0" y2="364.9497069954456" style="fill: none; stroke: rgb(0, 0, 0); stroke-width: 1; opacity: 1;"></line><line x1="-6" y1="314.40026645302515" x2="0" y2="314.40026645302515" style="fill: none; stroke: rgb(0, 0, 0); stroke-width: 1; opacity: 1;"></line><line x1="-6" y1="263.8508259106048" x2="0" y2="263.8508259106048" style="fill: none; stroke: rgb(0, 0, 0); stroke-width: 1; opacity: 1;"></line><line x1="-6" y1="213.30138536818436" x2="0" y2="213.30138536818436" style="fill: none; stroke: rgb(0, 0, 0); stroke-width: 1; opacity: 1;"></line><line x1="-6" y1="162.75194482576396" x2="0" y2="162.75194482576396" style="fill: none; stroke: rgb(0, 0, 0); stroke-width: 1; opacity: 1;"></line><line x1="-6" y1="112.20250428334354" x2="0" y2="112.20250428334354" style="fill: none; stroke: rgb(0, 0, 0); stroke-width: 1; opacity: 1;"></line><line x1="-6" y1="61.653063740923145" x2="0" y2="61.653063740923145" style="fill: none; stroke: rgb(0, 0, 0); stroke-width: 1; opacity: 1;"></line><line x1="-6" y1="11.10362319850274" x2="0" y2="11.10362319850274" style="fill: none; stroke: rgb(0, 0, 0); stroke-width: 1; opacity: 1;"></line></g><g id="g29" class="type-rule" style="pointer-events: none;"></g><g id="g30" class="type-text"><text x="-9" y="415.49914753786595" text-anchor="end" dy=".35em" style="font: 11px sans-serif; fill: rgb(0, 0, 0); opacity: 1;">4,000,000</text><text x="-9" y="364.9497069954456" text-anchor="end" dy=".35em" style="font: 11px sans-serif; fill: rgb(0, 0, 0); opacity: 1;">6,000,000</text><text x="-9" y="314.40026645302515" text-anchor="end" dy=".35em" style="font: 11px sans-serif; fill: rgb(0, 0, 0); opacity: 1;">8,000,000</text><text x="-9" y="263.8508259106048" text-anchor="end" dy=".35em" style="font: 11px sans-serif; fill: rgb(0, 0, 0); opacity: 1;">10,000,000</text><text x="-9" y="213.30138536818436" text-anchor="end" dy=".35em" style="font: 11px sans-serif; fill: rgb(0, 0, 0); opacity: 1;">12,000,000</text><text x="-9" y="162.75194482576396" text-anchor="end" dy=".35em" style="font: 11px sans-serif; fill: rgb(0, 0, 0); opacity: 1;">14,000,000</text><text x="-9" y="112.20250428334354" text-anchor="end" dy=".35em" style="font: 11px sans-serif; fill: rgb(0, 0, 0); opacity: 1;">16,000,000</text><text x="-9" y="61.653063740923145" text-anchor="end" dy=".35em" style="font: 11px sans-serif; fill: rgb(0, 0, 0); opacity: 1;">18,000,000</text><text x="-9" y="11.10362319850274" text-anchor="end" dy=".35em" style="font: 11px sans-serif; fill: rgb(0, 0, 0); opacity: 1;">20,000,000</text></g><g id="g31" class="type-path" style="pointer-events: none;"><path transform="translate(0.5,0.5)" d="M-6,0H0V419H-6" style="fill: none; stroke: rgb(0, 0, 0); stroke-width: 1;"></path></g><g id="g32" class="type-text"><text x="-35" y="209" text-anchor="middle" transform="rotate(-90 -35,209)" dy=".35em" style="font: bold 11px sans-serif; fill: rgb(0, 0, 0);">pbi</text></g></g></g><g id="g33" class="type-line"><path d="M30.909090909093134,399.9545454545454L57.78656126482416,384.5071652871951L84.66403162055519,376.1006071564505L111.54150197628623,361.4259022633206L138.41897233201726,341.0568551547369L165.29644268774828,333.30287495525835L192.17391304347933,328.8139668245261L219.05138339921038,308.62091555910916L245.9288537549414,302.8735645725102L272.80632411067245,324.9048003105932L299.68379446640347,286.6733218924686L326.5612648221345,268.78376458640923L353.4387351778655,274.6698584814399L380.31620553359653,270.7369139595974L407.1936758893276,258.11735551559156L434.07114624505857,243.25209733930026L460.94861660078965,220.18400899605376L487.82608695652067,189.2640485210341L514.7035573122517,179.28602170424963L541.5810276679828,166.0684659066098L568.4584980237138,195.60414985059379L595.3359683794448,103.0521744108051L622.2134387351758,84.63957750846689L649.0909090909068,19.045454545456437" style="fill: none; stroke: rgb(0, 0, 0);"></path></g><g id="g34" class="type-symbol"><path transform="translate(30.909090909093134,399.9545454545454)" d="M0,3.989422804014327A3.989422804014327,3.989422804014327 0 1,1 0,-3.989422804014327A3.989422804014327,3.989422804014327 0 1,1 0,3.989422804014327Z" style="fill: rgb(0, 0, 0);"></path><path transform="translate(57.78656126482416,384.5071652871951)" d="M0,3.989422804014327A3.989422804014327,3.989422804014327 0 1,1 0,-3.989422804014327A3.989422804014327,3.989422804014327 0 1,1 0,3.989422804014327Z" style="fill: rgb(0, 0, 0);"></path><path transform="translate(84.66403162055519,376.1006071564505)" d="M0,3.989422804014327A3.989422804014327,3.989422804014327 0 1,1 0,-3.989422804014327A3.989422804014327,3.989422804014327 0 1,1 0,3.989422804014327Z" style="fill: rgb(0, 0, 0);"></path><path transform="translate(111.54150197628623,361.4259022633206)" d="M0,3.989422804014327A3.989422804014327,3.989422804014327 0 1,1 0,-3.989422804014327A3.989422804014327,3.989422804014327 0 1,1 0,3.989422804014327Z" style="fill: rgb(0, 0, 0);"></path><path transform="translate(138.41897233201726,341.0568551547369)" d="M0,3.989422804014327A3.989422804014327,3.989422804014327 0 1,1 0,-3.989422804014327A3.989422804014327,3.989422804014327 0 1,1 0,3.989422804014327Z" style="fill: rgb(0, 0, 0);"></path><path transform="translate(165.29644268774828,333.30287495525835)" d="M0,3.989422804014327A3.989422804014327,3.989422804014327 0 1,1 0,-3.989422804014327A3.989422804014327,3.989422804014327 0 1,1 0,3.989422804014327Z" style="fill: rgb(0, 0, 0);"></path><path transform="translate(192.17391304347933,328.8139668245261)" d="M0,3.989422804014327A3.989422804014327,3.989422804014327 0 1,1 0,-3.989422804014327A3.989422804014327,3.989422804014327 0 1,1 0,3.989422804014327Z" style="fill: rgb(0, 0, 0);"></path><path transform="translate(219.05138339921038,308.62091555910916)" d="M0,3.989422804014327A3.989422804014327,3.989422804014327 0 1,1 0,-3.989422804014327A3.989422804014327,3.989422804014327 0 1,1 0,3.989422804014327Z" style="fill: rgb(0, 0, 0);"></path><path transform="translate(245.9288537549414,302.8735645725102)" d="M0,3.989422804014327A3.989422804014327,3.989422804014327 0 1,1 0,-3.989422804014327A3.989422804014327,3.989422804014327 0 1,1 0,3.989422804014327Z" style="fill: rgb(0, 0, 0);"></path><path transform="translate(272.80632411067245,324.9048003105932)" d="M0,3.989422804014327A3.989422804014327,3.989422804014327 0 1,1 0,-3.989422804014327A3.989422804014327,3.989422804014327 0 1,1 0,3.989422804014327Z" style="fill: rgb(0, 0, 0);"></path><path transform="translate(299.68379446640347,286.6733218924686)" d="M0,3.989422804014327A3.989422804014327,3.989422804014327 0 1,1 0,-3.989422804014327A3.989422804014327,3.989422804014327 0 1,1 0,3.989422804014327Z" style="fill: rgb(0, 0, 0);"></path><path transform="translate(326.5612648221345,268.78376458640923)" d="M0,3.989422804014327A3.989422804014327,3.989422804014327 0 1,1 0,-3.989422804014327A3.989422804014327,3.989422804014327 0 1,1 0,3.989422804014327Z" style="fill: rgb(0, 0, 0);"></path><path transform="translate(353.4387351778655,274.6698584814399)" d="M0,3.989422804014327A3.989422804014327,3.989422804014327 0 1,1 0,-3.989422804014327A3.989422804014327,3.989422804014327 0 1,1 0,3.989422804014327Z" style="fill: rgb(0, 0, 0);"></path><path transform="translate(380.31620553359653,270.7369139595974)" d="M0,3.989422804014327A3.989422804014327,3.989422804014327 0 1,1 0,-3.989422804014327A3.989422804014327,3.989422804014327 0 1,1 0,3.989422804014327Z" style="fill: rgb(0, 0, 0);"></path><path transform="translate(407.1936758893276,258.11735551559156)" d="M0,3.989422804014327A3.989422804014327,3.989422804014327 0 1,1 0,-3.989422804014327A3.989422804014327,3.989422804014327 0 1,1 0,3.989422804014327Z" style="fill: rgb(0, 0, 0);"></path><path transform="translate(434.07114624505857,243.25209733930026)" d="M0,3.989422804014327A3.989422804014327,3.989422804014327 0 1,1 0,-3.989422804014327A3.989422804014327,3.989422804014327 0 1,1 0,3.989422804014327Z" style="fill: rgb(0, 0, 0);"></path><path transform="translate(460.94861660078965,220.18400899605376)" d="M0,3.989422804014327A3.989422804014327,3.989422804014327 0 1,1 0,-3.989422804014327A3.989422804014327,3.989422804014327 0 1,1 0,3.989422804014327Z" style="fill: rgb(0, 0, 0);"></path><path transform="translate(487.82608695652067,189.2640485210341)" d="M0,3.989422804014327A3.989422804014327,3.989422804014327 0 1,1 0,-3.989422804014327A3.989422804014327,3.989422804014327 0 1,1 0,3.989422804014327Z" style="fill: rgb(0, 0, 0);"></path><path transform="translate(514.7035573122517,179.28602170424963)" d="M0,3.989422804014327A3.989422804014327,3.989422804014327 0 1,1 0,-3.989422804014327A3.989422804014327,3.989422804014327 0 1,1 0,3.989422804014327Z" style="fill: rgb(0, 0, 0);"></path><path transform="translate(541.5810276679828,166.0684659066098)" d="M0,3.989422804014327A3.989422804014327,3.989422804014327 0 1,1 0,-3.989422804014327A3.989422804014327,3.989422804014327 0 1,1 0,3.989422804014327Z" style="fill: rgb(0, 0, 0);"></path><path transform="translate(568.4584980237138,195.60414985059379)" d="M0,3.989422804014327A3.989422804014327,3.989422804014327 0 1,1 0,-3.989422804014327A3.989422804014327,3.989422804014327 0 1,1 0,3.989422804014327Z" style="fill: rgb(0, 0, 0);"></path><path transform="translate(595.3359683794448,103.0521744108051)" d="M0,3.989422804014327A3.989422804014327,3.989422804014327 0 1,1 0,-3.989422804014327A3.989422804014327,3.989422804014327 0 1,1 0,3.989422804014327Z" style="fill: rgb(0, 0, 0);"></path><path transform="translate(622.2134387351758,84.63957750846689)" d="M0,3.989422804014327A3.989422804014327,3.989422804014327 0 1,1 0,-3.989422804014327A3.989422804014327,3.989422804014327 0 1,1 0,3.989422804014327Z" style="fill: rgb(0, 0, 0);"></path><path transform="translate(649.0909090909068,19.045454545456437)" d="M0,3.989422804014327A3.989422804014327,3.989422804014327 0 1,1 0,-3.989422804014327A3.989422804014327,3.989422804014327 0 1,1 0,3.989422804014327Z" style="fill: rgb(0, 0, 0);"></path></g></g></g></g></svg>